<svg class="animated" id="freepik_stories-stamp-collecting" xmlns="http://www.w3.org/2000/svg" viewBox="0 0 500 500" version="1.1" xmlns:xlink="http://www.w3.org/1999/xlink" xmlns:svgjs="http://svgjs.com/svgjs"><style>svg#freepik_stories-stamp-collecting:not(.animated) .animable {opacity: 0;}svg#freepik_stories-stamp-collecting.animated #el0zo32e6es3y {animation: 1s 1 forwards ease-in fadeIn;animation-delay: 0s;}svg#freepik_stories-stamp-collecting.animated #elowubiref1b {animation: 1s 1 forwards ease-in fadeIn;animation-delay: 0.2s;opacity: 0}svg#freepik_stories-stamp-collecting.animated #elsev4dpsfkai {animation: 1s 1 forwards ease-in fadeIn;animation-delay: 0.4s;opacity: 0}svg#freepik_stories-stamp-collecting.animated #elygyolua44hg {animation: 1s 1 forwards ease-in fadeIn;animation-delay: 0.6000000000000001s;opacity: 0}svg#freepik_stories-stamp-collecting.animated #elgm20riiu6r9 {animation: 1s 1 forwards ease-in fadeIn;animation-delay: 0.8s;opacity: 0}svg#freepik_stories-stamp-collecting.animated #freepik--stamps-5--inject-114 {animation: 1s 1 forwards ease-in fadeIn;animation-delay: 0s;}svg#freepik_stories-stamp-collecting.animated #freepik--stamp-4--inject-114 {animation: 1s 1 forwards cubic-bezier(.36,-0.01,.5,1.38) slideRight;animation-delay: 0s;}svg#freepik_stories-stamp-collecting.animated #freepik--stamp-3--inject-114 {animation: 1s 1 forwards cubic-bezier(.36,-0.01,.5,1.38) slideDown;animation-delay: 0s;}svg#freepik_stories-stamp-collecting.animated #freepik--stamp-2--inject-114 {animation: 1s 1 forwards cubic-bezier(.36,-0.01,.5,1.38) slideDown;animation-delay: 0s;}svg#freepik_stories-stamp-collecting.animated #freepik--stamp-1--inject-114 {animation: 1s 1 forwards cubic-bezier(.36,-0.01,.5,1.38) slideLeft;animation-delay: 0s;}svg#freepik_stories-stamp-collecting.animated #freepik--Character--inject-114 {animation: 1s 1 forwards cubic-bezier(.36,-0.01,.5,1.38) slideUp,1.5s Infinite  linear wind;animation-delay: 0s,1s;}svg#freepik_stories-stamp-collecting.animated #freepik--Book--inject-114 {animation: 1.5s 1 forwards cubic-bezier(.36,-0.01,.5,1.38) slideUp,1.5s Infinite  linear wind;animation-delay: 0s,1.5s;}            @keyframes fadeIn {                0% {                    opacity: 0;                }                100% {                    opacity: 1;                }            }                    @keyframes slideRight {                0% {                    opacity: 0;                    transform: translateX(30px);                }                100% {                    opacity: 1;                    transform: translateX(0);                }            }                    @keyframes slideDown {                0% {                    opacity: 0;                    transform: translateY(-30px);                }                100% {                    opacity: 1;                    transform: translateY(0);                }            }                    @keyframes slideLeft {                0% {                    opacity: 0;                    transform: translateX(-30px);                }                100% {                    opacity: 1;                    transform: translateX(0);                }            }                    @keyframes slideUp {                0% {                    opacity: 0;                    transform: translateY(30px);                }                100% {                    opacity: 1;                    transform: inherit;                }            }                    @keyframes wind {                0% {                    transform: rotate( 0deg );                }                25% {                    transform: rotate( 1deg );                }                75% {                    transform: rotate( -1deg );                }            }        </style><g id="freepik--background-simple--inject-114" class="animable" style="transform-origin: 252.145px 252.593px;"><path d="M478.52,236.34c6.13-53.85-12.08-107.93-50.3-146.36-18.8-18.89-44.5-36.69-78.65-45.29-95.78-24.12-157.85-2-188.88,56.66S40.61,149.92,26.44,251.11,81.09,463.6,197.79,469.67s101.68-52,165.51-76.94C412.13,373.67,469.38,316.71,478.52,236.34Z" style="fill: rgb(181, 31, 50); transform-origin: 252.145px 252.593px;" id="elmfmg17j4lqk" class="animable"></path><g id="el9yv4t6o0e4u"><path d="M478.52,236.34c6.13-53.85-12.08-107.93-50.3-146.36-18.8-18.89-44.5-36.69-78.65-45.29-95.78-24.12-157.85-2-188.88,56.66S40.61,149.92,26.44,251.11,81.09,463.6,197.79,469.67s101.68-52,165.51-76.94C412.13,373.67,469.38,316.71,478.52,236.34Z" style="fill: rgb(255, 255, 255); opacity: 0.7; transform-origin: 252.145px 252.593px;" class="animable"></path></g></g><g id="freepik--Table--inject-114" class="animable" style="transform-origin: 244.445px 409.15px;"><line x1="30.62" y1="409.15" x2="458.27" y2="409.15" style="fill: rgb(255, 255, 255); stroke: rgb(38, 50, 56); stroke-linecap: round; stroke-linejoin: round; transform-origin: 244.445px 409.15px;" id="elvs5dhck244h" class="animable"></line></g><g id="freepik--stamps-5--inject-114" class="animable" style="transform-origin: 244.966px 200.872px;"><g id="el0zo32e6es3y"><g style="opacity: 0.3; transform-origin: 74.3126px 303.812px;" class="animable"><path d="M104.82,342.76c-1.31,1.68-2.81-1.38-4.94-1.38s-2.14,1.71-4.27,1.71-2.13-1.71-4.26-1.71-2.13,1.71-4.26,1.71-2.13-1.71-4.26-1.71-2.13,1.71-4.26,1.71-2.14-1.71-4.27-1.71-2.13,1.71-4.26,1.71-2.13-1.71-4.27-1.71-2.13,1.71-4.26,1.71-2.13-1.71-4.27-1.71-2.13,1.71-4.26,1.71-2.14-1.71-4.27-1.71-3.64,3.07-5,1.38c-1.68-2.17,1.53-3.27,1.53-6s-1.71-2.74-1.71-5.49,1.71-2.74,1.71-5.49-1.71-2.74-1.71-5.49,1.71-2.74,1.71-5.49-1.71-2.74-1.71-5.49,1.71-2.74,1.71-5.49-1.71-2.75-1.71-5.49,1.71-2.75,1.71-5.49-1.71-2.75-1.71-5.5,1.71-2.74,1.71-5.49-1.71-2.74-1.71-5.49,1.71-2.75,1.71-5.5-3.21-3.85-1.53-6c1.31-1.68,2.81,1.38,4.94,1.38s2.13-1.71,4.26-1.71,2.13,1.71,4.26,1.71,2.13-1.71,4.27-1.71,2.13,1.71,4.26,1.71,2.13-1.71,4.26-1.71,2.13,1.71,4.26,1.71,2.14-1.71,4.27-1.71,2.13,1.71,4.26,1.71,2.14-1.71,4.27-1.71,2.13,1.71,4.26,1.71,2.14-1.71,4.27-1.71,2.13,1.71,4.27,1.71,3.63-3.06,4.94-1.38c1.69,2.17-1.53,3.28-1.53,6s1.71,2.75,1.71,5.49-1.71,2.75-1.71,5.49,1.71,2.75,1.71,5.5-1.71,2.74-1.71,5.48,1.71,2.75,1.71,5.49-1.71,2.75-1.71,5.49,1.71,2.75,1.71,5.5-1.71,2.74-1.71,5.49,1.71,2.74,1.71,5.49-1.71,2.75-1.71,5.49,1.71,2.75,1.71,5.5-2.35,3-1.68,5.71C104.09,340.05,106.5,340.59,104.82,342.76Z" style="fill: none; stroke: rgb(0, 0, 0); stroke-linecap: round; stroke-linejoin: round; transform-origin: 74.3126px 303.812px;" id="eli2q29e9iog" class="animable"></path><rect x="47.72" y="269.56" width="53.14" height="68.45" style="fill: none; stroke: rgb(0, 0, 0); stroke-linecap: round; stroke-linejoin: round; transform-origin: 74.29px 303.785px;" id="elulov8v3edbn" class="animable"></rect></g></g><g id="elowubiref1b"><g style="opacity: 0.3; transform-origin: 413.004px 315.612px;" class="animable"><path d="M443.48,354.6c-1.3,1.69-2.81-1.38-4.94-1.38s-2.13,1.72-4.26,1.72-2.13-1.72-4.26-1.72-2.13,1.72-4.26,1.72-2.13-1.72-4.26-1.72-2.13,1.72-4.27,1.72-2.13-1.72-4.26-1.72-2.13,1.72-4.26,1.72-2.14-1.72-4.27-1.72-2.13,1.72-4.27,1.72-2.13-1.72-4.26-1.72-2.13,1.72-4.27,1.72-2.13-1.72-4.27-1.72-3.63,3.07-4.94,1.39c-1.69-2.17,1.53-3.28,1.53-6s-1.71-2.75-1.71-5.49,1.71-2.75,1.71-5.49-1.71-2.75-1.71-5.5,1.71-2.74,1.71-5.48-1.71-2.75-1.71-5.49,1.71-2.75,1.71-5.49-1.71-2.75-1.71-5.5,1.71-2.74,1.71-5.49-1.71-2.75-1.71-5.49,1.71-2.75,1.71-5.49-1.71-2.75-1.71-5.5,1.71-2.75,1.71-5.5-3.22-3.85-1.53-6c1.3-1.69,2.81,1.38,4.94,1.38s2.13-1.71,4.26-1.71,2.13,1.71,4.26,1.71,2.13-1.71,4.26-1.71,2.13,1.71,4.26,1.71,2.14-1.71,4.27-1.71,2.13,1.71,4.26,1.71,2.13-1.71,4.27-1.71,2.13,1.71,4.26,1.71,2.13-1.71,4.27-1.71S427.87,278,430,278s2.13-1.71,4.27-1.71,2.13,1.71,4.27,1.71,3.63-3.07,4.94-1.38c1.69,2.17-1.53,3.27-1.53,6s1.71,2.74,1.71,5.49-1.71,2.74-1.71,5.49,1.71,2.74,1.71,5.49-1.71,2.74-1.71,5.49,1.71,2.74,1.71,5.49-1.71,2.74-1.71,5.49,1.71,2.74,1.71,5.49S442,323.86,442,326.6s1.71,2.75,1.71,5.5-1.71,2.74-1.71,5.49,1.71,2.74,1.71,5.49-2.36,3-1.68,5.71C442.76,351.89,445.17,352.43,443.48,354.6Z" style="fill: none; stroke: rgb(0, 0, 0); stroke-linecap: round; stroke-linejoin: round; transform-origin: 413.004px 315.612px;" id="elaja4fl1v09" class="animable"></path><rect x="386.38" y="281.41" width="53.14" height="68.45" style="fill: none; stroke: rgb(0, 0, 0); stroke-linecap: round; stroke-linejoin: round; transform-origin: 412.95px 315.635px;" id="elnjwqoorq0tr" class="animable"></rect></g></g><g id="elsev4dpsfkai"><g style="opacity: 0.3; transform-origin: 415.644px 86.093px;" class="animable"><path d="M446.12,125.05c-1.3,1.68-2.8-1.38-4.94-1.38s-2.13,1.71-4.26,1.71-2.13-1.71-4.26-1.71-2.13,1.71-4.26,1.71-2.13-1.71-4.26-1.71-2.13,1.71-4.26,1.71-2.14-1.71-4.27-1.71-2.13,1.71-4.26,1.71-2.14-1.71-4.27-1.71-2.13,1.71-4.26,1.71-2.14-1.71-4.27-1.71-2.13,1.71-4.26,1.71-2.14-1.71-4.27-1.71-3.64,3.06-4.95,1.38c-1.69-2.17,1.53-3.28,1.53-6s-1.71-2.75-1.71-5.49,1.71-2.75,1.71-5.49-1.71-2.75-1.71-5.49,1.71-2.75,1.71-5.49-1.71-2.75-1.71-5.49,1.71-2.75,1.71-5.49-1.71-2.75-1.71-5.5,1.71-2.74,1.71-5.49-1.71-2.74-1.71-5.49,1.71-2.75,1.71-5.49-1.71-2.75-1.71-5.5,1.71-2.75,1.71-5.5-3.22-3.85-1.53-6c1.31-1.68,2.81,1.38,4.94,1.38s2.13-1.71,4.26-1.71,2.13,1.71,4.26,1.71,2.13-1.71,4.27-1.71,2.13,1.71,4.26,1.71,2.13-1.71,4.26-1.71,2.13,1.71,4.26,1.71,2.14-1.71,4.27-1.71,2.13,1.71,4.26,1.71,2.13-1.71,4.27-1.71,2.13,1.71,4.26,1.71,2.13-1.71,4.27-1.71,2.13,1.71,4.27,1.71,3.63-3.07,4.94-1.38c1.69,2.17-1.53,3.27-1.53,6s1.71,2.74,1.71,5.49-1.71,2.74-1.71,5.49,1.71,2.74,1.71,5.49-1.71,2.74-1.71,5.49,1.71,2.74,1.71,5.49-1.71,2.74-1.71,5.49,1.71,2.75,1.71,5.49-1.71,2.75-1.71,5.49,1.71,2.75,1.71,5.5-1.71,2.74-1.71,5.49,1.71,2.75,1.71,5.49-2.36,3-1.68,5.71C445.4,122.33,447.81,122.87,446.12,125.05Z" style="fill: none; stroke: rgb(0, 0, 0); stroke-linecap: round; stroke-linejoin: round; transform-origin: 415.644px 86.093px;" id="elctu2pxm5hk5" class="animable"></path><rect x="389.02" y="51.85" width="53.14" height="68.45" style="fill: none; stroke: rgb(0, 0, 0); stroke-linecap: round; stroke-linejoin: round; transform-origin: 415.59px 86.075px;" id="elwq44s1amjn" class="animable"></rect></g></g><g id="elygyolua44hg"><g style="opacity: 0.3; transform-origin: 91.405px 97.6939px;" class="animable"><path d="M52.43,128.17c-1.69-1.3,1.38-2.81,1.38-4.94S52.1,121.1,52.1,119s1.71-2.13,1.71-4.26-1.71-2.13-1.71-4.26,1.71-2.13,1.71-4.26-1.71-2.13-1.71-4.27,1.71-2.13,1.71-4.26-1.71-2.13-1.71-4.27,1.71-2.13,1.71-4.26S52.1,87,52.1,84.86s1.71-2.13,1.71-4.26-1.71-2.13-1.71-4.27,1.71-2.13,1.71-4.27-3.07-3.63-1.38-4.94c2.16-1.69,3.27,1.53,6,1.53s2.75-1.71,5.49-1.71,2.75,1.71,5.5,1.71,2.74-1.71,5.49-1.71,2.74,1.71,5.48,1.71,2.75-1.71,5.49-1.71,2.75,1.71,5.5,1.71,2.74-1.71,5.49-1.71,2.74,1.71,5.49,1.71,2.75-1.71,5.49-1.71,2.75,1.71,5.49,1.71,2.75-1.71,5.5-1.71,2.75,1.71,5.5,1.71,3.85-3.22,6-1.53c1.69,1.3-1.38,2.81-1.38,4.94s1.71,2.13,1.71,4.26S129,78.45,129,80.58s1.71,2.13,1.71,4.26S129,87,129,89.1s1.71,2.14,1.71,4.27S129,95.5,129,97.63s1.71,2.13,1.71,4.27S129,104,129,106.16s1.71,2.13,1.71,4.27-1.71,2.13-1.71,4.26,1.71,2.13,1.71,4.27-1.71,2.13-1.71,4.27,3.07,3.63,1.38,4.94c-2.17,1.69-3.27-1.53-6-1.53s-2.75,1.71-5.5,1.71-2.74-1.71-5.49-1.71-2.74,1.71-5.49,1.71-2.74-1.71-5.49-1.71-2.74,1.71-5.49,1.71-2.74-1.71-5.49-1.71-2.74,1.71-5.49,1.71-2.75-1.71-5.49-1.71-2.75,1.71-5.49,1.71-2.75-1.71-5.5-1.71-2.74,1.71-5.49,1.71-3-2.36-5.71-1.68C55.14,127.45,54.6,129.86,52.43,128.17Z" style="fill: none; stroke: rgb(0, 0, 0); stroke-linecap: round; stroke-linejoin: round; transform-origin: 91.405px 97.6939px;" id="el5of11masawf" class="animable"></path><g id="eljcq133p758e"><rect x="64.83" y="63.42" width="53.14" height="68.45" style="fill: none; stroke: rgb(0, 0, 0); stroke-linecap: round; stroke-linejoin: round; transform-origin: 91.4px 97.645px; transform: rotate(90deg);" class="animable"></rect></g></g></g><g id="elgm20riiu6r9"><g style="opacity: 0.3; transform-origin: 223.572px 213.066px;" class="animable"><path d="M184.64,243.52c-1.69-1.31,1.38-2.81,1.38-4.94s-1.71-2.13-1.71-4.26,1.71-2.13,1.71-4.26-1.71-2.13-1.71-4.27,1.71-2.13,1.71-4.26-1.71-2.13-1.71-4.26S186,215.14,186,213s-1.71-2.14-1.71-4.27,1.71-2.13,1.71-4.26-1.71-2.14-1.71-4.27S186,198.08,186,196s-1.71-2.14-1.71-4.27,1.71-2.13,1.71-4.27-3.07-3.63-1.38-4.94c2.17-1.69,3.27,1.53,6,1.53s2.74-1.71,5.49-1.71,2.74,1.71,5.49,1.71,2.74-1.71,5.49-1.71,2.74,1.71,5.49,1.71,2.74-1.71,5.49-1.71,2.74,1.71,5.49,1.71,2.74-1.71,5.49-1.71,2.75,1.71,5.49,1.71,2.75-1.71,5.5-1.71,2.74,1.71,5.49,1.71,2.74-1.71,5.49-1.71,2.75,1.71,5.5,1.71,3.85-3.22,6-1.54c1.69,1.31-1.38,2.81-1.38,4.94s1.72,2.14,1.72,4.27-1.72,2.13-1.72,4.26,1.72,2.13,1.72,4.26-1.72,2.13-1.72,4.26,1.72,2.13,1.72,4.26-1.72,2.14-1.72,4.27,1.72,2.13,1.72,4.26-1.72,2.13-1.72,4.27,1.72,2.13,1.72,4.26-1.72,2.13-1.72,4.27,1.72,2.13,1.72,4.26-1.72,2.14-1.72,4.27,3.07,3.64,1.39,5c-2.17,1.68-3.28-1.53-6-1.53s-2.75,1.71-5.49,1.71-2.75-1.71-5.49-1.71-2.75,1.71-5.5,1.71-2.74-1.71-5.48-1.71-2.75,1.71-5.49,1.71-2.75-1.71-5.49-1.71-2.75,1.71-5.5,1.71-2.74-1.71-5.49-1.71-2.74,1.71-5.49,1.71S204.4,242,201.66,242s-2.75,1.71-5.5,1.71-3-2.36-5.71-1.69C187.35,242.8,186.81,245.2,184.64,243.52Z" style="fill: none; stroke: rgb(0, 0, 0); stroke-linecap: round; stroke-linejoin: round; transform-origin: 223.572px 213.066px;" id="eli5c8i5s8c7k" class="animable"></path><g id="elqo4fp43zp6c"><rect x="197.04" y="178.77" width="53.14" height="68.45" style="fill: none; stroke: rgb(0, 0, 0); stroke-linecap: round; stroke-linejoin: round; transform-origin: 223.61px 212.995px; transform: rotate(90deg);" class="animable"></rect></g></g></g></g><g id="freepik--stamp-4--inject-114" class="animable" style="transform-origin: 425.951px 205.966px;"><path d="M380.44,241.69c-2-1.53,1.62-3.28,1.62-5.77s-2-2.49-2-5,2-2.48,2-5-2-2.49-2-5,2-2.49,2-5-2-2.49-2-5,2-2.49,2-5-2-2.49-2-5,2-2.49,2-5-2-2.49-2-5,2-2.49,2-5-2-2.5-2-5,2-2.49,2-5-3.59-4.25-1.62-5.78c2.53-2,3.82,1.79,7,1.79s3.21-2,6.42-2,3.21,2,6.42,2,3.21-2,6.42-2,3.2,2,6.41,2,3.2-2,6.41-2,3.21,2,6.42,2,3.21-2,6.42-2,3.21,2,6.42,2,3.21-2,6.42-2,3.2,2,6.41,2,3.21-2,6.42-2,3.22,2,6.43,2,4.5-3.76,7-1.79c2,1.53-1.61,3.28-1.61,5.77s2,2.49,2,5-2,2.48-2,5,2,2.49,2,5-2,2.49-2,5,2,2.49,2,5-2,2.49-2,5,2,2.49,2,5-2,2.49-2,5,2,2.49,2,5-2,2.49-2,5,2,2.5,2,5-2,2.49-2,5,3.58,4.25,1.61,5.78c-2.53,2-3.82-1.79-7-1.79s-3.21,2-6.42,2-3.21-2-6.41-2-3.21,2-6.42,2-3.21-2-6.41-2-3.21,2-6.42,2-3.21-2-6.42-2-3.21,2-6.42,2-3.2-2-6.41-2-3.21,2-6.42,2-3.21-2-6.42-2-3.21,2-6.42,2-3.56-2.76-6.67-2C383.61,240.85,383,243.66,380.44,241.69Z" style="fill: rgb(255, 255, 255); transform-origin: 425.951px 205.966px;" id="elst1f22vqveq" class="animable"></path><path d="M380.44,241.69c-2-1.53,1.62-3.28,1.62-5.77s-2-2.49-2-5,2-2.48,2-5-2-2.49-2-5,2-2.49,2-5-2-2.49-2-5,2-2.49,2-5-2-2.49-2-5,2-2.49,2-5-2-2.49-2-5,2-2.49,2-5-2-2.5-2-5,2-2.49,2-5-3.59-4.25-1.62-5.78c2.53-2,3.82,1.79,7,1.79s3.21-2,6.42-2,3.21,2,6.42,2,3.21-2,6.42-2,3.2,2,6.41,2,3.2-2,6.41-2,3.21,2,6.42,2,3.21-2,6.42-2,3.21,2,6.42,2,3.21-2,6.42-2,3.2,2,6.41,2,3.21-2,6.42-2,3.22,2,6.43,2,4.5-3.76,7-1.79c2,1.53-1.61,3.28-1.61,5.77s2,2.49,2,5-2,2.48-2,5,2,2.49,2,5-2,2.49-2,5,2,2.49,2,5-2,2.49-2,5,2,2.49,2,5-2,2.49-2,5,2,2.49,2,5-2,2.49-2,5,2,2.5,2,5-2,2.49-2,5,3.58,4.25,1.61,5.78c-2.53,2-3.82-1.79-7-1.79s-3.21,2-6.42,2-3.21-2-6.41-2-3.21,2-6.42,2-3.21-2-6.41-2-3.21,2-6.42,2-3.21-2-6.42-2-3.21,2-6.42,2-3.2-2-6.41-2-3.21,2-6.42,2-3.21-2-6.42-2-3.21,2-6.42,2-3.56-2.76-6.67-2C383.61,240.85,383,243.66,380.44,241.69Z" style="fill: none; stroke: rgb(38, 50, 56); stroke-linecap: round; stroke-linejoin: round; transform-origin: 425.951px 205.966px;" id="el2hui7hn7aau" class="animable"></path><g id="elvl3bro85tpi"><rect x="394.93" y="166.02" width="62.11" height="79.99" style="fill: rgb(181, 31, 50); stroke: rgb(38, 50, 56); stroke-linecap: round; stroke-linejoin: round; transform-origin: 425.985px 206.015px; transform: rotate(90deg);" class="animable"></rect></g><path d="M422.9,210.71s-3-.27-4.51-.34a8,8,0,0,0-3.37.54,17.24,17.24,0,0,1-2.16.68l-2.15.4s-8.42-.88-9.57-1.08a9.35,9.35,0,0,1-2.82-1c-.95-.47-1.75-.67-2.5-.13s-.6.67-1.28,1.14-3.5,1.21-2.89,1.35,1.35,0,2,.07a12,12,0,0,0,3.1.2c.81-.2-.34-.41,2.83-.2a48.68,48.68,0,0,1,8.28,1.41c.81.27-1.08.54-1.82,1a5.64,5.64,0,0,0-1.41,1.95,46.11,46.11,0,0,1-2.16,6.13c-.81,1.42-1.88,2.43-1.55,2.43a4.53,4.53,0,0,0,1.22-.47s-.14.8.26.87,1.15-.54,1.15-.54-.2.81.27.61a2.87,2.87,0,0,0,.81-.54s.2.94.74.4a7.92,7.92,0,0,0,.74-.8s-.54.4.74.06a3.26,3.26,0,0,0,1.82-.94l.2-.2s.61-.54.94-.88.88-.74.88-.74l1-.67a10.76,10.76,0,0,0,1.35-1.08c.8-.74-.27-.4,1.14-1.08s2.16-1.07,2.16-1.07l1.28-.48.94.07a12,12,0,0,0,7.41,2.63c4.71.13,6.6-.54,6.6-.54a54.74,54.74,0,0,0,4.44,4.38c.81.47,1.95.33,3,1s3.57,2.49,3.71,1.48a4.26,4.26,0,0,0-.14-1.68c0-.21,1.22.67.81-.68s-.81-1.95-.94-2.42.27-.41-.13-1.28a4.32,4.32,0,0,0-.88-1.42c-.27-.27-1.41-1.07-1.41-1.07s1.27-1.22,1.07-1.55-3.36-1.22-3.36-1.22l-2-.53S429.36,210.91,422.9,210.71Z" style="fill: rgb(255, 255, 255); stroke: rgb(38, 50, 56); stroke-linecap: round; stroke-linejoin: round; stroke-width: 0.75px; transform-origin: 418.019px 218.243px;" id="elwo6g2o7qknh" class="animable"></path><path d="M396.74,210.57a.33.33,0,0,0-.32-.32.32.32,0,0,0-.32.32.32.32,0,0,0,.32.32A.32.32,0,0,0,396.74,210.57Z" style="fill: rgb(38, 50, 56); stroke: rgb(38, 50, 56); stroke-linecap: round; stroke-linejoin: round; stroke-width: 0.75px; transform-origin: 396.42px 210.57px;" id="elk4ohe3kvry" class="animable"></path><path d="M395.15,210.78s.81-.88.74,0a8,8,0,0,1-.2,1.34l-.47.34c-.61.07-3.3.34-3.57-.2S394.41,210.78,395.15,210.78Z" style="fill: rgb(38, 50, 56); stroke: rgb(38, 50, 56); stroke-linecap: round; stroke-linejoin: round; stroke-width: 0.75px; transform-origin: 393.764px 211.489px;" id="elp3ws1ed0nt" class="animable"></path><path d="M410.44,195.35s-3.64-1.41-4.78-1.88-3.71-.81-5.05-.07a19.75,19.75,0,0,0-3.1,1.95c-.61.54-3.17,1.28-2.7,1.49s5.59.47,5.59.47,2.77.06,3.78-.07a35,35,0,0,1,4.37-.13c.34.06,12.87,3.56,13.27,3.63a30,30,0,0,1,4.45,1.69c.4.33,3.9,1.28,5.11,1.88a70,70,0,0,0,12.8,3.3c3.44.34,9.5-1.48,9.7-1.48s4.51.13,6.26.4,2.83.21,2.9-.06a1.12,1.12,0,0,0-.2-.68l-.95-.67s1.49.2,1.75-.13.15-.41.07-.68c-.13-.47.27-.81.14-1.28a3,3,0,0,0-.74-1s.47-.33.27-.6-.75-.81-.75-.81.41-.41-.06-.68a2.56,2.56,0,0,0-1.75-.53c-1.08,0-3.64.2-4.05.26a1.63,1.63,0,0,1-.8.07c-.34-.07-4.11-2-4.11-2s.34-.6.47-.81l.47-.74a7.36,7.36,0,0,0,.94-1c.41-.54-.06-.2.41-.54s1.21-.74,1.21-.74,3.5.2,4.51-.81,1.62-1.41,1.08-1.48a8,8,0,0,0-1.62-.33,19.05,19.05,0,0,1-3.16-.27,76.61,76.61,0,0,0-8.22-.81c-1.95,0-5.86-.68-7.54.27s-3.91,2.56-4.85,2.89-1.82,0-2.9.81a17.37,17.37,0,0,1-6.26,3C423.77,197.64,410.44,195.35,410.44,195.35Z" style="fill: rgb(255, 255, 255); stroke: rgb(38, 50, 56); stroke-linecap: round; stroke-linejoin: round; stroke-width: 0.75px; transform-origin: 429.315px 198.813px;" id="el5j8qgjqiuow" class="animable"></path><circle cx="401.91" cy="193.92" r="0.32" style="fill: rgb(38, 50, 56); stroke: rgb(38, 50, 56); stroke-linecap: round; stroke-linejoin: round; stroke-width: 0.75px; transform-origin: 401.91px 193.92px;" id="elm7xjw4si3gl" class="animable"></circle><path d="M434.75,194.88a18.15,18.15,0,0,0,4.18-2,7,7,0,0,1,6.06-.54c1.35.68,3.1,2,4.51,2.16s3.44-.34,4.31-1.62,1.42-2.42.34-1.82-1.08,2-3.1,2.36" style="fill: rgb(255, 255, 255); stroke: rgb(38, 50, 56); stroke-linecap: round; stroke-linejoin: round; stroke-width: 0.75px; transform-origin: 444.749px 192.888px;" id="elf2kf1t4tcj" class="animable"></path><path d="M434.55,196.36s11.31-.4,15.49,1" style="fill: rgb(255, 255, 255); stroke: rgb(38, 50, 56); stroke-linecap: round; stroke-linejoin: round; stroke-width: 0.75px; transform-origin: 442.295px 196.834px;" id="el8h6unuvccy" class="animable"></path><path d="M452.73,200.74s2.9,1.55,3.44,2.43a2.22,2.22,0,0,0,2.15,1.34,14,14,0,0,1,3.57.61" style="fill: rgb(255, 255, 255); stroke: rgb(38, 50, 56); stroke-linecap: round; stroke-linejoin: round; stroke-width: 0.75px; transform-origin: 457.31px 202.93px;" id="elgl7n6t9c5ds" class="animable"></path><path d="M428.76,203.44a53.57,53.57,0,0,1-5.39,6.93c-2.09,2-2.63,2.76-2.69,4a69.92,69.92,0,0,1-2.43,10.85c-.81,1.88-1.28,3.9-3.16,5.39s-2.29,2.08-.88,1.81a4.81,4.81,0,0,0,2.29-1.14s-3.1,3.7-1.75,3.37a10.57,10.57,0,0,0,3.3-2.23s-2.43,3.24-1.62,3a7.16,7.16,0,0,0,2.49-2.63c.41-.74-1.07,3.3-.2,2.49a10,10,0,0,0,1.69-2.62s0,1.34.4.87a28.68,28.68,0,0,0,1.55-2.63s.4.54.81-.13a16.87,16.87,0,0,0,.81-1.62,2.9,2.9,0,0,0,1.81-.87,7.37,7.37,0,0,0,.88-2,1.34,1.34,0,0,0,1.55-.6,14.39,14.39,0,0,0,1.21-2.16s.34-.13,1-1.34-.13-.21.67-1.22a18.69,18.69,0,0,1,2.5-2.08c.6-.61,1.07-2.16,1.41-2.36a21.23,21.23,0,0,0,1.75-1.68l1.82-2.63,5.59-4.65S432.6,205,428.76,203.44Z" style="fill: rgb(255, 255, 255); stroke: rgb(38, 50, 56); stroke-linecap: round; stroke-linejoin: round; stroke-width: 0.75px; transform-origin: 428.77px 219.436px;" id="elpufwuolczp" class="animable"></path><path d="M400.27,193.87s1.68-.47,1.21.54a12.59,12.59,0,0,0-.94,2.29l-.14.61s-5.38-.2-5.59-.47.21-.48.81-.74,1.21.33,1.89-.75S399.87,193.33,400.27,193.87Z" style="fill: rgb(38, 50, 56); stroke: rgb(38, 50, 56); stroke-linecap: round; stroke-linejoin: round; stroke-width: 0.75px; transform-origin: 398.159px 195.511px;" id="elowjie2hpmco" class="animable"></path><path d="M390.13,189.38l.34-.9c-.88,0-1.42-.3-1.64-.86a3.26,3.26,0,0,1,.13-2.17l1.43-.35a5.61,5.61,0,0,0-.24,1.07,1.41,1.41,0,0,0,.12.85.77.77,0,0,0,.74.33,1.6,1.6,0,0,0,1-.32,2,2,0,0,0,.64-.91,1.71,1.71,0,0,0,.12-1.14,3.43,3.43,0,0,0-.48-.87l-1.15-1.55a2,2,0,0,1-.31-.64,1.86,1.86,0,0,1-.05-.75,3.55,3.55,0,0,1,.25-.92,3.72,3.72,0,0,1,1.31-1.75,3.45,3.45,0,0,1,2-.66l.34-.87h.45l-.34.87a2,2,0,0,1,.86.22,1,1,0,0,1,.48.53,1.84,1.84,0,0,1,.13.82,5.07,5.07,0,0,1-.23,1.12l-1.37.34a5.45,5.45,0,0,0,.22-1,1,1,0,0,0-.13-.72c-.12-.18-.37-.26-.74-.23a2.06,2.06,0,0,0-1,.31,2.08,2.08,0,0,0-.77,1.62,1.48,1.48,0,0,0,.28.64l1.17,1.55a3.23,3.23,0,0,1,.42.78,2.69,2.69,0,0,1,.19,1A3.34,3.34,0,0,1,394,186a3.91,3.91,0,0,1-.76,1.24,3.66,3.66,0,0,1-1.08.85,3.57,3.57,0,0,1-1.27.37l-.35.91Z" style="fill: rgb(38, 50, 56); transform-origin: 392.484px 183.175px;" id="elhlkalf1r5db" class="animable"></path><path d="M394.19,188.38l.38-1,4.27-4.14.88-.87a7.29,7.29,0,0,0,.74-.84,4.4,4.4,0,0,0,.56-1,2.21,2.21,0,0,0,.21-1.13c-.05-.28-.27-.42-.65-.42a1.45,1.45,0,0,0-.87.27,2.48,2.48,0,0,0-.65.71,6,6,0,0,0-.47,1l-.13.34h-1.38l.14-.36a6.9,6.9,0,0,1,.87-1.62,3.8,3.8,0,0,1,1.22-1,3.48,3.48,0,0,1,1.64-.37c.84,0,1.38.24,1.61.71a2.52,2.52,0,0,1-.15,2,5.25,5.25,0,0,1-.62,1.18,8.84,8.84,0,0,1-.78.94l-.92.91-3.82,3.66h3.3l-.45,1.16Z" style="fill: rgb(38, 50, 56); transform-origin: 398.445px 183.23px;" id="elflv3mayz5j" class="animable"></path><path d="M402.93,188.48a2.07,2.07,0,0,1-1.36-.36,1.25,1.25,0,0,1-.39-1,5.35,5.35,0,0,1,.39-1.63H403a5.88,5.88,0,0,0-.28.91,1.2,1.2,0,0,0,0,.74c.1.19.31.29.66.29a1.37,1.37,0,0,0,.94-.33,3,3,0,0,0,.66-.89c.18-.38.37-.8.55-1.27a7.82,7.82,0,0,0,.39-1.21,1.05,1.05,0,0,0,0-.76c-.09-.18-.31-.27-.67-.27a1.43,1.43,0,0,0-.82.27,3,3,0,0,0-.67.6h-1.18l2.17-5.6h4.51l-.54,1.38h-3.25l-1.21,2.89a3.24,3.24,0,0,1,.8-.43,2.92,2.92,0,0,1,.93-.15,1.22,1.22,0,0,1,1.44,1.5,5.85,5.85,0,0,1-.42,1.6,12,12,0,0,1-.69,1.49,6.17,6.17,0,0,1-.87,1.2,3.79,3.79,0,0,1-1.1.79A3.29,3.29,0,0,1,402.93,188.48Z" style="fill: rgb(38, 50, 56); transform-origin: 405.218px 183.229px;" id="el3qs0teep8o9" class="animable"></path></g><g id="freepik--stamp-3--inject-114" class="animable" style="transform-origin: 325.282px 107.494px;"><path d="M361,153c-1.53,2-3.28-1.62-5.77-1.62s-2.49,2-5,2-2.48-2-5-2-2.49,2-5,2-2.49-2-5-2-2.49,2-5,2-2.5-2-5-2-2.49,2-5,2-2.49-2-5-2-2.49,2-5,2-2.49-2-5-2-2.5,2-5,2-2.49-2-5-2-4.25,3.59-5.78,1.62c-2-2.54,1.79-3.83,1.79-7s-2-3.2-2-6.41,2-3.21,2-6.42-2-3.21-2-6.42,2-3.2,2-6.41-2-3.21-2-6.41,2-3.21,2-6.42-2-3.21-2-6.42,2-3.21,2-6.42-2-3.21-2-6.42,2-3.21,2-6.42-2-3.21-2-6.42,2-3.21,2-6.42-3.76-4.5-1.79-7c1.53-2,3.28,1.61,5.77,1.61s2.49-2,5-2,2.48,2,5,2,2.49-2,5-2,2.49,2,5,2,2.49-2,5-2,2.49,2,5,2,2.49-2,5-2,2.49,2,5,2,2.49-2,5-2,2.49,2,5,2,2.5-2,5-2,2.49,2,5,2,4.25-3.58,5.78-1.61c2,2.53-1.79,3.82-1.79,7s2,3.21,2,6.41-2,3.21-2,6.42,2,3.21,2,6.42-2,3.21-2,6.41,2,3.21,2,6.42-2,3.21-2,6.42,2,3.2,2,6.41-2,3.21-2,6.42,2,3.21,2,6.42-2,3.21-2,6.42,2,3.21,2,6.42-2.76,3.56-2,6.67C360.15,149.79,363,150.42,361,153Z" style="fill: rgb(255, 255, 255); transform-origin: 325.282px 107.494px;" id="el4qxuxoh4ve7" class="animable"></path><path d="M361,153c-1.53,2-3.28-1.62-5.77-1.62s-2.49,2-5,2-2.48-2-5-2-2.49,2-5,2-2.49-2-5-2-2.49,2-5,2-2.5-2-5-2-2.49,2-5,2-2.49-2-5-2-2.49,2-5,2-2.49-2-5-2-2.5,2-5,2-2.49-2-5-2-4.25,3.59-5.78,1.62c-2-2.54,1.79-3.83,1.79-7s-2-3.2-2-6.41,2-3.21,2-6.42-2-3.21-2-6.42,2-3.2,2-6.41-2-3.21-2-6.41,2-3.21,2-6.42-2-3.21-2-6.42,2-3.21,2-6.42-2-3.21-2-6.42,2-3.21,2-6.42-2-3.21-2-6.42,2-3.21,2-6.42-3.76-4.5-1.79-7c1.53-2,3.28,1.61,5.77,1.61s2.49-2,5-2,2.48,2,5,2,2.49-2,5-2,2.49,2,5,2,2.49-2,5-2,2.49,2,5,2,2.49-2,5-2,2.49,2,5,2,2.49-2,5-2,2.49,2,5,2,2.5-2,5-2,2.49,2,5,2,4.25-3.58,5.78-1.61c2,2.53-1.79,3.82-1.79,7s2,3.21,2,6.41-2,3.21-2,6.42,2,3.21,2,6.42-2,3.21-2,6.41,2,3.21,2,6.42-2,3.21-2,6.42,2,3.2,2,6.41-2,3.21-2,6.42,2,3.21,2,6.42-2,3.21-2,6.42,2,3.21,2,6.42-2.76,3.56-2,6.67C360.15,149.79,363,150.42,361,153Z" style="fill: none; stroke: rgb(38, 50, 56); stroke-linecap: round; stroke-linejoin: round; transform-origin: 325.282px 107.494px;" id="elbdcw1ye5fjv" class="animable"></path><path d="M351,139c3.55-4.14.19-7.5-3.95-4-4.14-3.55-7.5-.19-3.95,4-3.55,4.14-.19,7.5,3.95,3.95C351.22,146.46,354.58,143.1,351,139Z" style="fill: none; stroke: rgb(207, 207, 207); stroke-linecap: round; stroke-linejoin: round; transform-origin: 347.059px 138.976px;" id="elio08olert3" class="animable"></path><path d="M349.27,139a2.2,2.2,0,1,0-2.19,2.2A2.2,2.2,0,0,0,349.27,139Z" style="fill: none; stroke: rgb(207, 207, 207); stroke-linecap: round; stroke-linejoin: round; transform-origin: 347.07px 139px;" id="elx9frkn8xpc" class="animable"></path><path d="M351,75.23c3.55-4.14.19-7.5-3.95-4-4.14-3.55-7.5-.19-3.95,4-3.55,4.14-.19,7.5,3.95,4C351.22,82.73,354.58,79.37,351,75.23Z" style="fill: none; stroke: rgb(207, 207, 207); stroke-linecap: round; stroke-linejoin: round; transform-origin: 347.059px 75.2144px;" id="elt3n53l1l27" class="animable"></path><circle cx="347.08" cy="75.23" r="2.2" style="fill: none; stroke: rgb(207, 207, 207); stroke-linecap: round; stroke-linejoin: round; transform-origin: 347.08px 75.23px;" id="elwqrwensbsxq" class="animable"></circle><circle cx="347.08" cy="108.31" r="3.95" style="fill: none; stroke: rgb(207, 207, 207); stroke-linecap: round; stroke-linejoin: round; transform-origin: 347.08px 108.31px;" id="elds2ms39q3k9" class="animable"></circle><circle cx="347.08" cy="108.31" r="2.2" style="fill: none; stroke: rgb(207, 207, 207); stroke-linecap: round; stroke-linejoin: round; transform-origin: 347.08px 108.31px;" id="elwgqr5nbji3d" class="animable"></circle><path d="M304.19,108.31c3.55-4.14.19-7.5-3.95-4-4.14-3.55-7.5-.19-3.95,4-3.55,4.14-.19,7.5,3.95,4C304.38,115.81,307.74,112.45,304.19,108.31Z" style="fill: none; stroke: rgb(207, 207, 207); stroke-linecap: round; stroke-linejoin: round; transform-origin: 300.24px 108.294px;" id="elq4irp8ap5at" class="animable"></path><path d="M302.44,108.31a2.2,2.2,0,1,0-2.2,2.2A2.19,2.19,0,0,0,302.44,108.31Z" style="fill: none; stroke: rgb(207, 207, 207); stroke-linecap: round; stroke-linejoin: round; transform-origin: 300.24px 108.31px;" id="elrf5svutlp4n" class="animable"></path><path d="M304.19,75.23c3.55-4.14.19-7.5-3.95-4-4.14-3.55-7.5-.19-3.95,4-3.55,4.14-.19,7.5,3.95,4C304.38,82.73,307.74,79.37,304.19,75.23Z" style="fill: none; stroke: rgb(207, 207, 207); stroke-linecap: round; stroke-linejoin: round; transform-origin: 300.24px 75.2144px;" id="el5i4nvt13me2" class="animable"></path><path d="M302.44,75.23a2.2,2.2,0,1,0-2.2,2.2A2.2,2.2,0,0,0,302.44,75.23Z" style="fill: none; stroke: rgb(207, 207, 207); stroke-linecap: round; stroke-linejoin: round; transform-origin: 300.24px 75.23px;" id="elpyycx7gkc5" class="animable"></path><path d="M304.19,139c3.55-4.14.19-7.5-3.95-4-4.14-3.55-7.5-.19-3.95,4-3.55,4.14-.19,7.5,3.95,3.95C304.38,146.46,307.74,143.1,304.19,139Z" style="fill: none; stroke: rgb(207, 207, 207); stroke-linecap: round; stroke-linejoin: round; transform-origin: 300.24px 138.976px;" id="elpqcghyd9jgf" class="animable"></path><path d="M302.44,139a2.2,2.2,0,1,0-2.2,2.2A2.2,2.2,0,0,0,302.44,139Z" style="fill: none; stroke: rgb(207, 207, 207); stroke-linecap: round; stroke-linejoin: round; transform-origin: 300.24px 139px;" id="el5a0w75vkxrh" class="animable"></path><path d="M297.79,78.4V71.5h.65l2,4.58V71.5h.8v6.9h-.61l-2-4.71V78.4Z" style="fill: rgb(38, 50, 56); transform-origin: 299.515px 74.95px;" id="eley8equs8wm" class="animable"></path><path d="M303.85,79.06v-.59a1.57,1.57,0,0,1-1.3-.57,2.54,2.54,0,0,1-.47-1.43l.85-.23a3.94,3.94,0,0,0,.12.7,1.3,1.3,0,0,0,.29.56.86.86,0,0,0,1.14,0,.85.85,0,0,0,.19-.6,1.27,1.27,0,0,0-.21-.76,3.54,3.54,0,0,0-.54-.57l-1.16-1a2.92,2.92,0,0,1-.37-.43,1.67,1.67,0,0,1-.22-.49,2.27,2.27,0,0,1-.07-.61,1.53,1.53,0,0,1,.42-1.15,1.55,1.55,0,0,1,1.13-.44v-.58h.3v.58a1.54,1.54,0,0,1,.63.15,1.34,1.34,0,0,1,.45.34,1.74,1.74,0,0,1,.29.54,3.72,3.72,0,0,1,.14.75l-.82.22a4.08,4.08,0,0,0-.1-.64,1,1,0,0,0-.27-.47.69.69,0,0,0-.55-.15.86.86,0,0,0-.56.2.73.73,0,0,0-.2.56,1.07,1.07,0,0,0,.11.51,1.4,1.4,0,0,0,.34.42l1.17,1a3.9,3.9,0,0,1,.48.51,2.68,2.68,0,0,1,.37.64,2.13,2.13,0,0,1,.14.78,1.77,1.77,0,0,1-.18.82,1.36,1.36,0,0,1-.5.56,1.63,1.63,0,0,1-.75.25v.6Z" style="fill: rgb(38, 50, 56); transform-origin: 303.825px 74.965px;" id="elk13glj076b" class="animable"></path><path d="M308.13,78.48a1.48,1.48,0,0,1-1-.31,1.75,1.75,0,0,1-.55-.81,3.8,3.8,0,0,1-.17-1.15V73.88a4.58,4.58,0,0,1,.15-1.22,1.78,1.78,0,0,1,.53-.89,1.46,1.46,0,0,1,1-.33,1.9,1.9,0,0,1,.9.19,1.31,1.31,0,0,1,.57.57,1.87,1.87,0,0,1,.21.92.08.08,0,0,0,0,0v.06h-.92a1.47,1.47,0,0,0-.16-.77.78.78,0,0,0-1-.11,1,1,0,0,0-.27.49,3.13,3.13,0,0,0-.09.83v1a1,1,0,0,1,.39-.35,1.42,1.42,0,0,1,.62-.13,1.39,1.39,0,0,1,.89.25,1.3,1.3,0,0,1,.46.69,4,4,0,0,1,0,2.19,1.75,1.75,0,0,1-.55.81A1.49,1.49,0,0,1,308.13,78.48Zm0-.76a.61.61,0,0,0,.47-.18.93.93,0,0,0,.25-.46,3,3,0,0,0,.07-.63,6,6,0,0,0,0-.76,1.13,1.13,0,0,0-.2-.56.65.65,0,0,0-.55-.21,1,1,0,0,0-.35.07.81.81,0,0,0-.26.18,1.24,1.24,0,0,0-.18.22v1a3.24,3.24,0,0,0,.07.65.92.92,0,0,0,.25.47A.61.61,0,0,0,308.13,77.72Z" style="fill: rgb(38, 50, 56); transform-origin: 308.126px 74.9605px;" id="elbcgweujmxa" class="animable"></path><path d="M310.64,78.4v-1h.91v1Z" style="fill: rgb(38, 50, 56); transform-origin: 311.095px 77.9px;" id="el9qbel8g4bjo" class="animable"></path><path d="M313.91,78.48a2,2,0,0,1-.91-.2,1.32,1.32,0,0,1-.58-.59,2,2,0,0,1-.2-.93v-.07h.91a1.46,1.46,0,0,0,.16.76.68.68,0,0,0,.63.27.6.6,0,0,0,.43-.16.94.94,0,0,0,.25-.49,3.13,3.13,0,0,0,.09-.83v-1a1,1,0,0,1-.38.34,1.34,1.34,0,0,1-.63.13,1.39,1.39,0,0,1-.89-.25,1.33,1.33,0,0,1-.46-.7,3.61,3.61,0,0,1-.13-1,3.69,3.69,0,0,1,.17-1.14,1.68,1.68,0,0,1,.55-.81,1.6,1.6,0,0,1,1-.29,1.5,1.5,0,0,1,1,.3,1.68,1.68,0,0,1,.55.81,3.43,3.43,0,0,1,.18,1.15V76a4.71,4.71,0,0,1-.15,1.23,1.9,1.9,0,0,1-.52.9A1.5,1.5,0,0,1,313.91,78.48Zm0-3.5a.77.77,0,0,0,.49-.15,1.28,1.28,0,0,0,.29-.33v-1a2.64,2.64,0,0,0-.07-.65,1,1,0,0,0-.24-.47.61.61,0,0,0-.47-.17.63.63,0,0,0-.47.18.93.93,0,0,0-.25.46,2.48,2.48,0,0,0-.07.63,6.12,6.12,0,0,0,0,.76,1,1,0,0,0,.2.55A.67.67,0,0,0,313.91,75Z" style="fill: rgb(38, 50, 56); transform-origin: 313.925px 75.0002px;" id="el5ze6waneyli" class="animable"></path><path d="M318.31,78.48a1.66,1.66,0,0,1-1-.27,1.51,1.51,0,0,1-.56-.72,2.89,2.89,0,0,1-.18-1v-3a2.91,2.91,0,0,1,.18-1.06,1.47,1.47,0,0,1,.56-.71,2,2,0,0,1,1.94,0,1.53,1.53,0,0,1,.56.71,2.91,2.91,0,0,1,.18,1.06v3a2.9,2.9,0,0,1-.19,1.06,1.61,1.61,0,0,1-.56.72A1.67,1.67,0,0,1,318.31,78.48Zm0-.75a.63.63,0,0,0,.49-.19,1.08,1.08,0,0,0,.23-.48,3.08,3.08,0,0,0,.07-.61v-3a3.13,3.13,0,0,0-.06-.63,1,1,0,0,0-.23-.47.78.78,0,0,0-1,0,.87.87,0,0,0-.23.47,3.13,3.13,0,0,0-.06.63v3a3.08,3.08,0,0,0,.06.61,1,1,0,0,0,.24.48A.66.66,0,0,0,318.31,77.73Z" style="fill: rgb(38, 50, 56); transform-origin: 318.28px 74.9764px;" id="el23x5uocz80mj" class="animable"></path><path d="M328,87.91s-4.29-.21-5.15-.64-3,2.57-2.79,3.43l.21.86s1.5,1.5-.21,3.65a5.66,5.66,0,0,1-4.51,1.94s-6,7.3-6.66,15.46,5.58,17.18,11.17,19.54,9.88,1.29,10.73.86,6-2.15,9.24-9.45a27.73,27.73,0,0,0,.21-20.4,12,12,0,0,0-5.58-6.23,7.75,7.75,0,0,1-3.22-3L330.32,92s2.43-1.32.22-3.65C329.88,87.64,328,87.91,328,87.91Z" style="fill: rgb(181, 31, 50); stroke: rgb(38, 50, 56); stroke-linecap: round; stroke-linejoin: round; transform-origin: 325.461px 110.428px;" id="el642xwt8ouem" class="animable"></path><path d="M335.2,97.27l-.58-.34a7.75,7.75,0,0,1-3.22-3c-1.08-1.93-1.14-1.27-1.14-1.27s2.56-2.05.28-4.31c-.68-.68-2.58-.43-2.58-.43a49.16,49.16,0,0,1-5.46-.09c-1-.09-2.7,2-2.48,2.88l.21.86s1.5,1.5-.21,3.65a5.66,5.66,0,0,1-4.51,1.94S327.76,100.29,335.2,97.27Z" style="fill: rgb(38, 50, 56); stroke: rgb(38, 50, 56); stroke-linecap: round; stroke-linejoin: round; transform-origin: 325.355px 93.2057px;" id="elrv5ewszcn4i" class="animable"></path><path d="M322.59,115.33c-.87,1-2.87.83-4.47-.5s-2.19-3.25-1.32-4.3,2.87-.83,4.47.5S323.46,114.28,322.59,115.33Z" style="fill: rgb(38, 50, 56); transform-origin: 319.695px 112.919px;" id="elabvz4lnqlp7" class="animable"></path><path d="M319.58,127.78c-.87,1.06-2.87.83-4.47-.49s-2.19-3.25-1.32-4.3,2.87-.83,4.47.49S320.45,126.73,319.58,127.78Z" style="fill: rgb(38, 50, 56); transform-origin: 316.685px 125.387px;" id="els7l8z1ad8zq" class="animable"></path><path d="M310.24,112.65c-.82-.29-.93-2.11-.23-4.07s1.92-3.3,2.74-3,.93,2.11.23,4.07S311.06,112.94,310.24,112.65Z" style="fill: rgb(38, 50, 56); transform-origin: 311.495px 109.114px;" id="elpufval3dnge" class="animable"></path><path d="M340.46,112.65c.82-.29.93-2.11.23-4.07s-1.92-3.3-2.74-3-.93,2.11-.23,4.07S339.64,112.94,340.46,112.65Z" style="fill: rgb(38, 50, 56); transform-origin: 339.205px 109.114px;" id="el0thwm2avrzz" class="animable"></path><path d="M328.07,115.33c.87,1,2.88.83,4.47-.5s2.19-3.25,1.32-4.3-2.87-.83-4.47.5S327.2,114.28,328.07,115.33Z" style="fill: rgb(38, 50, 56); transform-origin: 330.964px 112.919px;" id="elgkseas0a9dp" class="animable"></path><path d="M322,102.67c0,1.36,1.72,2.45,3.79,2.42s3.75-1.15,3.73-2.52-1.71-2.44-3.79-2.42S322,101.31,322,102.67Z" style="fill: rgb(38, 50, 56); transform-origin: 325.76px 102.62px;" id="eld6bu6bf78e" class="animable"></path><path d="M331.08,127.78c.87,1.06,2.87.83,4.47-.49s2.19-3.25,1.32-4.3-2.87-.83-4.47.49S330.21,126.73,331.08,127.78Z" style="fill: rgb(38, 50, 56); transform-origin: 333.975px 125.387px;" id="el1yuil7zi4sf" class="animable"></path><line x1="325.81" y1="105.09" x2="325.81" y2="131.08" style="fill: none; stroke: rgb(38, 50, 56); stroke-linecap: round; stroke-linejoin: round; transform-origin: 325.81px 118.085px;" id="elhu4snscyoz7" class="animable"></line><path d="M309.92,86.62s4.51,1.72,4.94,2.58-.64,3.22-.86,4.72,1.51,3.23,1.51,3.23,6.51,5.52,10.27,5.47,9.42-5.35,9.42-5.35,2.86-2.7,2.64-3.35-1.5-5.8-1.5-5.8l4.94-1.28" style="fill: none; stroke: rgb(38, 50, 56); stroke-linecap: round; stroke-linejoin: round; transform-origin: 325.6px 94.6202px;" id="elq0abk0pzby" class="animable"></path><path d="M328,87.91a5.16,5.16,0,0,0,3.87-5.15" style="fill: none; stroke: rgb(38, 50, 56); stroke-linecap: round; stroke-linejoin: round; transform-origin: 329.936px 85.335px;" id="elkelbn4tpp8n" class="animable"></path><path d="M322.81,87.27s-2.36.43-2.79-4.08" style="fill: none; stroke: rgb(38, 50, 56); stroke-linecap: round; stroke-linejoin: round; transform-origin: 321.415px 85.2355px;" id="elduf2t8e7x77" class="animable"></path><path d="M313.57,100.37s-2.57,0-3,.64-1.29,4.51-2.15,5.16a38.58,38.58,0,0,1-4.94,2.14" style="fill: none; stroke: rgb(38, 50, 56); stroke-linecap: round; stroke-linejoin: round; transform-origin: 308.525px 104.34px;" id="elxes8ro0txy" class="animable"></path><path d="M308.85,118a11.71,11.71,0,0,0,0,4.08c.43,1.72,1.72,5.37,1.72,5.37l-3.23,4.51" style="fill: none; stroke: rgb(38, 50, 56); stroke-linecap: round; stroke-linejoin: round; transform-origin: 308.955px 124.98px;" id="ellypjtgltz7" class="animable"></path><path d="M341.92,117.76s1.51-.21,1.29,1.51-2.36,8.16-2.36,8.16l2.58,3.22" style="fill: none; stroke: rgb(38, 50, 56); stroke-linecap: round; stroke-linejoin: round; transform-origin: 342.14px 124.201px;" id="el7moys7d8ssd" class="animable"></path><path d="M338.27,99.72a2.1,2.1,0,0,1,2.36,1.08c.86,1.5,2.8,5.37,2.8,5.37l5.79,2.14" style="fill: none; stroke: rgb(38, 50, 56); stroke-linecap: round; stroke-linejoin: round; transform-origin: 343.745px 103.986px;" id="elni6r3ugqxo" class="animable"></path></g><g id="freepik--stamp-2--inject-114" class="animable" style="transform-origin: 203.506px 102.235px;"><path d="M158,137.81c-2-1.53,1.62-3.29,1.62-5.78s-2-2.49-2-5,2-2.49,2-5-2-2.49-2-5,2-2.49,2-5-2-2.49-2-5,2-2.49,2-5-2-2.49-2-5,2-2.49,2-5-2-2.49-2-5,2-2.5,2-5-2-2.49-2-5,2-2.5,2-5S156,68,158,66.46c2.54-2,3.83,1.79,7,1.79s3.2-2,6.41-2,3.21,2,6.42,2,3.21-2,6.42-2,3.2,2,6.41,2,3.21-2,6.41-2,3.21,2,6.42,2,3.21-2,6.42-2,3.21,2,6.42,2,3.21-2,6.42-2,3.21,2,6.41,2,3.22-2,6.43-2,3.21,2,6.42,2,4.5-3.76,7-1.79c2,1.52-1.61,3.28-1.61,5.77s2,2.49,2,5-2,2.49-2,5,2,2.49,2,5-2,2.49-2,5,2,2.49,2,5-2,2.49-2,5,2,2.5,2,5-2,2.49-2,5,2,2.49,2,5-2,2.49-2,5,2,2.49,2,5-2,2.49-2,5,3.58,4.24,1.61,5.78c-2.53,2-3.82-1.79-7-1.79s-3.21,2-6.42,2-3.2-2-6.41-2-3.21,2-6.42,2-3.21-2-6.41-2-3.21,2-6.42,2-3.21-2-6.42-2-3.2,2-6.41,2-3.21-2-6.42-2-3.21,2-6.42,2-3.21-2-6.42-2-3.21,2-6.42,2-3.56-2.76-6.67-2C161.16,137,160.53,139.77,158,137.81Z" style="fill: rgb(255, 255, 255); transform-origin: 203.506px 102.235px;" id="eldrj4x4y56np" class="animable"></path><path d="M158,137.81c-2-1.53,1.62-3.29,1.62-5.78s-2-2.49-2-5,2-2.49,2-5-2-2.49-2-5,2-2.49,2-5-2-2.49-2-5,2-2.49,2-5-2-2.49-2-5,2-2.49,2-5-2-2.49-2-5,2-2.5,2-5-2-2.49-2-5,2-2.5,2-5S156,68,158,66.46c2.54-2,3.83,1.79,7,1.79s3.2-2,6.41-2,3.21,2,6.42,2,3.21-2,6.42-2,3.2,2,6.41,2,3.21-2,6.41-2,3.21,2,6.42,2,3.21-2,6.42-2,3.21,2,6.42,2,3.21-2,6.42-2,3.21,2,6.41,2,3.22-2,6.43-2,3.21,2,6.42,2,4.5-3.76,7-1.79c2,1.52-1.61,3.28-1.61,5.77s2,2.49,2,5-2,2.49-2,5,2,2.49,2,5-2,2.49-2,5,2,2.49,2,5-2,2.49-2,5,2,2.5,2,5-2,2.49-2,5,2,2.49,2,5-2,2.49-2,5,2,2.49,2,5-2,2.49-2,5,3.58,4.24,1.61,5.78c-2.53,2-3.82-1.79-7-1.79s-3.21,2-6.42,2-3.2-2-6.41-2-3.21,2-6.42,2-3.21-2-6.41-2-3.21,2-6.42,2-3.21-2-6.42-2-3.2,2-6.41,2-3.21-2-6.42-2-3.21,2-6.42,2-3.21-2-6.42-2-3.21,2-6.42,2-3.56-2.76-6.67-2C161.16,137,160.53,139.77,158,137.81Z" style="fill: none; stroke: rgb(38, 50, 56); stroke-linecap: round; stroke-linejoin: round; transform-origin: 203.506px 102.235px;" id="elbarqi78rw7j" class="animable"></path><g id="elvt32ywdwn1"><rect x="172.49" y="62.13" width="62.11" height="79.99" style="fill: rgb(38, 50, 56); stroke: rgb(38, 50, 56); stroke-linecap: round; stroke-linejoin: round; transform-origin: 203.545px 102.125px; transform: rotate(90deg);" class="animable"></rect></g><path d="M204.36,98.75l-4.63-2s2.61-1.45,2.32-3.77-3.19-3.47-7.82,0L167.87,82s-4.64-.57-1.16,3.48S193.65,104,193.65,104l-9.56,2.89-.87-2.31L180.9,99l-3.18.87.29,10.14-10.72-.29s-.29,1.45,3.18,2.61l3.48,1.16s.58,2.31,2.32,2.31a37.45,37.45,0,0,0,4.92-.58s8.4,3.77,9,2-1.74-3.18-1.74-3.18l19.7-4.06s35,5.43,34.76,3.77-6.67-4.06-6.67-4.06,2-3.76.58-3.76a34.5,34.5,0,0,0-5.5,1.15s1.74-2.89-.29-2.89H222.9s12.75-5.22,14.48-7,1.74-4.06-.87-4.35l-2.6-.29s-3.48-2-6.66-.58-15.07,4.64-15.07,4.64S209.58,93.25,204.36,98.75Z" style="fill: rgb(181, 31, 50); stroke: rgb(38, 50, 56); stroke-linecap: round; stroke-linejoin: round; transform-origin: 204.163px 99.8326px;" id="eljtde068tr5" class="animable"></path><path d="M185.37,86l2-9.36h1.26l2,9.36h-1.24L189,83.61h-1.9L186.59,86Zm1.85-3.29h1.56L188,78.46Z" style="fill: rgb(255, 255, 255); transform-origin: 188px 81.32px;" id="el8cjvlbss7ys" class="animable"></path><path d="M191.64,86V76.61h1.28V86Z" style="fill: rgb(255, 255, 255); transform-origin: 192.28px 81.305px;" id="el4hbsy62t99f" class="animable"></path><path d="M194.43,86V76.61h1.89a4.31,4.31,0,0,1,1.55.24,1.79,1.79,0,0,1,.91.8,3.15,3.15,0,0,1,.29,1.44,4.35,4.35,0,0,1-.11,1,2,2,0,0,1-.37.75,1.48,1.48,0,0,1-.68.45L199.24,86H198l-1.22-4.39h-1V86Zm1.31-5.33h.5a2.5,2.5,0,0,0,.9-.14.94.94,0,0,0,.51-.47,2.21,2.21,0,0,0,.16-.94,1.84,1.84,0,0,0-.3-1.18,1.48,1.48,0,0,0-1.19-.37h-.58Z" style="fill: rgb(255, 255, 255); transform-origin: 196.835px 81.3041px;" id="elh4dbfs0zkrb" class="animable"></path><path d="M203.06,86l.17-9.36h1.29l1.65,7.59,1.67-7.59h1.27l.17,9.36h-1.05l-.11-6.8L206.54,86h-.74l-1.57-6.8-.11,6.8Z" style="fill: rgb(255, 255, 255); transform-origin: 206.17px 81.32px;" id="elc0jnayreeir" class="animable"></path><path d="M210.21,86l2-9.36h1.27l2,9.36h-1.24l-.43-2.36h-1.91L211.43,86Zm1.85-3.29h1.56l-.79-4.22Z" style="fill: rgb(255, 255, 255); transform-origin: 212.845px 81.32px;" id="elerhfqlxpvy" class="animable"></path><path d="M216.47,86V76.61h1.29V86Z" style="fill: rgb(255, 255, 255); transform-origin: 217.115px 81.305px;" id="elxkcp1qnnky9" class="animable"></path><path d="M219.27,86V76.61h1.31V85H223V86Z" style="fill: rgb(255, 255, 255); transform-origin: 221.135px 81.305px;" id="elg8glwy6n2hc" class="animable"></path><path d="M218.11,127.79l2.34-11.65H217v-1.35h5.2v.83l-2.41,12.17Z" style="fill: rgb(255, 255, 255); transform-origin: 219.6px 121.29px;" id="elke1yec7cekk" class="animable"></path></g><g id="freepik--stamp-1--inject-114" class="animable" style="transform-origin: 107.107px 200.901px;"><path d="M142.83,246.41c-1.53,2-3.28-1.61-5.77-1.61s-2.49,2-5,2-2.49-2-5-2-2.49,2-5,2-2.49-2-5-2-2.49,2-5,2-2.5-2-5-2-2.49,2-5,2-2.49-2-5-2-2.5,2-5,2-2.49-2-5-2-2.5,2-5,2-2.49-2-5-2-4.25,3.58-5.78,1.61c-2-2.53,1.79-3.82,1.79-7s-2-3.21-2-6.42,2-3.21,2-6.41-2-3.21-2-6.42,2-3.21,2-6.41-2-3.21-2-6.42,2-3.21,2-6.42-2-3.21-2-6.42,2-3.2,2-6.41-2-3.21-2-6.42,2-3.21,2-6.42-2-3.21-2-6.42,2-3.22,2-6.43-3.76-4.5-1.79-7c1.53-2,3.28,1.62,5.77,1.62s2.5-2,5-2,2.49,2,5,2,2.49-2,5-2,2.49,2,5,2,2.5-2,5-2,2.49,2,5,2,2.49-2,5-2,2.5,2,5,2,2.49-2,5-2,2.49,2,5,2,2.5-2,5-2,2.5,2,5,2,4.25-3.59,5.78-1.62c2,2.53-1.79,3.82-1.79,7s2,3.21,2,6.42-2,3.21-2,6.42,2,3.21,2,6.42-2,3.2-2,6.41,2,3.2,2,6.41-2,3.21-2,6.42,2,3.21,2,6.42-2,3.21-2,6.42,2,3.21,2,6.42-2,3.2-2,6.41,2,3.21,2,6.42-2.76,3.56-2,6.68C142,243.24,144.8,243.87,142.83,246.41Z" style="fill: rgb(255, 255, 255); transform-origin: 107.107px 200.901px;" id="ele633poaairo" class="animable"></path><path d="M142.83,246.41c-1.53,2-3.28-1.61-5.77-1.61s-2.49,2-5,2-2.49-2-5-2-2.49,2-5,2-2.49-2-5-2-2.49,2-5,2-2.5-2-5-2-2.49,2-5,2-2.49-2-5-2-2.5,2-5,2-2.49-2-5-2-2.5,2-5,2-2.49-2-5-2-4.25,3.58-5.78,1.61c-2-2.53,1.79-3.82,1.79-7s-2-3.21-2-6.42,2-3.21,2-6.41-2-3.21-2-6.42,2-3.21,2-6.41-2-3.21-2-6.42,2-3.21,2-6.42-2-3.21-2-6.42,2-3.2,2-6.41-2-3.21-2-6.42,2-3.21,2-6.42-2-3.21-2-6.42,2-3.22,2-6.43-3.76-4.5-1.79-7c1.53-2,3.28,1.62,5.77,1.62s2.5-2,5-2,2.49,2,5,2,2.49-2,5-2,2.49,2,5,2,2.5-2,5-2,2.49,2,5,2,2.49-2,5-2,2.5,2,5,2,2.49-2,5-2,2.49,2,5,2,2.5-2,5-2,2.5,2,5,2,4.25-3.59,5.78-1.62c2,2.53-1.79,3.82-1.79,7s2,3.21,2,6.42-2,3.21-2,6.42,2,3.21,2,6.42-2,3.2-2,6.41,2,3.2,2,6.41-2,3.21-2,6.42,2,3.21,2,6.42-2,3.21-2,6.42,2,3.21,2,6.42-2,3.2-2,6.41,2,3.21,2,6.42-2.76,3.56-2,6.68C142,243.24,144.8,243.87,142.83,246.41Z" style="fill: none; stroke: rgb(38, 50, 56); stroke-linecap: round; stroke-linejoin: round; transform-origin: 107.107px 200.901px;" id="el6d2llzr3ic5" class="animable"></path><rect x="76.1" y="160.87" width="62.11" height="79.99" style="fill: rgb(181, 31, 50); stroke: rgb(38, 50, 56); stroke-linecap: round; stroke-linejoin: round; transform-origin: 107.155px 200.865px;" id="elkx4e8dp6u6k" class="animable"></rect><path d="M94.84,189.88s-1.39,6.1-1.39,6.62v2.09s-5.2,3.8-4.52,5.21a8.28,8.28,0,0,0,2.6,2.63l-.19,1.32.54,1.65s-.22.29.06,1.37a6,6,0,0,0,1,1.94s-.88,1.92.17,2.61,6.62,1.57,6.62,1.57l3.14,8.54s-6.1,8.37-5.4,8.54,5.75-.17,7.49-1a64.82,64.82,0,0,1,9.41-3.49c2.27-.52,5.93-1.39,5.93-1.39a23.6,23.6,0,0,0-1.74-7.5c-1.57-3.48-2.79-5.75-2.62-7.14s2.44-5.23,2.79-5.76,1.74-.87,1.74-.87,3,2.79,4.53,1.75,2.45-2.27,1.92-2.62-1-.35-.69-1.22,2.09-1,2.26-1.74-.87-2.62-.87-2.62a4.34,4.34,0,0,0,1.57-2.78,5.77,5.77,0,0,0-.87-3.32s.35-5-.87-6.45-5.76-1.56-6.8-.87a19.92,19.92,0,0,0-9.94-4.53C105,181.68,98.5,183.43,94.84,189.88Z" style="fill: rgb(255, 255, 255); stroke: rgb(38, 50, 56); stroke-linecap: round; stroke-linejoin: round; transform-origin: 109.032px 208.137px;" id="elsej25bl83h" class="animable"></path><path d="M111.23,196.85c-5.58-3.66-16.39-7-16.39-7l2.09-8.54,1.92.87-.52,3.66,1.22.69,1.22-3.83s11.15,4.71,16.9,8.19" style="fill: rgb(255, 255, 255); stroke: rgb(38, 50, 56); stroke-linecap: round; stroke-linejoin: round; transform-origin: 106.255px 189.08px;" id="ele2c0rmjigas" class="animable"></path><polyline points="95.54 198.94 98.33 199.64 95.54 200.51" style="fill: none; stroke: rgb(38, 50, 56); stroke-linecap: round; stroke-linejoin: round; transform-origin: 96.935px 199.725px;" id="el6vn8b9idhvx" class="animable"></polyline><path d="M94.84,197s1.4-1,2.27-.69" style="fill: none; stroke: rgb(38, 50, 56); stroke-linecap: round; stroke-linejoin: round; transform-origin: 95.975px 196.625px;" id="elpy1z4ajrkmi" class="animable"></path><path d="M105.65,203.3a3.24,3.24,0,0,0,3.14-.53c1.22-1.22,1.91-1.91,3.13-1.56s2.44.69,3.66-.35,4.19.52,4.71,1" style="fill: none; stroke: rgb(38, 50, 56); stroke-linecap: round; stroke-linejoin: round; transform-origin: 112.97px 202.001px;" id="el3f1nkltt1ns" class="animable"></path><path d="M115.58,200.86a39,39,0,0,1-1.91,4.53,4.82,4.82,0,0,1-4,2.61c-1.57,0-1.57-1.74-1.57-1.74" style="fill: none; stroke: rgb(38, 50, 56); stroke-linecap: round; stroke-linejoin: round; transform-origin: 111.84px 204.43px;" id="elig5btygey2" class="animable"></path><path d="M113.67,205.39s.34,3.48,1.74,4.36" style="fill: none; stroke: rgb(38, 50, 56); stroke-linecap: round; stroke-linejoin: round; transform-origin: 114.54px 207.57px;" id="el94vnwjpfyy" class="animable"></path><path d="M87.71,176.89V166.44H90.3a2.89,2.89,0,0,1,1.51.34,2.06,2.06,0,0,1,.82,1,4.25,4.25,0,0,1,.25,1.56,3.18,3.18,0,0,1-.29,1.43,2.07,2.07,0,0,1-.86.94,2.76,2.76,0,0,1-1.42.33H89.17v4.86ZM89.17,171h.67a2.67,2.67,0,0,0,1-.14.91.91,0,0,0,.52-.5,2.63,2.63,0,0,0,.15-1,4.23,4.23,0,0,0-.11-1.14.78.78,0,0,0-.46-.56,2.88,2.88,0,0,0-1.08-.15h-.68Z" style="fill: rgb(38, 50, 56); transform-origin: 90.2958px 171.668px;" id="elk54b6rzuj7" class="animable"></path><path d="M96.57,177a3.13,3.13,0,0,1-1.69-.41,2.28,2.28,0,0,1-.9-1.18,5.5,5.5,0,0,1-.27-1.8v-4a4.94,4.94,0,0,1,.28-1.77,2.19,2.19,0,0,1,.9-1.14,3.17,3.17,0,0,1,1.68-.39,3,3,0,0,1,1.68.4,2.24,2.24,0,0,1,.9,1.14,5.12,5.12,0,0,1,.28,1.76v4a5.32,5.32,0,0,1-.28,1.78,2.34,2.34,0,0,1-.9,1.18A2.94,2.94,0,0,1,96.57,177Zm0-1.15a1.38,1.38,0,0,0,.88-.24,1.17,1.17,0,0,0,.4-.67,4.27,4.27,0,0,0,.11-1v-4.58a4.13,4.13,0,0,0-.11-1,1.12,1.12,0,0,0-.4-.65,1.45,1.45,0,0,0-.88-.22,1.47,1.47,0,0,0-.88.22,1.13,1.13,0,0,0-.41.65,4.17,4.17,0,0,0-.1,1v4.58a4.31,4.31,0,0,0,.1,1,1.18,1.18,0,0,0,.41.67A1.4,1.4,0,0,0,96.57,175.86Z" style="fill: rgb(38, 50, 56); transform-origin: 96.5696px 171.654px;" id="eloa3x6r0i1nr" class="animable"></path><path d="M103.32,177a2.7,2.7,0,0,1-1.5-.39,2.45,2.45,0,0,1-.91-1.07,4.23,4.23,0,0,1-.36-1.59l1.29-.34a6.28,6.28,0,0,0,.17,1.07,1.89,1.89,0,0,0,.45.84,1.12,1.12,0,0,0,.86.33,1.1,1.1,0,0,0,.86-.31,1.29,1.29,0,0,0,.29-.91,1.85,1.85,0,0,0-.32-1.15,5.85,5.85,0,0,0-.81-.87l-1.76-1.55a3,3,0,0,1-.76-1,3.26,3.26,0,0,1-.24-1.33,2.35,2.35,0,0,1,.65-1.78,2.5,2.5,0,0,1,1.8-.63,3.33,3.33,0,0,1,1.09.16,2,2,0,0,1,.79.5,2.47,2.47,0,0,1,.5.84,4.87,4.87,0,0,1,.25,1.2l-1.24.33a5.4,5.4,0,0,0-.15-.95,1.45,1.45,0,0,0-.41-.69,1.17,1.17,0,0,0-.83-.27,1.2,1.2,0,0,0-.85.29,1.15,1.15,0,0,0-.3.86,1.68,1.68,0,0,0,.16.79,2.37,2.37,0,0,0,.52.63l1.77,1.55a5.5,5.5,0,0,1,1,1.23,3.15,3.15,0,0,1,.45,1.7,2.64,2.64,0,0,1-.32,1.33,2.11,2.11,0,0,1-.89.86A2.71,2.71,0,0,1,103.32,177Z" style="fill: rgb(38, 50, 56); transform-origin: 103.165px 171.659px;" id="elnw0i0jb9tuh" class="animable"></path><path d="M108.11,176.89v-9.37h-1.77v-1.08h5v1.08h-1.72v9.37Z" style="fill: rgb(38, 50, 56); transform-origin: 108.84px 171.665px;" id="elztjudc3uflg" class="animable"></path><path d="M111.7,176.89l2.22-10.45h1.41l2.23,10.45h-1.38l-.48-2.63h-2.13l-.5,2.63Zm2.07-3.67h1.74l-.88-4.72Z" style="fill: rgb(38, 50, 56); transform-origin: 114.63px 171.665px;" id="elntjtpdgfgq9" class="animable"></path><path d="M121.06,177a2.63,2.63,0,0,1-1.57-.42,2.3,2.3,0,0,1-.85-1.22,6,6,0,0,1-.27-1.92V170a6.93,6.93,0,0,1,.24-2,2.17,2.17,0,0,1,.85-1.23,2.92,2.92,0,0,1,1.71-.43,3.25,3.25,0,0,1,1.58.33,2,2,0,0,1,.88,1,4.64,4.64,0,0,1,.27,1.71v.38h-1.37v-.32a5.68,5.68,0,0,0-.09-1.12,1,1,0,0,0-.37-.64,1.47,1.47,0,0,0-.87-.21,1.28,1.28,0,0,0-.94.29,1.45,1.45,0,0,0-.36.81,8,8,0,0,0-.07,1.15v3.88a6.3,6.3,0,0,0,.11,1.25,1.26,1.26,0,0,0,.42.75,1.42,1.42,0,0,0,.88.24,1.3,1.3,0,0,0,.88-.27,1.49,1.49,0,0,0,.42-.8,6.06,6.06,0,0,0,.12-1.32v-.72h-1.33v-1H124v5.17h-.91l-.14-1.2a2.25,2.25,0,0,1-.65,1A1.8,1.8,0,0,1,121.06,177Z" style="fill: rgb(38, 50, 56); transform-origin: 121.184px 171.674px;" id="elt9j4okxzmxh" class="animable"></path><path d="M125.47,176.89V166.44h4.05v1.08h-2.59V171H129v1h-2.1v3.83h2.62v1Z" style="fill: rgb(38, 50, 56); transform-origin: 127.495px 171.665px;" id="eljl9aa91vw1" class="animable"></path></g><g id="freepik--Character--inject-114" class="animable" style="transform-origin: 259.24px 289.894px;"><path d="M188.35,408.56l40.49-148.12a41.19,41.19,0,0,1,39.09-30.33L334.54,229a41.21,41.21,0,0,1,41.12,49L350.3,409.15Z" style="fill: rgb(38, 50, 56); stroke: rgb(38, 50, 56); stroke-linecap: round; stroke-linejoin: round; transform-origin: 282.377px 319.072px;" id="eln5im6bjy3t" class="animable"></path><path d="M173.36,380.09l4.8-7.88-9.53-1.16S169.37,377.4,173.36,380.09Z" style="fill: rgb(38, 50, 56); stroke: rgb(38, 50, 56); stroke-linecap: round; stroke-linejoin: round; transform-origin: 173.395px 375.57px;" id="elvuhct0ok1ef" class="animable"></path><path d="M180.6,377s4.06-2.68,5.58-11.39,1.27-20.81-.12-22.09a11.85,11.85,0,0,1-2.13-2.56s-4.84,5.12-5.19,7S174.55,366.4,180.6,377Z" style="fill: rgb(38, 50, 56); stroke: rgb(38, 50, 56); stroke-linecap: round; stroke-linejoin: round; transform-origin: 182.217px 358.98px;" id="el24pkzkbed5q" class="animable"></path><path d="M180.13,345.6a54.65,54.65,0,0,0-2.56,13.94c-.46,8.14,3,17.44,3,17.44l-9.07-2.56S170.25,366.75,173,360,180.13,345.6,180.13,345.6Z" style="fill: rgb(255, 255, 255); stroke: rgb(38, 50, 56); stroke-linecap: round; stroke-linejoin: round; transform-origin: 175.893px 361.29px;" id="el6hkn690dngx" class="animable"></path><path d="M253.58,267.69s-23.78,6.48-32,6.48-14.17,1.2-16.57,2.88-37.71,45.4-42.75,50.44-16.09,13.69-19.45,25,5.52,19.22,12.48,22.1a151.55,151.55,0,0,0,18,5.52s-4.33-8.16-.72-19.21,11.29-19.94,11.29-19.94l25.7-4.32-6.73,38.91-10.09,33.62H342.93a208.28,208.28,0,0,0,9.12-41.07c2.65-22.81,3.85-69.65,3.85-75.65s.72-9.85-4.81-11.53-23-4.81-31-8.65S302.19,257,297.46,256s-20.82,5-26.83,7.61S253.58,267.69,253.58,267.69Z" style="fill: rgb(153, 153, 153); stroke: rgb(38, 50, 56); stroke-linecap: round; stroke-linejoin: round; transform-origin: 249.004px 332.529px;" id="elmzulsl2efb" class="animable"></path><line x1="170.71" y1="331.14" x2="168.44" y2="329.46" style="fill: none; stroke: rgb(38, 50, 56); stroke-linecap: round; stroke-linejoin: round; transform-origin: 169.575px 330.3px;" id="elwegumpvs0hk" class="animable"></line><line x1="183.93" y1="340.94" x2="173.9" y2="333.51" style="fill: none; stroke: rgb(38, 50, 56); stroke-linecap: round; stroke-linejoin: round; transform-origin: 178.915px 337.225px;" id="elqtuszes1b4a" class="animable"></line><path d="M266.31,358c14.41-9.85,31.94-33.87,31.94-33.87l-10.08-9.85L305,310.44s3.12-19,.72-37.95c-.64-5.05-1.19-9.12-1.66-12.39-2.63-2.13-4.92-3.75-6.58-4.11-4.73-1-20.82,5-26.83,7.61C266,265.66,258.24,267,255,267.48l-19,31.43,13,6.73-12.73,5L243,361.36l-12.25,12.25S251.9,367.84,266.31,358Z" style="fill: rgb(171, 171, 171); stroke: rgb(38, 50, 56); stroke-linecap: round; stroke-linejoin: round; transform-origin: 268.689px 314.744px;" id="eliz0ske0wm" class="animable"></path><path d="M260.3,271.05a406.57,406.57,0,0,0-7.68,40.59c-3.6,25-2.16,41.07-2.16,41.07s33.62-51.4,40.35-69.65S297.46,256,297.46,256,272.55,271.29,260.3,271.05Z" style="fill: rgb(255, 255, 255); stroke: rgb(38, 50, 56); stroke-linecap: round; stroke-linejoin: round; transform-origin: 273.818px 304.355px;" id="el0pbbg7vvurz" class="animable"></path><path d="M270.87,279.94l-12.25,9.84L263.91,304l-13.08,23.76a166.46,166.46,0,0,0-.37,25s8.75-13.37,18.21-28.9L267,304.43l8.41-9.36Z" style="fill: rgb(38, 50, 56); stroke: rgb(38, 50, 56); stroke-linecap: round; stroke-linejoin: round; transform-origin: 262.783px 316.35px;" id="elimbmmwc2ybi" class="animable"></path><path d="M297.46,256s-24.91,15.3-37.16,15.06c0,0-2.45,9.4-5.24,25.27l13.65-11.1,8.88,23.61c5.88-10.17,11-19.77,13.22-25.77C297.53,264.8,297.46,256,297.46,256Z" style="fill: rgb(255, 255, 255); stroke: rgb(38, 50, 56); stroke-linecap: round; stroke-linejoin: round; transform-origin: 276.26px 282.42px;" id="elio81euc7bnj" class="animable"></path><path d="M244.06,208.88s-.41,18.27-.41,28-1,14.42.2,16.65,4.67,8.94,5.48,11.17a21.6,21.6,0,0,0,2.64,5.89c1.63,2.43,9.75,4.26,9.75,4.26S264.16,286,267,286.24s18.68-9.54,22.34-14.82,7.31-12.18,8.12-15.43.61-3.86,1-6.91A54.24,54.24,0,0,1,299.7,243s9.13-4.87,9.95-10.56a15.48,15.48,0,0,0-2-10l-3.05-4.67-10.76-6.9s-1.83-3.25,1.62-11.17,1.42-14.22-3.86-15.23-31.88-1-38.78,7.1A42.52,42.52,0,0,0,244.06,208.88Z" style="fill: rgb(255, 255, 255); stroke: rgb(38, 50, 56); stroke-linecap: round; stroke-linejoin: round; transform-origin: 276.529px 235.129px;" id="el8j2pph7cfhq" class="animable"></path><path d="M295.43,249.08s-2,7.11-4.26,10.77-17.87,15.23-19.7,15.63-9.75-.61-9.75-.61S264.16,286,267,286.24a4.15,4.15,0,0,0,1.46-.3c6.12-5.84,18.08-17.34,20.67-20.48C292.66,261.19,295.43,249.08,295.43,249.08Z" style="fill: rgb(38, 50, 56); stroke: rgb(38, 50, 56); stroke-linecap: round; stroke-linejoin: round; transform-origin: 278.575px 267.66px;" id="elx7qlb73mh" class="animable"></path><path d="M256.85,220.86s.81,2.84,0,10.56-5.08,14.41-4.06,15.63a6.9,6.9,0,0,0,5.07,2.64,9.71,9.71,0,0,0,4.47-1.42" style="fill: none; stroke: rgb(38, 50, 56); stroke-linecap: round; stroke-linejoin: round; transform-origin: 257.482px 235.275px;" id="elxy7ecxbv3ro" class="animable"></path><path d="M255,257l-1.22-4.06a21.55,21.55,0,0,0,11.58.61c6.5-1.42,7.31-6.29,7.31-6.29" style="fill: none; stroke: rgb(38, 50, 56); stroke-linecap: round; stroke-linejoin: round; transform-origin: 263.225px 252.13px;" id="elzlni04p92v" class="animable"></path><path d="M270.05,229.79a8.86,8.86,0,0,0,8.93.61" style="fill: none; stroke: rgb(38, 50, 56); stroke-linecap: round; stroke-linejoin: round; transform-origin: 274.515px 230.558px;" id="elcr45db6qt5g" class="animable"></path><path d="M248.13,226.68s2.84,2.84,6.49,1.63" style="fill: none; stroke: rgb(38, 50, 56); stroke-linecap: round; stroke-linejoin: round; transform-origin: 251.375px 227.645px;" id="elifu1rw1sy5f" class="animable"></path><path d="M275.72,232.05c0,.46-.78.83-1.75.83s-1.74-.37-1.74-.83.78-.83,1.74-.83S275.72,231.59,275.72,232.05Z" style="fill: rgb(38, 50, 56); transform-origin: 273.975px 232.05px;" id="el432jj42emm7" class="animable"></path><path d="M252.7,229.44c-.08.45-.92.68-1.87.5s-1.65-.68-1.57-1.13.92-.68,1.87-.5S252.78,229,252.7,229.44Z" style="fill: rgb(38, 50, 56); transform-origin: 250.98px 229.125px;" id="eloc96oqg4if" class="animable"></path><path d="M266.93,218.93s10.39-1.88,13.64,3" style="fill: none; stroke: rgb(38, 50, 56); stroke-linecap: round; stroke-linejoin: round; transform-origin: 273.75px 220.252px;" id="elulww6iro9dq" class="animable"></path><path d="M255.16,218.43s-6.13-4-9,.12" style="fill: none; stroke: rgb(38, 50, 56); stroke-linecap: round; stroke-linejoin: round; transform-origin: 250.66px 217.619px;" id="el8iq9m0w3rac" class="animable"></path><path d="M294,178.42s-4.06-9.75-27.62-9.55-33.1,12.59-32.29,15.84,10.36,4.47,8.74,6.7-6.5,6.5-5.28,10.76,6.5,6.71,6.5,6.71,2.84-11.38,16.24-12.19,18.07.61,22.34-2,5.68-3.65,5.68-3.65-7.92,11.57-6.9,17.26,5.69,8.73,7.31,12,.41,7.51,1.83,9.14,4.06,1.21,5.07-1.22,3.46-6.91,7.92-5.28l4.47,1.62s10.56-21.32,8.94-31.88S302.54,173.34,294,178.42Z" style="fill: rgb(38, 50, 56); stroke: rgb(38, 50, 56); stroke-linecap: round; stroke-linejoin: round; transform-origin: 275.581px 199.641px;" id="ell4ewlwuvkb" class="animable"></path><path d="M201.75,319.44l7.09-2.67s2.91-3.14,4.65-2.21,1.39,4.3-.12,6.28-5.69,4-5.69,4Z" style="fill: rgb(255, 255, 255); stroke: rgb(38, 50, 56); stroke-linecap: round; stroke-linejoin: round; transform-origin: 208.203px 319.614px;" id="elwiethfyckx" class="animable"></path><g id="el6cuysxa7uhr"><rect x="203.31" y="303.09" width="4.07" height="21.87" style="fill: rgb(255, 255, 255); stroke: rgb(38, 50, 56); stroke-linecap: round; stroke-linejoin: round; transform-origin: 205.345px 314.025px; transform: rotate(21.14deg);" class="animable"></rect></g><g id="elcwva853jfjn"><ellipse cx="216.47" cy="291.14" rx="16.8" ry="13.76" style="fill: rgb(255, 255, 255); opacity: 0.47; transform-origin: 216.47px 291.14px;" class="animable"></ellipse></g><path d="M218.36,274.05c-10.27-1.26-19.44,4.66-20.49,13.22s6.44,16.52,16.71,17.77,19.44-4.67,20.49-13.23S228.63,275.3,218.36,274.05Zm13,17.31c-.83,6.85-8.17,11.59-16.39,10.58s-14.21-7.36-13.37-14.21,8.17-11.59,16.39-10.59S232.19,284.51,231.35,291.36Z" style="fill: rgb(255, 255, 255); stroke: rgb(38, 50, 56); stroke-linecap: round; stroke-linejoin: round; transform-origin: 216.47px 289.544px;" id="eluzscieqsw1" class="animable"></path><path d="M218,276c-10.27-1.26-19.44,4.67-20.49,13.23S204,305.71,214.22,307s19.44-4.67,20.49-13.23S228.27,277.22,218,276Zm13,17.31c-.83,6.85-8.17,11.59-16.39,10.59s-14.21-7.37-13.37-14.22,8.18-11.59,16.39-10.59S231.83,286.43,231,293.28Z" style="fill: rgb(255, 255, 255); stroke: rgb(38, 50, 56); stroke-linecap: round; stroke-linejoin: round; transform-origin: 216.11px 291.503px;" id="ellvvb2n3vkp" class="animable"></path><path d="M179.9,346.41,187,327s6.39-13,7.9-13,11,4.77,11.86,5.23,4.3,11.39,4.3,11.39.58.82-.35,2.21a11.49,11.49,0,0,1-2.09,2.32s-.7,4.42-1.4,5.35a5.91,5.91,0,0,1-1.86,1.51,16.35,16.35,0,0,1-2.09,3.26l-2,2.32a19.27,19.27,0,0,1-2.56,3.6c-1.51,1.63-5.58.82-5.58.82s-.58,4.65-2.21,5.81-8.6,3.95-13.37,1.74C177.57,359.54,178.5,350,179.9,346.41Z" style="fill: rgb(255, 255, 255); stroke: rgb(38, 50, 56); stroke-linecap: round; stroke-linejoin: round; transform-origin: 194.394px 337.194px;" id="elotwvnglkxgc" class="animable"></path><path d="M208.61,335.13s-3.72-7-4.88-8.48-9.53-4.88-9.53-4.88" style="fill: none; stroke: rgb(38, 50, 56); stroke-linecap: round; stroke-linejoin: round; transform-origin: 201.405px 328.45px;" id="el3g6wkpbuihv" class="animable"></path><path d="M205.35,342s-6.39-6-7.67-7-8.37-4.65-8.37-4.65" style="fill: none; stroke: rgb(38, 50, 56); stroke-linecap: round; stroke-linejoin: round; transform-origin: 197.33px 336.175px;" id="eldiosyosr9d" class="animable"></path><polyline points="201.29 347.57 198.84 344.08 186.06 340.13" style="fill: none; stroke: rgb(38, 50, 56); stroke-linecap: round; stroke-linejoin: round; transform-origin: 193.675px 343.85px;" id="elljzbneraqth" class="animable"></polyline><path d="M193.15,352v-1.4c0-1,1-1.16,2.09-1.16" style="fill: none; stroke: rgb(38, 50, 56); stroke-linecap: round; stroke-linejoin: round; transform-origin: 194.195px 350.72px;" id="elm47obq3rhmd" class="animable"></path><polygon points="220.28 312.69 217.09 308.24 211.39 308.38 213.75 312.55 220.28 312.69" style="fill: rgb(181, 31, 50); stroke: rgb(38, 50, 56); stroke-linecap: round; stroke-linejoin: round; transform-origin: 215.835px 310.465px;" id="elf0t0zy3ylzn" class="animable"></polygon><path d="M257.9,346.47s-10.09-13.93-11.29-15.13-6-11-6.72-13.46-3.36-3.12-4.56-3.12-13-2.16-13-2.16-6.49,0-7.69-.48-2.88,1.92-2.64,3.12a11,11,0,0,0-.24,6.25,12.36,12.36,0,0,0,3.12,4.8s-3.12,6-1.68,8.41,3.84,6,3.84,6-2.4,4.33-.24,6.73,7.45,5.76,11.53,7.92,10.33,5,12.49,5.53,14.65,1.2,14.65,1.2Z" style="fill: rgb(255, 255, 255); stroke: rgb(38, 50, 56); stroke-linecap: round; stroke-linejoin: round; transform-origin: 234.659px 337.069px;" id="elbdvqgs95u7d" class="animable"></path><path d="M218.48,312.55s14.44,5.09,17.09,7" style="fill: none; stroke: rgb(38, 50, 56); stroke-linecap: round; stroke-linejoin: round; transform-origin: 227.025px 316.05px;" id="elww17i17ove" class="animable"></path><path d="M212,315.24l7.44,6.49s10.33,8.64,14.41,10.09" style="fill: none; stroke: rgb(38, 50, 56); stroke-linecap: round; stroke-linejoin: round; transform-origin: 222.925px 323.53px;" id="el403a5g5q31h" class="animable"></path><path d="M214.91,326.29s7.69,10.09,12,12.49" style="fill: none; stroke: rgb(38, 50, 56); stroke-linecap: round; stroke-linejoin: round; transform-origin: 220.91px 332.535px;" id="elsnrh07zmna" class="animable"></path><path d="M217.07,340.7a75.7,75.7,0,0,0,10.57,6.49" style="fill: none; stroke: rgb(38, 50, 56); stroke-linecap: round; stroke-linejoin: round; transform-origin: 222.355px 343.945px;" id="eljj0qapt283" class="animable"></path><polygon points="270.39 350.07 256.46 344.55 250.46 374.33 267.27 379.85 270.39 350.07" style="fill: rgb(255, 255, 255); stroke: rgb(38, 50, 56); stroke-linecap: round; stroke-linejoin: round; transform-origin: 260.425px 362.2px;" id="elv6y5yvsmnlh" class="animable"></polygon><path d="M312.42,317.4l-2.4,44-41.79-13.21L263,382.73s34.58,15.38,47.79,20.66S339.08,412,341,410.6s6-10.57,9.84-29.79,4.09-85.26,5-88.38-.24-7.69-1.92-9.13-22.34,3.84-22.34,3.84" style="fill: rgb(153, 153, 153); stroke: rgb(38, 50, 56); stroke-linecap: round; stroke-linejoin: round; transform-origin: 309.58px 346.986px;" id="elgkc23ujp9ew" class="animable"></path><path d="M339.17,296.07a19.71,19.71,0,0,1,3.28-.28" style="fill: none; stroke: rgb(38, 50, 56); stroke-linecap: round; stroke-linejoin: round; transform-origin: 340.81px 295.93px;" id="elitmcj759axl" class="animable"></path><path d="M314.34,316.68s7.83-13.88,19.57-19" style="fill: none; stroke: rgb(38, 50, 56); stroke-linecap: round; stroke-linejoin: round; transform-origin: 324.125px 307.18px;" id="elax1d9gvi1gd" class="animable"></path><path d="M310,361.36s18.5,4.56,21.14,6,6.72,9.61,7.2,16.82" style="fill: none; stroke: rgb(38, 50, 56); stroke-linecap: round; stroke-linejoin: round; transform-origin: 324.17px 372.77px;" id="el49bjhalkf7c" class="animable"></path><path d="M343.23,377.86a28.58,28.58,0,0,1,.42,3.91" style="fill: none; stroke: rgb(38, 50, 56); stroke-linecap: round; stroke-linejoin: round; transform-origin: 343.44px 379.815px;" id="el3zy59xdpods" class="animable"></path><path d="M337.64,368.56s2.36.82,4.13,4.54" style="fill: none; stroke: rgb(38, 50, 56); stroke-linecap: round; stroke-linejoin: round; transform-origin: 339.705px 370.83px;" id="elq592sv1ao2f" class="animable"></path></g><g id="freepik--Book--inject-114" class="animable" style="transform-origin: 196.33px 428.816px;"><polygon points="80.67 420.57 78.72 423.92 167.45 438.15 267.62 458.24 313.94 418.9 307.52 414.71 257.86 444.57 159.64 421.41 80.67 420.57" style="fill: rgb(255, 255, 255); stroke: rgb(38, 50, 56); stroke-linecap: round; stroke-linejoin: round; transform-origin: 196.33px 436.475px;" id="elzn93u4hs6uj" class="animable"></polygon><path d="M167.45,430.9l52.18-27.35s9.49-3.35,23.44-3.07,35.43,8.37,47.43,11.16,17,3.07,17,3.07L260.93,451s-39.9-7-53.3-12.56S174.43,427.27,167.45,430.9Z" style="fill: rgb(235, 235, 235); stroke: rgb(38, 50, 56); stroke-linecap: round; stroke-linejoin: round; transform-origin: 237.475px 425.732px;" id="el53mvatgruhl" class="animable"></path><path d="M167.45,430.9s-7.81-6.14-15.06-6.7-15.63,1.11-27.35,1.95-44.36-5.58-44.36-5.58l71.43-16.46s6.47,1.6,27.22-3.88c13.4-3.54,36.67,5.27,36.67,5.27Z" style="fill: rgb(235, 235, 235); stroke: rgb(38, 50, 56); stroke-linecap: round; stroke-linejoin: round; transform-origin: 148.34px 415.146px;" id="elzk9emghwpne" class="animable"></path><path d="M164.91,434.62s-10.72-5.55-16.27-5.18-13.68-.74-18.86-.37" style="fill: none; stroke: rgb(38, 50, 56); stroke-linecap: round; stroke-linejoin: round; transform-origin: 147.345px 431.807px;" id="elr2spiae7lq" class="animable"></path><path d="M170.09,435.73s7.77-1.48,14.42,0S196,439.8,207.44,442" style="fill: none; stroke: rgb(38, 50, 56); stroke-linecap: round; stroke-linejoin: round; transform-origin: 188.765px 438.536px;" id="eloza1m1qxrr" class="animable"></path><line x1="265.13" y1="453.48" x2="303.96" y2="422.05" style="fill: none; stroke: rgb(38, 50, 56); stroke-linecap: round; stroke-linejoin: round; transform-origin: 284.545px 437.765px;" id="el3p98gvm1zt5" class="animable"></line><line x1="300.26" y1="428.33" x2="268.09" y2="454.96" style="fill: none; stroke: rgb(38, 50, 56); stroke-linecap: round; stroke-linejoin: round; transform-origin: 284.175px 441.645px;" id="elu4npkojzdgi" class="animable"></line><polygon points="247.41 435.18 237.32 441.02 255.9 445.26 265.98 439.43 247.41 435.18" style="fill: rgb(255, 255, 255); transform-origin: 251.65px 440.22px;" id="eloflom6ciy4m" class="animable"></polygon><polygon points="248.23 436.16 240.1 440.87 255.07 444.29 263.2 439.58 248.23 436.16" style="fill: rgb(181, 31, 50); transform-origin: 251.65px 440.225px;" id="elbg4onlnkoef" class="animable"></polygon><polygon points="274.53 413.96 264.45 419.8 283.02 424.05 293.1 418.21 274.53 413.96" style="fill: rgb(255, 255, 255); transform-origin: 278.775px 419.005px;" id="elwmvgrgtnsg" class="animable"></polygon><polygon points="275.35 414.94 267.23 419.65 282.19 423.07 290.32 418.36 275.35 414.94" style="fill: rgb(181, 31, 50); transform-origin: 278.775px 419.005px;" id="elodg204ht9ej" class="animable"></polygon><polygon points="267.21 424.59 256.65 431.53 268.88 434.87 280.55 427.64 267.21 424.59" style="fill: rgb(255, 255, 255); transform-origin: 268.6px 429.73px;" id="elzy1c9yysqy" class="animable"></polygon><polygon points="267.51 425.68 259.19 431.15 268.82 433.77 278.01 428.09 267.51 425.68" style="fill: rgb(181, 31, 50); transform-origin: 268.6px 429.725px;" id="elkavc33jvufe" class="animable"></polygon><polygon points="228.93 429.84 218.37 436.78 230.6 440.12 242.27 432.89 228.93 429.84" style="fill: rgb(255, 255, 255); transform-origin: 230.32px 434.98px;" id="el4wwefudubfn" class="animable"></polygon><polygon points="229.23 430.93 220.91 436.4 230.54 439.02 239.73 433.34 229.23 430.93" style="fill: rgb(181, 31, 50); transform-origin: 230.32px 434.975px;" id="elwnf2taone4" class="animable"></polygon><polygon points="212.42 423.71 199.94 430.66 211.24 433.99 224.91 426.77 212.42 423.71" style="fill: rgb(255, 255, 255); transform-origin: 212.425px 428.85px;" id="elwww5tg1sgvp" class="animable"></polygon><polygon points="212.41 424.81 202.59 430.27 211.48 432.9 222.24 427.21 212.41 424.81" style="fill: rgb(181, 31, 50); transform-origin: 212.415px 428.855px;" id="elttbkgz66q2b" class="animable"></polygon><polygon points="248.4 419.77 237.84 426.72 250.07 430.06 261.74 422.83 248.4 419.77" style="fill: rgb(255, 255, 255); transform-origin: 249.79px 424.915px;" id="elp45occ8pplf" class="animable"></polygon><polygon points="248.7 420.87 240.38 426.34 250.01 428.96 259.19 423.27 248.7 420.87" style="fill: rgb(181, 31, 50); transform-origin: 249.785px 424.915px;" id="elfzv0rs2awnj" class="animable"></polygon><polygon points="162.97 413.44 152.25 417.58 163.17 419.34 174.96 415.03 162.97 413.44" style="fill: rgb(255, 255, 255); transform-origin: 163.605px 416.39px;" id="elkpp52k1viqo" class="animable"></polygon><polygon points="163.1 414.07 154.66 417.33 163.25 418.71 172.54 415.31 163.1 414.07" style="fill: rgb(181, 31, 50); transform-origin: 163.6px 416.39px;" id="el3j0o9hf11df" class="animable"></polygon></g><defs>     <filter id="active" height="200%">         <feMorphology in="SourceAlpha" result="DILATED" operator="dilate" radius="2"></feMorphology>                <feFlood flood-color="#32DFEC" flood-opacity="1" result="PINK"></feFlood>        <feComposite in="PINK" in2="DILATED" operator="in" result="OUTLINE"></feComposite>        <feMerge>            <feMergeNode in="OUTLINE"></feMergeNode>            <feMergeNode in="SourceGraphic"></feMergeNode>        </feMerge>    </filter>    <filter id="hover" height="200%">        <feMorphology in="SourceAlpha" result="DILATED" operator="dilate" radius="2"></feMorphology>                <feFlood flood-color="#ff0000" flood-opacity="0.5" result="PINK"></feFlood>        <feComposite in="PINK" in2="DILATED" operator="in" result="OUTLINE"></feComposite>        <feMerge>            <feMergeNode in="OUTLINE"></feMergeNode>            <feMergeNode in="SourceGraphic"></feMergeNode>        </feMerge>            <feColorMatrix type="matrix" values="0   0   0   0   0                0   1   0   0   0                0   0   0   0   0                0   0   0   1   0 "></feColorMatrix>    </filter></defs></svg>