<svg xmlns="http://www.w3.org/2000/svg" viewBox="0 0 500 500"><g id="freepik--background-simple--inject-93"><path d="M436.31,141.73l-.97,1.59c-8.21,13.43-23,21.5-38.57,20.46-2-.13-3.99-.41-5.96-.84-14.14-3.08-26.43-13.82-31.49-27.55-2.98-8.07-3.78-17.36-9.46-23.78-7.39-8.35-19.98-8.66-31.04-8.35-11.07,.31-23.67-.03-31.02-8.41-4.6-5.25-6.05-12.7-5.65-19.72,1.05-18.56,14.04-35.12,30.52-43.32,16.48-8.2,35.86-8.87,53.85-5.18,25.21,5.17,49.15,19.21,63.5,40.83,14.35,21.62,17.9,51.02,6.29,74.26Z" style="fill:#f5f5f5;"></path><circle cx="99.29" cy="386.99" r="36.5" style="fill:#f5f5f5;"></circle></g><g id="freepik--Table--inject-93"><path d="M470.49,452.79c0,.14-98.73,.26-220.48,.26s-220.5-.12-220.5-.26,98.7-.26,220.5-.26,220.48,.12,220.48,.26Z" style="fill:#263238;"></path></g><g id="freepik--Speech_Bubble--inject-93"><g><path d="M304.43,142.58l-167.69,15.12c-22.35,2.02-38.72,23.02-36.56,46.92l8.84,97.99c2.15,23.9,22.02,41.63,44.37,39.62l65.09-5.87c1.97-.18,3.91,.69,5.18,2.32l18.41,23.43c2.72,3.46,7.81,3.01,9.87-.89l13.92-26.35c.97-1.83,2.72-3.03,4.69-3.21l50.53-4.56c22.35-2.02,38.72-23.02,36.56-46.92l-8.84-97.99c-2.15-23.9-22.02-41.63-44.37-39.62Z" style="fill:#fff;"></path><path d="M304.43,142.58s.72-.04,2.14-.1c.35-.01,.75-.03,1.19-.05,.44-.02,.92-.05,1.44,0,1.05,.08,2.26,.14,3.64,.27,.68,.12,1.4,.25,2.16,.38,.76,.15,1.57,.23,2.38,.5,.82,.24,1.68,.48,2.57,.74,.9,.24,1.78,.68,2.72,1.03,3.72,1.54,7.84,3.88,11.75,7.4,3.91,3.5,7.6,8.19,10.3,13.99,.33,.73,.66,1.47,.99,2.21,.35,.74,.55,1.55,.84,2.33,.26,.79,.56,1.58,.79,2.4,.2,.83,.39,1.66,.59,2.51,.8,3.38,1.07,6.99,1.41,10.69,1.35,14.83,2.88,31.72,4.58,50.38,.85,9.33,1.73,19.11,2.66,29.3,.23,2.55,.46,5.12,.7,7.72,.12,1.3,.24,2.6,.36,3.92l.18,1.97,.09,2c.26,5.33-.38,10.81-2.06,16.09-1.67,5.27-4.37,10.34-8.03,14.73-3.66,4.4-8.29,8.12-13.62,10.67-2.65,1.31-5.5,2.22-8.41,2.9-.72,.23-1.48,.26-2.21,.39l-2.23,.32c-1.49,.16-2.99,.28-4.49,.42-6.01,.54-12.11,1.1-18.28,1.65-6.17,.56-12.42,1.12-18.74,1.69-3.16,.29-6.33,.58-9.52,.87-1.53,.19-2.94,1.09-3.83,2.35-.44,.62-.77,1.38-1.16,2.08l-1.13,2.15c-3.03,5.74-6.09,11.53-9.18,17.38-.77,1.46-1.55,2.93-2.32,4.4-.39,.72-.74,1.51-1.32,2.17-.55,.66-1.24,1.22-2.03,1.61-1.57,.77-3.48,.79-5.08,.08-.81-.35-1.51-.9-2.1-1.55-.59-.65-1.06-1.32-1.59-1.98-4.17-5.3-8.37-10.65-12.6-16.04-1.06-1.35-2.12-2.7-3.18-4.05-.53-.67-1.06-1.37-1.6-2.01-.55-.62-1.23-1.12-1.98-1.46-.76-.34-1.58-.5-2.41-.48-.83,.05-1.72,.15-2.57,.22-1.73,.16-3.46,.31-5.19,.47-13.87,1.25-27.94,2.52-42.18,3.81-3.56,.32-7.11,.64-10.65,.96-3.53,.31-7.09,.73-10.64,.47-.89-.07-1.78-.11-2.65-.21l-2.62-.47c-.43-.08-.87-.14-1.3-.25l-1.27-.37-2.54-.75-2.45-1-1.22-.5-1.17-.62-2.33-1.23-2.2-1.45c-5.86-3.88-10.47-9.36-13.76-15.4-.21-.38-.44-.74-.62-1.13l-.53-1.18-1.05-2.36c-.31-.8-.56-1.62-.84-2.43-.25-.82-.6-1.61-.77-2.45-.88-3.3-1.37-6.7-1.65-10.05-2.42-26.87-4.75-52.78-6.97-77.47-.55-6.17-1.1-12.27-1.64-18.28-.56-6.04,0-12.12,1.74-17.76,3.4-11.31,11.33-20.82,21.28-25.73l1.86-.92,1.93-.72c.64-.24,1.28-.49,1.93-.71l1.98-.51c.66-.16,1.32-.35,1.98-.5l2.01-.29,2-.29,1.99-.18c5.3-.47,10.49-.94,15.59-1.4,10.19-.91,19.97-1.79,29.31-2.63,37.34-3.33,67.55-6.03,88.44-7.89,10.44-.92,18.54-1.63,24.05-2.12,2.74-.24,4.84-.42,6.25-.54,1.41-.12,2.13-.17,2.13-.17,0,0-.72,.08-2.13,.22-1.41,.13-3.51,.33-6.25,.59-5.5,.51-13.6,1.25-24.04,2.22-20.88,1.9-51.09,4.66-88.42,8.06-9.33,.85-19.11,1.73-29.3,2.66-5.09,.46-10.29,.93-15.59,1.41l-1.99,.18-1.98,.29-1.99,.29c-.65,.15-1.3,.33-1.95,.49l-1.96,.5c-.64,.21-1.27,.47-1.91,.7l-1.91,.72-1.84,.91c-9.84,4.86-17.68,14.27-21.04,25.48-1.72,5.59-2.27,11.6-1.71,17.59,.54,6.01,1.1,12.11,1.65,18.28,2.23,24.69,4.57,50.6,7,77.46,.28,3.36,.77,6.69,1.64,9.97,.16,.83,.51,1.61,.76,2.42,.28,.8,.52,1.61,.83,2.4l1.04,2.33,.52,1.17c.18,.38,.41,.75,.62,1.12,3.26,5.97,7.81,11.38,13.6,15.21l2.17,1.43,2.3,1.22,1.15,.61,1.21,.49,2.42,.98,2.51,.74,1.26,.37c.42,.1,.86,.16,1.29,.25l2.58,.47c.87,.11,1.75,.14,2.62,.21,3.5,.27,7.02-.15,10.56-.46,3.54-.32,7.09-.64,10.65-.96,14.24-1.28,28.31-2.55,42.18-3.8,1.73-.16,3.46-.31,5.19-.47,.87-.07,1.71-.17,2.6-.22,.91-.03,1.81,.16,2.64,.52,.82,.37,1.56,.92,2.16,1.59,.57,.69,1.08,1.36,1.62,2.04,1.06,1.35,2.12,2.7,3.18,4.05,4.24,5.39,8.44,10.74,12.6,16.04,.52,.65,1.03,1.36,1.57,1.95,.54,.59,1.19,1.11,1.93,1.42,1.47,.66,3.21,.64,4.65-.07,.72-.36,1.35-.87,1.86-1.48,.52-.6,.86-1.35,1.26-2.09,.78-1.47,1.55-2.94,2.32-4.4,3.09-5.85,6.16-11.65,9.19-17.38l1.14-2.15c.39-.71,.71-1.44,1.2-2.14,.97-1.37,2.5-2.34,4.17-2.55,3.2-.29,6.38-.58,9.54-.87,6.32-.57,12.57-1.13,18.74-1.69,6.17-.55,12.26-1.1,18.28-1.64,1.5-.14,3-.26,4.49-.42l2.21-.32c.73-.13,1.48-.16,2.19-.38,2.88-.67,5.69-1.57,8.31-2.86,5.27-2.52,9.85-6.2,13.47-10.54,3.63-4.35,6.3-9.36,7.96-14.58,1.67-5.23,2.31-10.66,2.05-15.94l-.08-1.98-.18-1.97c-.12-1.31-.23-2.62-.35-3.92-.23-2.6-.46-5.17-.69-7.72-.91-10.19-1.79-19.97-2.63-29.3-1.67-18.67-3.18-35.56-4.51-50.39-.33-3.71-.6-7.3-1.39-10.66-.2-.84-.39-1.67-.59-2.49-.24-.81-.53-1.6-.79-2.39-.28-.78-.48-1.58-.83-2.32-.33-.74-.66-1.48-.98-2.2-2.68-5.77-6.34-10.44-10.21-13.94-3.88-3.52-7.97-5.86-11.68-7.41-.94-.36-1.81-.8-2.71-1.04-.89-.26-1.75-.51-2.56-.75-.81-.28-1.62-.36-2.37-.51-.76-.14-1.48-.27-2.15-.39-1.37-.14-2.58-.2-3.63-.29-.52-.06-1-.04-1.44-.02-.44,.01-.83,.03-1.19,.04-1.41,.04-2.14,.05-2.14,.05Z" style="fill:#263238;"></path></g></g><g id="freepik--Target--inject-93"><g><circle cx="357.84" cy="101.57" r="34.26" transform="translate(194.85 435.93) rotate(-79.86)" style="fill:#B51F32;"></circle><g style="opacity:.3;"><circle cx="357.84" cy="101.57" r="34.26" transform="translate(194.85 435.93) rotate(-79.86)"></circle></g><circle cx="357.93" cy="97.78" r="34.26" transform="translate(2.5 204.29) rotate(-31.96)" style="fill:#B51F32;"></circle><circle cx="357.93" cy="97.78" r="22.95" transform="translate(221.52 442.85) rotate(-83.71)" style="fill:#fff;"></circle><path d="M369.16,98.06c-.15,6.2-5.31,11.1-11.51,10.95-6.2-.15-11.1-5.31-10.95-11.51,.15-6.2,5.31-11.1,11.51-10.95,6.2,.15,11.1,5.31,10.95,11.51Z" style="fill:#B51F32;"></path><polygon points="382.43 73.31 381.68 65.98 389.31 58.2 389.65 66.1 382.43 73.31" style="fill:#455a64;"></polygon><polygon points="398.54 67.89 391.01 67.09 383.26 74.18 390.81 75.17 398.54 67.89" style="fill:#455a64;"></polygon><g style="opacity:.3;"><path d="M359.43,97.66l26.69-19.34c-.86-1.35-1.95-2.71-3.18-4.08l-23.46,21.64-.04,1.78Z"></path></g><path d="M389.99,65.01c-3.64,3.47-7.29,6.93-10.93,10.4-5.78,5.5-11.56,11-17.34,16.5-1.33,1.26-2.66,2.53-3.99,3.79-1.26,1.2,.61,3.15,1.88,1.95,3.64-3.47,7.29-6.93,10.93-10.4,5.78-5.5,11.56-11,17.34-16.5,1.33-1.26,2.66-2.53,3.99-3.79,1.26-1.2-.61-3.15-1.88-1.95h0Z" style="fill:#263238;"></path></g></g><g id="freepik--Megaphone--inject-93"><g style="opacity:.2;"><path d="M325.59,225.38c-.43-9.86-2.22-19.71-4.41-29.52-.51-2.17-1.02-4.34-1.53-6.5-.53-2.15-1.14-4.27-1.71-6.4-1.1-4.26-2.36-8.44-3.64-12.57-2.46-8.31-6.22-18.36-9.12-26.19-5.09-1.82-11.59-2.09-19.29-1.04l-56.25,8.12c-11.55,11.32-22.19,20.07-30.98,26.54-.12-.78-.24-1.55-.35-2.33l-48.26,21.98c-9.07,5.66-13.74,17.42-8.3,30.98l5.34,14.78,3.7,7.6c4.3,8.82,12.89,13.27,20.92,11.49l-.5,.2c.2-.07,.4-.15,.6-.22,1.41-.32,2.8-.82,4.15-1.54,.98-.37,1.95-.73,2.91-1.1l39.66,51.02c2.9,3.73,8.27,3.61,11.03-.23l12.77-17.79c2.4-3.35,1.78-8.14-1.38-10.67-8.28-6.6-23.04-19.27-28.43-29.53-.2-.43-1.76-3.93-1.93-5.57,2.52-1.04,5.11-2.1,7.77-3.19,2.93-.61,5.93-1.19,9.01-1.75,6.36-1.12,13.05-2.12,20.03-2.58,6.97-.48,14.23,0,21.68,.95,14.95,1.85,30.52,5.74,46.97,9.5l.8,.14,.92-.04c.62-.01,1.15-.37,1.71-.57,.47-.37,.97-.72,1.41-1.13l1.14-1.41c1.24-2.07,2.17-4.37,2.6-6.77,.99-4.77,1.23-9.73,.95-14.65Z"></path></g><g><g><g><path d="M161.26,191.55s20.19-7.68,51.54-34.21c22.92-19.4,40.36-41.84,48.08-52.5,3.71-5.12,10.65-6.34,15.62-2.53,7.67,5.88,18.74,21.2,32.34,61.11,23.98,70.35,11.11,84.89,5.26,84.2-5.85-.7-44.75-11.25-69.84-10.7-25.09,.56-62.71,10.86-62.71,10.86l-20.29-56.22Z" style="fill:#e0e0e0;"></path><path d="M161.26,191.55s.13,.33,.37,.97c.24,.65,.59,1.6,1.05,2.85,.92,2.52,2.27,6.22,4.03,11.03,3.5,9.62,8.59,23.65,15.01,41.31l-.2-.1c10.99-2.92,23.53-5.84,37.47-8.2,6.97-1.15,14.3-2.17,21.96-2.57,7.67-.42,15.64,.15,23.78,1.15,8.14,1.02,16.47,2.5,24.97,4.21,4.25,.85,8.55,1.78,12.88,2.74,2.17,.48,4.35,.96,6.54,1.44,1.1,.24,2.2,.47,3.3,.69,.55,.11,1.1,.19,1.65,.28,.53,.04,1.06,.01,1.57-.17,1.03-.32,1.91-1.05,2.64-1.88,.72-.85,1.29-1.83,1.78-2.84,.94-2.06,1.5-4.29,1.88-6.56,.74-4.55,.71-9.24,.43-13.93-.64-9.39-2.49-18.83-4.79-28.25-2.07-8.46-4.55-16.71-7.18-24.78-2.64-8.07-5.44-15.95-8.47-23.58-3.04-7.63-6.27-15.03-9.99-22-1.85-3.48-3.85-6.85-6-10.05-2.16-3.19-4.53-6.21-7.25-8.79-.67-.66-1.39-1.26-2.11-1.84-.35-.31-.75-.53-1.12-.8-.4-.22-.79-.46-1.21-.64-1.66-.73-3.5-1.08-5.3-.88-1.79,.18-3.53,.79-4.99,1.8l-.55,.38-.51,.43c-.35,.27-.65,.6-.96,.92-.59,.65-1.11,1.37-1.64,2.1-4.23,5.78-8.54,11.24-12.86,16.39-8.63,10.31-17.29,19.39-25.65,27.18-16.86,15.45-32.08,26.14-42.97,32.81-5.46,3.32-9.86,5.64-12.89,7.1-1.51,.74-2.69,1.25-3.48,1.59-.8,.34-1.21,.48-1.21,.48,.15-.07,.47-.21,1.19-.53,.79-.35,1.95-.88,3.46-1.64,3.01-1.49,7.39-3.84,12.83-7.18,5.43-3.35,11.92-7.72,19.17-13.17,1.8-1.37,3.69-2.77,5.57-4.3,1.9-1.5,3.86-3.05,5.83-4.71,3.99-3.25,8.07-6.84,12.25-10.72,8.34-7.8,16.96-16.88,25.57-27.19,4.31-5.15,8.6-10.61,12.82-16.38,.52-.72,1.05-1.46,1.67-2.14,.32-.33,.63-.67,.99-.96l.53-.45,.57-.39c1.53-1.05,3.34-1.69,5.21-1.88,1.87-.21,3.8,.15,5.54,.91,.44,.19,.85,.44,1.26,.67,.39,.28,.81,.52,1.16,.83,.74,.59,1.47,1.2,2.15,1.87,2.76,2.62,5.15,5.66,7.32,8.86,2.17,3.22,4.17,6.59,6.03,10.09,3.73,6.99,6.97,14.41,10.02,22.05,3.04,7.65,5.85,15.53,8.49,23.61,2.63,8.08,5.12,16.34,7.19,24.82,2.3,9.44,4.16,18.9,4.8,28.34,.29,4.71,.31,9.44-.44,14.04-.39,2.3-.96,4.57-1.93,6.69-.51,1.04-1.1,2.06-1.86,2.95-.77,.88-1.71,1.66-2.86,2.03-.56,.2-1.19,.25-1.78,.19-.56-.1-1.13-.18-1.69-.29-1.11-.22-2.22-.45-3.31-.69-2.19-.48-4.37-.97-6.54-1.44-4.34-.96-8.62-1.89-12.87-2.75-8.49-1.71-16.81-3.2-24.93-4.23-8.12-1.01-16.06-1.59-23.7-1.18-7.64,.39-14.95,1.4-21.92,2.53-13.92,2.33-26.47,5.23-37.45,8.12l-.15,.04-.05-.14c-6.36-17.73-11.41-31.81-14.87-41.46-1.72-4.81-3.04-8.51-3.94-11.03-.44-1.24-.78-2.19-1-2.83-.22-.64-.33-.95-.33-.95Z" style="fill:#263238;"></path></g><g style="opacity:.3;"><path d="M304.6,167.57c12.52,37.53,16.26,70.29,8.34,73.17-7.92,2.89-24.49-25.2-37.02-62.73-12.52-37.53-16.26-70.29-8.34-73.17,7.92-2.89,24.49,25.2,37.02,62.73Z"></path></g><path d="M269.32,155.92s18.84-9.94,26.57,16.48c7.73,26.42-11.44,28.77-11.44,28.77-6.68-13.34-11.77-28.37-15.13-45.25Z" style="fill:#fff;"></path></g><path d="M142.23,220.45l7.75,27.04c1,3.48,4.32,5.76,7.92,5.45h0c2.47-.21,4.88,.79,6.46,2.7l44.45,53.42c3.1,3.73,8.86,3.61,11.81-.23l13.67-17.79c2.57-3.35,1.91-8.14-1.48-10.67-10.04-7.49-29.01-22.77-32.17-33.5-2.01-6.83-1.75-10.18-.91-11.81,1.11-2.14,1.4-4.61,.45-6.82l-6.86-16.03c-1.28-3-4.35-4.84-7.6-4.56l-36.88,3.18c-4.74,.41-7.93,5.04-6.62,9.62Z" style="fill:#B51F32;"></path><path d="M164.5,255.8l8.25,9.92,29.66-14.84s-2.29-4.66-2.1-6.06l-35.81,10.98Z" style="opacity:.3;"></path><path d="M126.63,226.84l5.72,14.78,3.96,7.6c5.43,10.42,17.29,14.77,26.97,9.91l50.99-19.2c-15.25-19.02-23.47-41.43-27.11-66.05l-51.65,21.98c-9.71,5.66-14.71,17.42-8.88,30.98Z" style="fill:#B51F32;"></path><path d="M182.51,197.28c.15,.36-9.24,4.8-20.97,9.92-11.74,5.12-21.38,8.97-21.53,8.61-.15-.36,9.23-4.8,20.97-9.92,11.73-5.12,21.37-8.97,21.53-8.61Z" style="fill:#263238;"></path><path d="M185.7,204.95c.15,.36-9.24,4.8-20.97,9.92-11.74,5.12-21.38,8.97-21.53,8.61-.15-.36,9.23-4.8,20.97-9.92,11.73-5.12,21.37-8.97,21.53-8.61Z" style="fill:#263238;"></path><path d="M188.89,212.62c.15,.36-9.24,4.8-20.97,9.92-11.74,5.12-21.37,8.97-21.53,8.61-.15-.36,9.23-4.8,20.97-9.92,11.73-5.12,21.37-8.97,21.53-8.61Z" style="fill:#263238;"></path><path d="M192.08,220.29c.15,.36-9.24,4.8-20.97,9.92-11.74,5.12-21.37,8.97-21.53,8.61-.15-.36,9.24-4.8,20.97-9.92,11.73-5.12,21.37-8.97,21.53-8.61Z" style="fill:#263238;"></path><path d="M214.28,239.92s-.18,.11-.55,.27c-.42,.17-.96,.39-1.61,.67-1.47,.58-3.49,1.39-5.97,2.37-5.04,1.98-12.01,4.72-19.74,7.67-7.73,2.96-14.77,5.52-19.89,7.29-2.56,.89-4.64,1.58-6.09,2.04-.68,.21-1.23,.39-1.67,.52-.38,.11-.59,.17-.59,.15,0-.02,.19-.1,.56-.25,.43-.16,.97-.36,1.63-.61,1.49-.54,3.53-1.29,6.03-2.2,5.09-1.85,12.11-4.47,19.83-7.43,7.7-2.93,14.67-5.58,19.79-7.53,2.5-.92,4.54-1.67,6.03-2.21,.67-.23,1.22-.43,1.65-.57,.38-.13,.58-.18,.59-.17Z" style="fill:#263238;"></path><path d="M303.79,236.11s-.07-.08-.19-.25c-.13-.19-.29-.44-.5-.76-.45-.7-1.08-1.68-1.88-2.93-1.6-2.57-3.87-6.31-6.52-11.03-5.28-9.43-11.99-22.85-17.6-38.39-2.82-7.76-5.1-15.31-6.87-22.24-.47-1.73-.86-3.43-1.24-5.08-.38-1.65-.74-3.25-1.1-4.8-.69-3.1-1.35-5.99-1.91-8.64-1.13-5.29-1.83-9.62-2.17-12.63-.18-1.5-.28-2.67-.34-3.47-.02-.37-.04-.67-.06-.9,0-.2-.01-.31,0-.31,0,0,.03,.1,.05,.3l.11,.9c.09,.79,.22,1.96,.43,3.45,.4,2.99,1.16,7.3,2.33,12.57,.6,2.64,1.26,5.52,1.97,8.62,.36,1.55,.74,3.15,1.12,4.79,.39,1.65,.79,3.34,1.26,5.06,1.8,6.91,4.08,14.43,6.89,22.18,5.6,15.51,12.24,28.93,17.43,38.39,2.6,4.73,4.82,8.5,6.37,11.1,.76,1.27,1.37,2.27,1.79,2.98,.19,.32,.34,.58,.46,.78,.1,.18,.15,.27,.14,.28Z" style="fill:#263238;"></path></g></g><g id="freepik--Social_media_icon--inject-93"><g><path d="M197.37,118.75h0c-14.35,0-25.98-11.63-25.98-25.98h0c0-14.35,11.63-25.98,25.98-25.98h0c14.35,0,25.98,11.63,25.98,25.98h0c0,14.35-11.63,25.98-25.98,25.98Z" style="fill:#455a64;"></path><g><path d="M197.37,81.09c3.8,0,4.25,.01,5.76,.08,1.39,.06,2.14,.3,2.65,.49,.66,.26,1.14,.57,1.64,1.07,.5,.5,.81,.97,1.07,1.64,.2,.5,.43,1.26,.49,2.65,.07,1.5,.08,1.95,.08,5.76s-.01,4.25-.08,5.76c-.06,1.39-.3,2.14-.49,2.65-.26,.67-.57,1.14-1.07,1.64-.5,.5-.97,.81-1.64,1.07-.5,.2-1.26,.43-2.65,.49-1.5,.07-1.95,.08-5.76,.08s-4.25-.01-5.76-.08c-1.39-.06-2.14-.3-2.65-.49-.66-.26-1.14-.57-1.64-1.07-.5-.5-.81-.97-1.07-1.64-.19-.5-.43-1.26-.49-2.65-.07-1.5-.08-1.95-.08-5.76s.01-4.25,.08-5.76c.06-1.39,.3-2.14,.49-2.65,.26-.66,.57-1.14,1.07-1.64,.5-.5,.97-.81,1.64-1.07,.5-.2,1.26-.43,2.65-.49,1.5-.07,1.95-.08,5.76-.08m0-2.57c-3.87,0-4.35,.02-5.87,.09-1.52,.07-2.55,.31-3.46,.66-.94,.36-1.73,.85-2.52,1.64-.79,.79-1.28,1.59-1.64,2.52-.35,.91-.59,1.94-.66,3.46-.07,1.52-.09,2-.09,5.87s.02,4.35,.09,5.87c.07,1.52,.31,2.55,.66,3.46,.36,.94,.85,1.73,1.64,2.52,.79,.79,1.59,1.28,2.52,1.64,.91,.35,1.94,.59,3.46,.66,1.52,.07,2,.09,5.87,.09s4.35-.02,5.87-.09c1.52-.07,2.55-.31,3.46-.66,.94-.36,1.73-.85,2.52-1.64,.79-.79,1.28-1.59,1.64-2.52,.35-.91,.59-1.94,.66-3.46,.07-1.52,.09-2,.09-5.87s-.02-4.35-.09-5.87c-.07-1.52-.31-2.55-.66-3.46-.36-.94-.85-1.73-1.64-2.52-.79-.79-1.59-1.28-2.52-1.64-.91-.35-1.94-.59-3.46-.66-1.52-.07-2-.09-5.87-.09" style="fill:#fff;"></path><path d="M197.37,85.45c-4.04,0-7.32,3.28-7.32,7.32s3.28,7.32,7.32,7.32,7.32-3.28,7.32-7.32-3.28-7.32-7.32-7.32m0,12.06c-2.62,0-4.75-2.13-4.75-4.75s2.13-4.75,4.75-4.75,4.75,2.13,4.75,4.75-2.13,4.75-4.75,4.75" style="fill:#fff;"></path><path d="M206.69,85.16c0,.94-.77,1.71-1.71,1.71s-1.71-.77-1.71-1.71,.77-1.71,1.71-1.71,1.71,.77,1.71,1.71" style="fill:#fff;"></path></g></g></g><g id="freepik--Video_Icon--inject-93"><path d="M288.96,299.78l-6.28-13.57c-1.15-2.48,.82-5.28,3.55-5.03l14.89,1.35,14.89,1.35c2.73,.25,4.16,3.35,2.58,5.59l-8.62,12.22-8.62,12.22c-1.58,2.24-4.98,1.93-6.13-.56l-6.28-13.57Z" style="opacity:.1;"></path><path d="M281.13,291.95l-6.28-13.57c-1.15-2.48,.82-5.28,3.55-5.03l14.89,1.35,14.89,1.35c2.73,.25,4.16,3.35,2.58,5.59l-8.62,12.22-8.62,12.22c-1.58,2.24-4.98,1.93-6.13-.56l-6.28-13.57Z" style="fill:#455a64;"></path></g><g id="freepik--Envelope--inject-93"><g><rect x="27.44" y="227.51" width="66.74" height="48.69" rx="3.25" ry="3.25" transform="translate(64.38 -7.21) rotate(14.36)" style="fill:#B51F32;"></rect><g><path d="M94.96,241.13s-.23,.14-.69,.36c-.5,.23-1.17,.54-2.01,.93-1.8,.81-4.32,1.94-7.41,3.32-3.15,1.39-6.88,3.04-11.02,4.87-2.08,.91-4.26,1.87-6.52,2.86-1.13,.49-2.28,1-3.45,1.51-1.22,.53-2.63,.66-3.96,.34-1.33-.32-2.53-1.08-3.36-2.11-.78-1.01-1.55-2.01-2.3-2.99-1.5-1.96-2.94-3.85-4.32-5.65-2.74-3.6-5.21-6.85-7.29-9.59-2.04-2.71-3.69-4.92-4.88-6.49-.54-.74-.98-1.33-1.31-1.78-.29-.41-.44-.63-.43-.64,.01-.01,.19,.19,.51,.58,.35,.43,.81,1.01,1.38,1.72,1.22,1.55,2.92,3.73,5.01,6.39,2.11,2.73,4.61,5.95,7.38,9.53,1.39,1.8,2.84,3.68,4.34,5.64,.75,.97,1.52,1.97,2.3,2.97,.77,.94,1.87,1.64,3.09,1.93,2.52,.72,4.8-.95,7.08-1.81,2.26-.98,4.45-1.93,6.53-2.83,4.15-1.79,7.9-3.4,11.07-4.76,3.12-1.32,5.66-2.4,7.48-3.17,.85-.35,1.53-.63,2.04-.84,.47-.19,.72-.28,.73-.26Z" style="fill:#263238;"></path><path d="M53.08,248.27c.07,.13-5.38,3.31-12.17,7.11-6.8,3.8-12.36,6.78-12.43,6.66-.07-.13,5.38-3.31,12.18-7.11,6.79-3.8,12.36-6.78,12.43-6.66Z" style="fill:#263238;"></path><path d="M69.08,252.37c.13-.07,3.31,5.38,7.11,12.17,3.8,6.8,6.78,12.36,6.66,12.43-.13,.07-3.31-5.38-7.11-12.18-3.8-6.79-6.78-12.36-6.66-12.43Z" style="fill:#263238;"></path></g></g></g><g id="freepik--Character--inject-93"><g><path d="M314,349.91l-6.19,.27-22.27,48.34-35.22,17.56,1.68,18.13s43.36-8,54.17-14.05c10.81-6.05,24.59-45.36,24.59-45.36,.07,.28-14.65-24.87-14.65-24.87" style="fill:#ffbf9d;"></path><g><path d="M252.38,394.09l-4.51-4.75c-.87-.56-1.89-.84-2.92-.81l-14.3,.43c-2.7,.27-5.13,1.74-6.62,4.01l-5.2,8.85s-3.5,6.06-3.05,7.53c.67,2.22,3.02,1.77,3.02,1.77,0,0,.5,2.8,1.43,3.37,1.56,.95,3.47,.22,3.47,.22,.52,1.07,1.63,1.79,2.82,1.7,.24-.02,.49-.06,.74-.14,1.7-.51,2.46-3.8,2.46-3.8l7.25-1.34s10.41,6.96,14.09,11.53c3.67,4.56,13.29,1.08,13.29,1.08l3.6-17.2-15.56-12.45Z" style="fill:#ffbf9d;"></path><path d="M241.84,396.15c.01,.1-1.15,.32-3.13,.52-1.97,.22-4.76,.3-7.9,.71l.34-.25c-.51,1.12-1.14,2.28-1.86,3.42-2.22,3.55-4.84,6.32-6.88,8.14-2.05,1.81-3.53,2.65-3.59,2.56-.08-.11,1.25-1.13,3.15-3.03,1.89-1.9,4.38-4.68,6.55-8.15,.7-1.12,1.32-2.24,1.83-3.31l.11-.22,.23-.03c3.23-.36,6.01-.33,7.98-.39,1.97-.04,3.15-.08,3.16,.03Z" style="fill:#ff9a6c;"></path><path d="M242.17,402.97c.02,.09-.96,.46-2.69,.72-1.73,.25-4.22,.33-7-.24l.51-.29c-.29,.85-.63,1.72-1.04,2.59-1.51,3.17-3.64,5.59-5.38,7.06-1.74,1.48-3.02,2.1-3.07,2.01-.08-.12,1.06-.92,2.64-2.48,1.58-1.55,3.54-3.94,5-6.98,.4-.84,.73-1.68,1.03-2.49l.13-.37,.38,.08c5.35,1.19,9.48,.12,9.51,.39Z" style="fill:#ff9a6c;"></path><g><path d="M260.32,406.5c-4.25-1.98-8.5-3.95-12.76-5.93-1.77-.82-3.61-1.66-5.55-1.65-2.1,0-4.05,1-5.91,1.96-2.29,1.18-4.58,2.37-6.86,3.55-.37,.19-.78,.42-.91,.82-.17,.52,.21,1.06,.59,1.45,3.43,3.47,9.59,3.72,13.29,.54,1.1,3,2.24,6.06,4.3,8.49,2.06,2.44,5.27,4.16,8.41,3.58" style="fill:#ffbf9d;"></path><path d="M254.92,419.32s-.11,.06-.34,.11c-.23,.06-.58,.1-1.04,.12-.91,.02-2.3-.15-3.84-.93-1.53-.76-3.2-2.14-4.52-4.12-1.35-1.97-2.35-4.45-3.34-7.12l.64,.17c-1.88,1.66-4.62,2.54-7.43,2.32-1.4-.1-2.83-.48-4.14-1.16-.64-.36-1.28-.76-1.84-1.27-.28-.26-.57-.49-.82-.84-.24-.33-.5-.81-.36-1.39,.11-.47,.48-.77,.76-.95,.3-.19,.56-.31,.83-.45,.53-.28,1.06-.55,1.59-.82,1.05-.54,2.09-1.08,3.11-1.6,2.04-1.01,3.97-2.2,6.15-2.68,2.2-.53,4.36,.15,6.05,.92,1.73,.79,3.28,1.55,4.72,2.24,2.76,1.35,5.04,2.46,6.79,3.31,1.59,.8,2.46,1.27,2.44,1.33-.03,.06-.95-.31-2.59-1.01-1.78-.79-4.1-1.81-6.91-3.05-1.47-.66-3.05-1.37-4.75-2.13-1.69-.72-3.61-1.29-5.58-.79-1.97,.45-3.87,1.62-5.92,2.65-1.02,.53-2.05,1.07-3.11,1.62-.53,.27-1.06,.55-1.59,.82-.54,.28-1.11,.55-1.13,.82-.11,.33,.38,.92,.91,1.34,.5,.46,1.08,.83,1.66,1.16,1.19,.62,2.5,.97,3.79,1.08,2.58,.22,5.11-.58,6.84-2.06l.44-.38,.19,.55c.95,2.68,1.89,5.11,3.14,7.03,1.22,1.93,2.75,3.27,4.19,4.07,2.94,1.61,5.03,.96,5,1.12Z" style="fill:#ff9a6c;"></path></g></g><g><path d="M431.24,244.95c.78-9.7,2.96-19.28,3.25-29.01,.29-9.73-1.58-20.01-7.88-27.43-6.3-7.42-17.88-10.88-26.18-5.8l-2.19,8.15c.58,37.66-2.43,75.68-1.85,113.34,.08,4.95,3.77,9.67,5.7,14.22,1.94,4.55,6.18,8.49,11.13,8.52,6.47,.04,11.15-6.21,13.57-12.21,8.78-21.76,2.58-46.4,4.45-69.79Z" style="fill:#263238;"></path><path d="M411.3,193.01c-1.25-2.5-2.53-5.03-4.48-7.03-1.95-2-4.7-3.41-7.47-3.07-1.3,.16-2.66,.8-3.18,2.01-.52,1.21,.3,2.92,1.61,2.9l.26,.26c2.73,2.77,5.52,5.49,8.36,8.14,.71,.67,1.46,1.35,2.37,1.7,.92,.35,2.06,.29,2.75-.39,1.15-1.14,.5-3.07-.23-4.52Z" style="fill:#B51F32;"></path><path d="M416.14,202.91c-8.88-12.49-21.41-20.18-36.68-21.47-8.61-.73-12.3,.82-18.62,2.08-6.32,1.25-12.15,4.2-16.21,9.21-4.82,5.95-8.99,12.69-10.34,20.22-1.38,7.74-1.31,15.41-.25,21.8,1.28,7.76,5.73,19.79,9.91,26.45l13.12,2.51c10.97,1.12,22.09,2.24,32.97,.46,10.88-1.78,21.68-6.84,28.05-15.84,8.85-12.5,6.92-32.94-1.96-45.42Z" style="fill:#263238;"></path><g><path d="M398.43,201.58l-25.82-12.35-6.99,.34c-15.6-1-27.53,15.47-28.49,28.1-1.07,14.03-1.81,31.2-.29,41.7,3.07,21.11,20.71,24.05,20.71,24.05,0,0-1.12,11.06-1.72,18.04l40.83-.18,8.3-92.09c.13-3.85-2.71-7.15-6.53-7.6Z" style="fill:#ffbf9d;"></path><path d="M368.38,256.61c-.07-1.11-.61-2.12-1.35-2.84-1.46-1.44-3.73-1.72-5.47-.69-1.74,1.04-2.85,3.33-2.69,5.54h0c.85,1.35,2.22,2.31,3.79,2.56,.24,.04,.49,.06,.74,.07,1.2,.05,2.45-.27,3.42-1.09,.98-.82,1.64-2.18,1.55-3.55Z" style="fill:#ff9a6c;"></path><g><path d="M341.52,236.85c-.07,1.43,1.08,2.66,2.57,2.76,1.48,.1,2.75-.97,2.82-2.4,.07-1.43-1.08-2.66-2.57-2.76-1.49-.1-2.75,.98-2.82,2.4Z" style="fill:#263238;"></path><path d="M341.41,225.01c.33,.36,2.4-1.13,5.3-1.09,2.9,0,5.02,1.53,5.34,1.17,.16-.16-.18-.8-1.1-1.48-.91-.69-2.46-1.36-4.27-1.38-1.81-.01-3.34,.63-4.23,1.3-.9,.67-1.21,1.31-1.05,1.47Z" style="fill:#263238;"></path><path d="M358.48,248.99c.02-.16-1.79-.5-4.71-.91-.74-.09-1.44-.24-1.56-.75-.17-.54,.15-1.33,.52-2.19,.72-1.79,1.48-3.66,2.27-5.63,3.15-8.01,5.45-14.6,5.12-14.72-.32-.12-3.14,6.27-6.3,14.28-.76,1.98-1.49,3.86-2.18,5.66-.29,.84-.79,1.79-.42,2.91,.19,.56,.73,.97,1.21,1.1,.47,.15,.89,.16,1.26,.19,2.94,.2,4.77,.23,4.79,.07Z" style="fill:#263238;"></path><path d="M357.52,283.39s14.16,1.1,28.31-7.16c0,0-7.71,14.51-28.77,12.26l.45-5.1Z" style="fill:#ff9a6c;"></path><path d="M367.01,251.11c-.47-.03-.52,3.12-3.25,5.33-2.72,2.21-6.08,1.81-6.11,2.25-.05,.2,.74,.62,2.16,.68,1.39,.07,3.43-.36,5.1-1.7,1.67-1.35,2.4-3.18,2.52-4.47,.14-1.32-.2-2.1-.42-2.09Z" style="fill:#263238;"></path><path d="M343.08,214.93c.48,.72,2.71,.27,5.31,.52,2.61,.17,4.74,.96,5.32,.33,.26-.31-.02-1-.91-1.73-.88-.72-2.41-1.4-4.2-1.54-1.79-.14-3.4,.28-4.37,.86-.99,.58-1.37,1.22-1.16,1.57Z" style="fill:#263238;"></path><path d="M371.19,237.63c-.02,1.43-1.25,2.59-2.74,2.59-1.49,0-2.68-1.14-2.66-2.57,.02-1.43,1.25-2.59,2.74-2.59,1.49,0,2.68,1.15,2.66,2.57Z" style="fill:#263238;"></path><path d="M380.68,226.55c-.35,.33-2.32-1.28-5.23-1.42-2.9-.18-5.11,1.21-5.4,.83-.15-.17,.23-.78,1.19-1.41,.95-.63,2.54-1.2,4.35-1.1,1.81,.1,3.3,.84,4.14,1.57,.86,.73,1.13,1.38,.96,1.53Z" style="fill:#263238;"></path><path d="M379.57,217.15c-.6,.63-2.81-.17-5.5-.33-2.69-.25-5,.19-5.49-.52-.21-.35,.18-.99,1.21-1.56,1.01-.57,2.68-1,4.53-.86,1.85,.15,3.42,.82,4.32,1.55,.92,.73,1.2,1.42,.93,1.73Z" style="fill:#263238;"></path></g><g><path d="M398.96,244.21c.02-1.57,1.89-5.24,3.44-5.47,4.15-.59,11.6-.16,11.53,10.35-.09,14.36-14.49,11.31-14.52,10.9-.02-.32-.54-10.36-.45-15.78Z" style="fill:#ffbf9d;"></path><path d="M403.41,254.76c.06-.05,.25,.18,.67,.37,.41,.19,1.12,.33,1.87,.05,1.52-.55,2.81-2.95,2.9-5.54,.05-1.31-.22-2.55-.68-3.59-.43-1.05-1.11-1.79-1.87-1.93-.76-.18-1.3,.27-1.48,.68-.2,.4-.11,.69-.18,.71-.04,.04-.31-.24-.19-.83,.06-.29,.23-.62,.57-.9,.35-.28,.85-.42,1.39-.36,1.11,.08,2.1,1.11,2.6,2.24,.56,1.14,.89,2.54,.84,4.01-.11,2.89-1.61,5.59-3.69,6.18-1.01,.26-1.85-.05-2.29-.4-.44-.36-.52-.68-.47-.7Z" style="fill:#ff9a6c;"></path></g></g><path d="M402.98,238.82l-3.89,3.52c-14.68-16.09-42.8-55.79-41.24-53.43,0,0,11.05-3.69,22.59-.91,11.54,2.78,33.28,10.12,32,23.87-1.27,13.74-9.46,26.95-9.46,26.95Z" style="fill:#263238;"></path><path d="M423.98,237.08s-.03-.29-.16-.84c-.13-.55-.39-1.34-.82-2.32-.87-1.95-2.6-4.63-5.52-7.13-2.88-2.56-6.95-4.77-11.64-6.61-4.68-1.88-9.99-3.46-15.13-6.09-5.18-2.55-9.74-5.69-13.6-8.88-3.84-3.21-6.97-6.48-9.38-9.4-2.42-2.92-4.14-5.46-5.3-7.24-.53-.84-.96-1.53-1.3-2.07-.3-.47-.47-.71-.49-.7-.02,.01,.1,.28,.36,.77,.27,.49,.64,1.23,1.19,2.15,1.09,1.83,2.76,4.43,5.14,7.41,2.38,2.98,5.5,6.32,9.35,9.59,3.87,3.24,8.47,6.44,13.7,9.01,5.21,2.67,10.56,4.23,15.21,6.07,4.67,1.79,8.69,3.91,11.56,6.37,2.91,2.41,4.67,4.98,5.6,6.86,.93,1.9,1.17,3.06,1.24,3.04Z" style="fill:#455a64;"></path><path d="M419.67,239.05s.22-1.16-.34-3.16c-.54-1.99-2.05-4.74-4.92-7.1-2.84-2.43-7.01-4.1-11.62-5.49-4.64-1.36-9.65-3.03-14.51-5.71-4.86-2.66-9.16-5.78-12.67-9.06-3.53-3.26-6.33-6.58-8.46-9.53-2.16-2.93-3.57-5.53-4.58-7.29-.44-.85-.79-1.54-1.08-2.09-.25-.47-.4-.72-.42-.71-.02,.01,.08,.28,.29,.77,.25,.57,.57,1.28,.96,2.15,.94,1.81,2.29,4.47,4.41,7.46,2.1,3.01,4.88,6.4,8.42,9.72,3.52,3.34,7.87,6.52,12.78,9.21,4.91,2.71,10.04,4.4,14.67,5.72,4.61,1.35,8.7,2.93,11.49,5.24,2.83,2.25,4.37,4.87,4.97,6.78,.64,1.92,.52,3.09,.62,3.08Z" style="fill:#455a64;"></path><path d="M400.87,263.01c0-.1,1.23-.17,3.38-.58,2.14-.44,5.21-1.53,8.31-3.93,3.13-2.36,6.02-6.17,8.21-10.87,2.18-4.71,3.67-10.32,4.22-16.29,.26-2.99,.23-5.92-.1-8.72-.37-2.8-1.02-5.45-1.85-7.91-1.72-4.91-4.18-8.97-6.63-12.04-4.93-6.19-9.21-8.83-9.03-9.02,.02-.03,.28,.13,.76,.47,.47,.34,1.21,.81,2.07,1.52,1.75,1.37,4.18,3.54,6.72,6.62,2.55,3.07,5.12,7.17,6.93,12.17,.87,2.51,1.55,5.22,1.94,8.09,.35,2.87,.39,5.88,.13,8.93-.56,6.08-2.11,11.78-4.38,16.58-2.27,4.79-5.31,8.67-8.59,11.03-3.25,2.41-6.44,3.42-8.65,3.76-1.1,.23-1.98,.17-2.56,.23-.59,.03-.89,.02-.89-.01Z" style="fill:#455a64;"></path></g><g><g><polygon points="356.15 296.51 396.68 292.13 404.1 298.88 375.17 315.89 362.4 322.5 349.8 318.67 345.8 311.16 356.15 296.51" style="fill:#ffbf9d;"></polygon><g><path d="M301.53,345.85s12.7-24.38,15.85-29.71c5.36-9.08,15.36-14.22,15.36-14.22l23.41-5.42s-2.43,11.73,12.14,12.54c18.53,1.03,30.04-16.74,30.04-16.74,0,0,21.14,2.18,26.98,4.63,5.84,2.45,22.35,9.36,24.78,31.32l5.66,35.85-44.67,3.4,.62,47.73,21.98,37.6h-107.81c1.69,.45,7.63-24.66,3.73-44.5l-7.36-17.86c-2.94-7.15-4.77-14.73-5.21-22.45-.29-5.08-.15-8.93-.15-8.93,0,0-11.46-3.94-15.36-13.25Z" style="fill:#B51F32;"></path><g><path d="M336.72,432.02l74.89-22.48-.53-42.03,38.14-2.91s-3.04,21.78-3.49,32.94c-.64,16.06-8.37,38.51-13.53,43.27-5.17,4.77-97.46,9.94-97.46,9.94l1.99-18.75Z" style="fill:#ffbf9d;"></path><path d="M294.25,445.24c.62,1.02,1.79,1.63,2.96,1.43,.23-.04,.48-.11,.73-.21,1.64-.67,1.22-4.09,1.22-4.09l7.97-1.94s11.02,5.96,15.1,10.15c4.08,4.2,13.33-.17,13.33-.17l1.97-17.46-15.9-12.29s.97,.73-.24-1.7c-1.22-2.43-5.81-1.12-5.81-1.12-.82-1.19-3.91-1.4-3.91-1.4l-12.92,2.51c-2.66,.52-4.95,2.21-6.21,4.61l-4.84,9.15s-2.42,6.51-1.84,7.93c.88,2.15,3.17,1.48,3.17,1.48,0,0,.96,4.08,2.06,4.14,1.1,.06,3.17-1.02,3.17-1.02h0Z" style="fill:#ffbf9d;"></path><path d="M321.03,430.73c0,.14-1.75,.11-4.52,.45-2.77,.35-6.57,1.14-10.48,2.81-1.95,.83-3.74,1.79-5.3,2.77-1.51,1.01-3.09,1.86-3.51,3.05-.21,.58-.05,1.14,.26,1.54,.31,.4,.7,.65,1.05,.76,.71,.23,1.13,0,1.16,.08,.03,.02-.38,.39-1.24,.23-.42-.08-.91-.31-1.33-.77-.42-.43-.71-1.24-.47-2.02,.22-.78,.83-1.42,1.48-1.96,.67-.52,1.38-1.05,2.17-1.56,1.57-1.04,3.39-2.04,5.39-2.89,4-1.72,7.93-2.43,10.75-2.63,2.84-.19,4.59,.05,4.58,.14Z" style="fill:#ff9a6c;"></path><path d="M322.59,438.97c0,.25-5.32,.44-11.8,1.32-6.49,.86-11.67,2.09-11.73,1.85-.03-.11,1.24-.55,3.33-1.09,2.09-.54,5.02-1.15,8.29-1.59,3.27-.44,6.26-.63,8.42-.66,2.16-.04,3.5,.06,3.5,.17Z" style="fill:#ff9a6c;"></path><path d="M294.3,444.9s-.14-.48-.27-1.38c-.12-.89-.28-2.19-.3-3.82,0-.81,.01-1.71,.16-2.67,.13-.97,.51-2.01,1.06-2.94,1.04-1.87,2.53-3.84,4.5-5.38,1.96-1.53,3.94-2.84,5.99-3.63,2.03-.79,3.96-1.1,5.56-1.29,1.61-.18,2.91-.25,3.81-.28,.9-.03,1.4-.02,1.4,.03,.02,.13-1.97,.35-5.13,.83-1.57,.27-3.44,.63-5.36,1.42-1.91,.78-3.85,2.09-5.75,3.57-1.9,1.5-3.29,3.3-4.36,5.12-1.13,1.74-1.22,3.65-1.29,5.23-.07,3.18,.17,5.18-.01,5.19Z" style="fill:#ff9a6c;"></path><path d="M311.29,419.8c.01,.12-1.94,.33-5.02,.93-2.96,.69-7.75,1.28-10.16,5.63-2.67,3.99-4.91,7.73-5.79,10.73-.94,2.98-.68,4.98-.86,4.97-.04,0-.16-.48-.18-1.38-.03-.89,.06-2.21,.47-3.76,.76-3.15,2.98-7.03,5.66-11.04,.69-1.01,1.44-1.97,2.34-2.76,.89-.8,1.96-1.31,2.95-1.68,2.01-.74,3.89-1.06,5.46-1.31,3.15-.46,5.12-.45,5.12-.35Z" style="fill:#ff9a6c;"></path><path d="M319.17,448.03s-.3-.16-.82-.53c-.59-.41-1.36-.93-2.32-1.58-2.04-1.34-5.07-3.24-9.02-5.24l.19,.02c-2.38,.6-5.06,1.27-7.96,2l.25-.36c.07,.66,.08,1.3,0,1.98-.08,.67-.24,1.39-.76,2.01-.27,.3-.69,.5-1.03,.57-.35,.12-.74,.19-1.13,.15-.78-.05-1.53-.4-2.09-.96-.14-.14-.27-.29-.39-.45l-.08-.12-.04-.06-.02-.03h0c-.11-.04,.93,.25,.49,.13h-.02l-.25,.14c-.33,.16-.67,.31-1.01,.45-.35,.14-.7,.26-1.08,.36-.19,.05-.38,.09-.59,.11-.2,.02-.43,.05-.76-.09-.48-.29-.67-.66-.87-1.01-.19-.35-.35-.71-.49-1.08-.28-.73-.5-1.47-.7-2.24l.5,.29c-1.03,.27-2.29,.11-3.09-.79-.36-.42-.67-.95-.68-1.58-.02-.57,.07-1.07,.16-1.58,.41-2.02,1.06-3.98,1.78-5.98v-.02l.02-.03c.82-1.56,1.69-3.21,2.58-4.88,.55-1.04,1.09-2.07,1.64-3.09,.55-.99,1.02-2.1,1.82-3.02,.77-.91,1.73-1.65,2.77-2.17,1.04-.55,2.23-.76,3.27-.95,4.28-.82,8.36-1.6,12.18-2.33h.1c.77,.06,1.48,.19,2.2,.39,.7,.22,1.44,.47,1.97,1.16l-.46-.11c1.34-.67,2.93-.8,4.2-.09,1.28,.7,1.93,1.95,2.33,3.14l-.11-.16c4.56,3.51,8.29,6.37,10.95,8.42,1.23,.97,2.21,1.74,2.96,2.33,.67,.54,1.01,.84,1,.86-.02,.02-.4-.22-1.1-.72-.77-.55-1.78-1.28-3.05-2.2-2.7-1.99-6.48-4.78-11.12-8.2l-.07-.06-.04-.11c-.36-1.05-1-2.18-2.05-2.72-1.02-.58-2.42-.45-3.54,.12l-.28,.14-.19-.25c-.31-.41-.96-.69-1.6-.87-.65-.18-1.35-.3-2.05-.36h.1c-3.81,.75-7.89,1.55-12.17,2.39-1.09,.21-2.11,.39-3.06,.89-.95,.47-1.81,1.14-2.51,1.97-.71,.8-1.16,1.84-1.72,2.87-.54,1.02-1.09,2.06-1.63,3.09-.88,1.67-1.76,3.32-2.58,4.88l.02-.05c-.7,1.95-1.36,3.91-1.75,5.84-.09,.48-.17,.97-.16,1.4-.01,.37,.2,.76,.47,1.08,.52,.63,1.48,.76,2.26,.57l.4-.1,.1,.39c.18,.73,.39,1.46,.65,2.15,.25,.65,.6,1.44,.98,1.68,.02,0,.16,.04,.33,.01,.16-.01,.32-.05,.49-.09,.33-.08,.66-.2,.99-.32,.33-.13,.65-.27,.96-.42l.23-.11h.02c-.44-.13,.6,.15,.49,.13h0l.02,.03,.03,.05,.06,.1c.09,.13,.19,.25,.3,.36,.44,.44,1.03,.72,1.62,.76,.3,.03,.59-.02,.88-.12,.32-.07,.53-.18,.71-.37,.71-.86,.71-2.3,.62-3.44l-.02-.3,.27-.06c2.91-.69,5.6-1.32,7.98-1.89l.1-.02,.09,.05c3.96,2.09,6.95,4.06,8.95,5.48,1,.72,1.75,1.3,2.24,1.71,.49,.41,.74,.63,.73,.65Z" style="fill:#ff9a6c;"></path></g></g></g><g><path d="M200.41,450.09l-28.31-74.34c-1.07-2.8,1-5.8,3.99-5.8h90.9c1.66,0,3.17,.96,3.87,2.46l27.22,70.91,57.1,.97c2.36,0,4.27,1.91,4.27,4.27h0c0,2.36-1.91,4.27-4.27,4.27H204.4c-1.77,0-3.36-1.1-3.99-2.75Z" style="fill:#455a64;"></path><path d="M238.88,411.4c0,3.29-2.67,5.96-5.96,5.96s-5.96-2.67-5.96-5.96,2.67-5.96,5.96-5.96,5.96,2.67,5.96,5.96Z" style="fill:#fff;"></path></g><path d="M328.45,318.92c.13,.07-1.08,2.34-2.79,6.13-1.71,3.78-3.82,9.12-5.53,15.21-1.69,6.1-2.65,11.76-3.15,15.88-.5,4.12-.64,6.69-.79,6.69-.06,0-.09-.65-.09-1.81,0-1.17,.07-2.86,.24-4.94,.34-4.16,1.2-9.9,2.91-16.05,1.72-6.15,3.95-11.5,5.82-15.24,.93-1.87,1.74-3.35,2.35-4.35,.6-1,.96-1.54,1.02-1.51Z" style="fill:#263238;"></path><path d="M455.75,364.11s-.32,.08-.92,.14c-.69,.07-1.58,.16-2.68,.26-2.44,.2-5.82,.49-10.01,.84-8.63,.65-20.56,1.55-34.24,2.58l-.44,.03-.03-.44c-.29-4.55-.59-9.35-.9-14.28-.49-8.6-.9-16.79-1.03-24.25-.39-7.51,1.45-14.36,4.39-19.23,2.91-4.95,6.78-7.82,9.6-9.22,1.44-.68,2.59-1.13,3.4-1.32,.8-.23,1.23-.33,1.23-.3,.04,.12-1.7,.47-4.47,1.93-2.73,1.48-6.43,4.36-9.21,9.23-2.81,4.82-4.54,11.47-4.11,18.89,.18,7.44,.62,15.63,1.1,24.22,.3,4.93,.6,9.73,.88,14.27l-.47-.41c13.68-.9,25.62-1.69,34.26-2.27,4.2-.24,7.58-.44,10.03-.58,1.11-.05,2-.09,2.69-.12,.61-.02,.93-.01,.94,.01Z" style="fill:#263238;"></path><path d="M371.77,393.31c-.03,.06-.55-.14-1.5-.55-.48-.2-1.05-.46-1.67-.84-.63-.37-1.38-.75-2.12-1.3-1.54-1.01-3.23-2.43-4.93-4.18-1.66-1.79-3.31-3.92-4.72-6.36-1.38-2.46-2.37-4.97-3.05-7.32-.63-2.36-.99-4.54-1.07-6.38-.1-.92-.04-1.75-.03-2.48,0-.73,.06-1.36,.14-1.87,.13-1.02,.23-1.57,.29-1.57,.18,.02-.11,2.27,.24,5.86,.16,1.8,.58,3.91,1.24,6.2,.71,2.27,1.7,4.7,3.04,7.1,1.37,2.38,2.96,4.47,4.55,6.24,1.63,1.74,3.23,3.17,4.69,4.23,2.91,2.14,4.99,3.04,4.92,3.21Z" style="fill:#263238;"></path></g></g></g></svg>
