
    <svg xmlns="http://www.w3.org/2000/svg"
         width="800" height="600"
         viewBox="0 0 800 600">
      <polyline points="113.51666259765625 62.600006103515625 114.51666259765625 63.600006103515625 114.51666259765625 65.60000610351562 113.51666259765625 68.60000610351562 112.51666259765625 72.60000610351562 110.51666259765625 76.60000610351562 108.51666259765625 80.60000610351562 106.51666259765625 87.60000610351562 105.51666259765625 93.60000610351562 104.51666259765625 103.60000610351562 102.51666259765625 111.60000610351562 102.51666259765625 119.60000610351562 103.51666259765625 127.60000610351562 107.51666259765625 141.60000610351562 112.51666259765625 150.60000610351562 120.51666259765625 160.60000610351562 127.51666259765625 165.60000610351562 136.51666259765625 170.60000610351562 145.51666259765625 174.60000610351562 159.51666259765625 177.60000610351562 170.51666259765625 177.60000610351562 186.51666259765625 177.60000610351562 195.51666259765625 176.60000610351562 203.51666259765625 171.60000610351562 210.51666259765625 166.60000610351562 212.51666259765625 164.60000610351562 216.51666259765625 158.60000610351562 217.51666259765625 152.60000610351562 218.51666259765625 145.60000610351562 218.51666259765625 140.60000610351562 218.51666259765625 133.60000610351562 217.51666259765625 130.60000610351562 216.51666259765625 127.60000610351562 212.51666259765625 122.60000610351562 210.51666259765625 118.60000610351562 208.51666259765625 114.60000610351562 204.51666259765625 110.60000610351562 204.51666259765625 108.60000610351562 200.51666259765625 104.60000610351562 197.51666259765625 101.60000610351562 193.51666259765625 99.60000610351562 191.51666259765625 97.60000610351562 188.51666259765625 96.60000610351562 187.51666259765625 95.60000610351562 186.51666259765625 95.60000610351562 186.51666259765625 94.60000610351562 186.51666259765625 93.60000610351562 187.51666259765625 90.60000610351562 188.51666259765625 85.60000610351562 189.51666259765625 82.60000610351562 191.51666259765625 77.60000610351562 191.51666259765625 73.60000610351562 191.51666259765625 69.60000610351562 191.51666259765625 66.60000610351562 191.51666259765625 64.60000610351562 191.51666259765625 62.600006103515625 191.51666259765625 61.600006103515625 192.51666259765625 59.600006103515625 192.51666259765625 58.600006103515625 196.51666259765625 54.600006103515625 199.51666259765625 53.600006103515625 207.51666259765625 49.600006103515625 210.51666259765625 48.600006103515625 216.51666259765625 45.600006103515625 223.51666259765625 43.600006103515625 229.51666259765625 41.600006103515625 232.51666259765625 40.600006103515625 240.51666259765625 36.600006103515625 244.51666259765625 34.600006103515625 247.51666259765625 34.600006103515625 252.51666259765625 34.600006103515625 256.51666259765625 33.600006103515625 258.51666259765625 33.600006103515625 260.51666259765625 33.600006103515625 263.51666259765625 33.600006103515625 264.51666259765625 33.600006103515625 265.51666259765625 33.600006103515625 267.51666259765625 33.600006103515625 268.51666259765625 37.600006103515625 272.51666259765625 45.600006103515625 274.51666259765625 50.600006103515625 278.51666259765625 68.60000610351562 279.51666259765625 74.60000610351562 279.51666259765625 88.60000610351562 279.51666259765625 100.60000610351562 279.51666259765625 111.60000610351562 279.51666259765625 121.60000610351562 280.51666259765625 134.60000610351562 282.51666259765625 143.60000610351562 283.51666259765625 150.60000610351562 284.51666259765625 153.60000610351562 284.51666259765625 158.60000610351562 285.51666259765625 163.60000610351562 287.51666259765625 166.60000610351562 287.51666259765625 168.60000610351562 287.51666259765625 169.60000610351562 287.51666259765625 170.60000610351562 287.51666259765625 171.60000610351562 287.51666259765625 172.60000610351562 287.51666259765625 173.60000610351562 286.51666259765625 173.60000610351562 284.51666259765625 175.60000610351562 281.51666259765625 176.60000610351562 275.51666259765625 178.60000610351562 268.51666259765625 180.60000610351562 257.51666259765625 181.60000610351562 246.51666259765625 184.60000610351562 234.51666259765625 184.60000610351562 218.51666259765625 185.60000610351562 201.51666259765625 189.60000610351562 193.51666259765625 191.60000610351562 176.51666259765625 195.60000610351562 164.51666259765625 199.60000610351562 152.51666259765625 203.60000610351562 142.51666259765625 206.60000610351562 133.51666259765625 209.60000610351562 128.51666259765625 210.60000610351562 124.51666259765625 212.60000610351562 123.51666259765625 213.60000610351562 122.51666259765625 213.60000610351562 121.51666259765625 212.60000610351562 120.51666259765625 209.60000610351562 119.51666259765625 207.60000610351562 117.51666259765625 205.60000610351562 116.51666259765625 202.60000610351562 114.51666259765625 199.60000610351562 112.51666259765625 197.60000610351562 111.51666259765625 194.60000610351562 110.51666259765625 192.60000610351562 109.51666259765625 189.60000610351562 108.51666259765625 187.60000610351562 108.51666259765625 182.60000610351562 105.51666259765625 177.60000610351562 101.51666259765625 169.60000610351562 98.51666259765625 161.60000610351562 95.51666259765625 154.60000610351562 93.51666259765625 151.60000610351562 92.51666259765625 149.60000610351562 92.51666259765625 148.60000610351562 92.51666259765625 145.60000610351562 92.51666259765625 144.60000610351562 92.51666259765625 142.60000610351562 91.51666259765625 141.60000610351562 90.51666259765625 141.60000610351562 89.51666259765625 141.60000610351562 88.51666259765625 141.60000610351562 88.51666259765625 141.60000610351562 86.51666259765625 141.60000610351562 85.51666259765625 141.60000610351562 85.51666259765625 140.60000610351562 84.51666259765625 137.60000610351562 82.51666259765625 135.60000610351562 80.51666259765625 128.60000610351562 77.51666259765625 121.60000610351562 74.51666259765625 116.60000610351562 72.51666259765625 110.60000610351562 70.51666259765625 105.60000610351562 70.51666259765625 103.60000610351562 68.51666259765625 99.60000610351562 68.51666259765625 97.60000610351562 67.51666259765625 93.60000610351562 66.51666259765625 91.60000610351562 66.51666259765625 90.60000610351562 66.51666259765625 89.60000610351562 65.51666259765625 89.60000610351562 65.51666259765625 88.60000610351562 68.51666259765625 86.60000610351562 72.51666259765625 85.60000610351562 74.51666259765625 84.60000610351562 76.51666259765625 82.60000610351562 80.51666259765625 81.60000610351562 83.51666259765625 80.60000610351562 85.51666259765625 79.60000610351562 87.51666259765625 78.60000610351562 91.51666259765625 77.60000610351562 92.51666259765625 76.60000610351562 94.51666259765625 75.60000610351562 96.51666259765625 73.60000610351562 98.51666259765625 73.60000610351562 100.51666259765625 70.60000610351562 101.51666259765625 69.60000610351562 101.51666259765625 68.60000610351562 103.51666259765625 65.60000610351562 103.51666259765625 64.60000610351562 103.51666259765625 62.600006103515625 103.51666259765625 61.600006103515625 103.51666259765625 61.600006103515625 103.51666259765625 60.600006103515625 103.51666259765625 57.600006103515625 103.51666259765625 57.600006103515625 104.51666259765625 56.600006103515625 104.51666259765625 55.600006103515625 104.51666259765625 54.600006103515625 104.51666259765625 53.600006103515625 105.51666259765625 53.600006103515625 106.51666259765625 53.600006103515625 108.51666259765625 53.600006103515625 109.51666259765625 53.600006103515625 110.51666259765625 53.600006103515625 111.51666259765625 53.600006103515625 112.51666259765625 53.600006103515625 113.51666259765625 53.600006103515625 114.51666259765625 53.600006103515625 115.51666259765625 53.600006103515625 116.51666259765625 53.600006103515625 116.51666259765625 53.600006103515625 116.51666259765625 55.600006103515625 116.51666259765625 57.600006103515625 115.51666259765625 57.600006103515625 115.51666259765625 60.600006103515625 115.51666259765625 61.600006103515625 114.51666259765625 62.600006103515625 112.51666259765625 63.600006103515625 112.51666259765625 64.60000610351562 112.51666259765625 65.60000610351562 112.51666259765625 65.60000610351562 112.51666259765625 66.60000610351562" 
        stroke="#000000" stroke-width="3" fill="none" 
        stroke-linecap="round" stroke-linejoin="round" /><rect x="60.51666259765625" y="201.60000610351562" width="123" height="105" 
        stroke="#000000" stroke-width="3" fill="none" /><circle cx="249.51666259765625" cy="249.60000610351562" r="277.5103601669675" 
        stroke="#000000" stroke-width="3" fill="none" /><text x="267.51666259765625" y="238.60000610351562" 
        font-size="20" font-family="Arial" 
        fill="#000000">hola mundo</text><text x="241.51666259765625" y="284.6000061035156" 
        font-size="20" font-family="Arial" 
        fill="#000000">pocoyo</text><text x="250.51666259765625" y="385.6000061035156" 
        font-size="20" font-family="Arial" 
        fill="#000000"></text>
    </svg>
  