
    <svg xmlns="http://www.w3.org/2000/svg"
         width="487" height="598"
         viewBox="0 0 487 598">
      <polyline points="180.4375 177.59999084472656 176.4375 172.59999084472656 165.4375 163.59999084472656 156.4375 149.59999084472656 154.4375 144.59999084472656 154.4375 137.59999084472656 154.4375 135.59999084472656 154.4375 131.59999084472656 160.4375 116.59999084472656 168.4375 103.59999084472656 178.4375 89.59999084472656 196.4375 69.59999084472656 207.4375 60.59999084472656 218.4375 53.59999084472656 233.4375 46.59999084472656 244.4375 44.59999084472656 256.4375 43.59999084472656 271.4375 43.59999084472656 286.4375 48.59999084472656 302.4375 53.59999084472656 320.4375 64.59999084472656 328.4375 73.59999084472656 338.4375 84.59999084472656 342.4375 91.59999084472656 344.4375 95.59999084472656 347.4375 102.59999084472656 348.4375 109.59999084472656 348.4375 128.59999084472656 345.4375 146.59999084472656 341.4375 162.59999084472656 334.4375 178.59999084472656 319.4375 201.59999084472656 307.4375 213.59999084472656 289.4375 228.59999084472656 281.4375 237.59999084472656 272.4375 245.59999084472656 264.4375 252.59999084472656 262.4375 254.59999084472656 258.4375 257.59999084472656 257.4375 258.59999084472656 256.4375 260.59999084472656 256.4375 260.59999084472656 256.4375 262.59999084472656 256.4375 272.59999084472656 256.4375 285.59999084472656 256.4375 300.59999084472656 254.4375 315.59999084472656 253.4375 321.59999084472656 252.4375 327.59999084472656 251.4375 329.59999084472656 250.4375 329.59999084472656" 
        stroke="#000000" stroke-width="3" fill="none" 
        stroke-linecap="round" stroke-linejoin="round" />
    </svg>
  