
    <svg xmlns="http://www.w3.org/2000/svg"
         width="800" height="600"
         viewBox="0 0 800 600">
      <polyline points="123.51666259765625 139.20001220703125 123.51666259765625 139.20001220703125 123.51666259765625 131.20001220703125 124.51666259765625 121.20001220703125 129.51666259765625 109.20001220703125 133.51666259765625 99.20001220703125 144.51666259765625 81.20001220703125 152.51666259765625 72.20001220703125 157.51666259765625 67.20001220703125 166.51666259765625 60.20001220703125 174.51666259765625 55.20001220703125 180.51666259765625 54.20001220703125 189.51666259765625 53.20001220703125 196.51666259765625 53.20001220703125 204.51666259765625 53.20001220703125 209.51666259765625 54.20001220703125 220.51666259765625 64.20001220703125 225.51666259765625 71.20001220703125 235.51666259765625 91.20001220703125 236.51666259765625 103.20001220703125 236.51666259765625 116.20001220703125 236.51666259765625 132.20001220703125 234.51666259765625 150.20001220703125 230.51666259765625 165.20001220703125 225.51666259765625 180.20001220703125 219.51666259765625 195.20001220703125 213.51666259765625 207.20001220703125 206.51666259765625 218.20001220703125 203.51666259765625 223.20001220703125 200.51666259765625 228.20001220703125 196.51666259765625 233.20001220703125 194.51666259765625 235.20001220703125 194.51666259765625 236.20001220703125 193.51666259765625 237.20001220703125 193.51666259765625 236.20001220703125 194.51666259765625 235.20001220703125 195.51666259765625 235.20001220703125 196.51666259765625 234.20001220703125 196.51666259765625 233.20001220703125 197.51666259765625 233.20001220703125 198.51666259765625 233.20001220703125 200.51666259765625 233.20001220703125 202.51666259765625 234.20001220703125 205.51666259765625 235.20001220703125 208.51666259765625 235.20001220703125 212.51666259765625 238.20001220703125 214.51666259765625 238.20001220703125 217.51666259765625 239.20001220703125 219.51666259765625 239.20001220703125 222.51666259765625 239.20001220703125 224.51666259765625 240.20001220703125 226.51666259765625 241.20001220703125 228.51666259765625 241.20001220703125 229.51666259765625 241.20001220703125 233.51666259765625 241.20001220703125 236.51666259765625 241.20001220703125 239.51666259765625 241.20001220703125 244.51666259765625 239.20001220703125 245.51666259765625 239.20001220703125 248.51666259765625 237.20001220703125 252.51666259765625 235.20001220703125 254.51666259765625 233.20001220703125 255.51666259765625 232.20001220703125 257.51666259765625 228.20001220703125 258.51666259765625 227.20001220703125 260.51666259765625 224.20001220703125 260.51666259765625 221.20001220703125 262.51666259765625 216.20001220703125 263.51666259765625 211.20001220703125 264.51666259765625 203.20001220703125 264.51666259765625 195.20001220703125 264.51666259765625 187.20001220703125 264.51666259765625 178.20001220703125 264.51666259765625 170.20001220703125 264.51666259765625 160.20001220703125 264.51666259765625 151.20001220703125 264.51666259765625 145.20001220703125 262.51666259765625 137.20001220703125 261.51666259765625 132.20001220703125 261.51666259765625 127.20001220703125 260.51666259765625 127.20001220703125" 
        stroke="#000000" stroke-width="3" fill="none" 
        stroke-linecap="round" stroke-linejoin="round" /><polyline points="176.51666259765625 191.39999389648438 176.51666259765625 192.39999389648438 173.51666259765625 195.39999389648438 172.51666259765625 198.39999389648438 168.51666259765625 202.39999389648438 161.51666259765625 210.39999389648438 149.51666259765625 222.39999389648438 142.51666259765625 230.39999389648438 135.51666259765625 237.39999389648438 131.51666259765625 241.39999389648438 116.51666259765625 255.39999389648438 109.51666259765625 264.3999938964844 103.51666259765625 271.3999938964844 98.51666259765625 279.3999938964844 95.51666259765625 287.3999938964844 94.51666259765625 290.3999938964844 93.51666259765625 297.3999938964844 93.51666259765625 302.3999938964844 93.51666259765625 310.3999938964844 97.51666259765625 318.3999938964844 103.51666259765625 327.3999938964844 108.51666259765625 333.3999938964844 113.51666259765625 338.3999938964844 118.51666259765625 341.3999938964844 124.51666259765625 343.3999938964844 129.51666259765625 345.3999938964844 136.51666259765625 346.3999938964844 143.51666259765625 346.3999938964844 152.51666259765625 346.3999938964844 163.51666259765625 346.3999938964844 174.51666259765625 346.3999938964844 184.51666259765625 346.3999938964844 192.51666259765625 345.3999938964844 206.51666259765625 341.3999938964844 228.51666259765625 335.3999938964844 236.51666259765625 333.3999938964844 249.51666259765625 329.3999938964844 261.51666259765625 323.3999938964844 272.51666259765625 317.3999938964844 284.51666259765625 311.3999938964844 295.51666259765625 307.3999938964844 303.51666259765625 304.3999938964844 307.51666259765625 302.3999938964844 311.51666259765625 299.3999938964844 312.51666259765625 298.3999938964844 313.51666259765625 298.3999938964844 313.51666259765625 298.3999938964844 310.51666259765625 302.3999938964844 304.51666259765625 308.3999938964844 300.51666259765625 315.3999938964844 296.51666259765625 322.3999938964844 293.51666259765625 326.3999938964844 292.51666259765625 330.3999938964844 290.51666259765625 334.3999938964844 288.51666259765625 338.3999938964844 288.51666259765625 338.3999938964844 288.51666259765625 339.3999938964844 288.51666259765625 340.3999938964844 288.51666259765625 341.3999938964844 288.51666259765625 342.3999938964844 288.51666259765625 342.3999938964844 289.51666259765625 342.3999938964844 290.51666259765625 342.3999938964844 290.51666259765625 341.3999938964844 290.51666259765625 338.3999938964844 290.51666259765625 334.3999938964844 290.51666259765625 329.3999938964844 289.51666259765625 321.3999938964844 281.51666259765625 306.3999938964844 273.51666259765625 294.3999938964844 265.51666259765625 282.3999938964844 254.51666259765625 271.3999938964844 242.51666259765625 262.3999938964844 230.51666259765625 251.39999389648438 218.51666259765625 243.39999389648438 206.51666259765625 238.39999389648438 195.51666259765625 234.39999389648438 180.51666259765625 234.39999389648438 172.51666259765625 234.39999389648438 166.51666259765625 236.39999389648438 159.51666259765625 240.39999389648438 152.51666259765625 246.39999389648438 147.51666259765625 252.39999389648438 141.51666259765625 259.3999938964844 138.51666259765625 267.3999938964844 136.51666259765625 276.3999938964844 134.51666259765625 285.3999938964844 133.51666259765625 292.3999938964844 133.51666259765625 300.3999938964844 133.51666259765625 307.3999938964844 133.51666259765625 312.3999938964844 134.51666259765625 315.3999938964844 138.51666259765625 318.3999938964844 140.51666259765625 318.3999938964844 142.51666259765625 320.3999938964844 144.51666259765625 320.3999938964844 148.51666259765625 320.3999938964844 151.51666259765625 320.3999938964844 154.51666259765625 320.3999938964844 157.51666259765625 319.3999938964844 159.51666259765625 318.3999938964844 160.51666259765625 318.3999938964844 160.51666259765625 317.3999938964844 159.51666259765625 317.3999938964844 158.51666259765625 317.3999938964844 158.51666259765625 318.3999938964844 158.51666259765625 321.3999938964844 158.51666259765625 325.3999938964844 160.51666259765625 330.3999938964844 163.51666259765625 336.3999938964844 168.51666259765625 343.3999938964844 172.51666259765625 350.3999938964844 177.51666259765625 357.3999938964844 181.51666259765625 363.3999938964844 188.51666259765625 376.3999938964844 192.51666259765625 382.3999938964844 193.51666259765625 389.3999938964844 195.51666259765625 394.3999938964844 195.51666259765625 401.3999938964844 195.51666259765625 406.3999938964844 195.51666259765625 413.3999938964844 194.51666259765625 417.3999938964844 192.51666259765625 422.3999938964844 189.51666259765625 425.3999938964844 186.51666259765625 427.3999938964844 183.51666259765625 430.3999938964844 180.51666259765625 433.3999938964844 177.51666259765625 434.3999938964844 176.51666259765625 434.3999938964844 173.51666259765625 434.3999938964844 171.51666259765625 435.3999938964844 168.51666259765625 436.3999938964844 164.51666259765625 437.3999938964844 160.51666259765625 437.3999938964844 156.51666259765625 437.3999938964844 152.51666259765625 437.3999938964844 133.51666259765625 435.3999938964844 120.51666259765625 432.3999938964844 98.51666259765625 427.3999938964844 84.51666259765625 423.3999938964844 70.51666259765625 420.3999938964844 64.51666259765625 418.3999938964844 55.51666259765625 416.3999938964844 44.51666259765625 414.3999938964844 43.51666259765625 414.3999938964844 42.51666259765625 414.3999938964844 41.51666259765625 414.3999938964844 43.51666259765625 414.3999938964844 44.51666259765625 413.3999938964844 54.51666259765625 410.3999938964844 68.51666259765625 409.3999938964844 87.51666259765625 409.3999938964844 122.51666259765625 409.3999938964844 152.51666259765625 409.3999938964844 203.51666259765625 409.3999938964844 232.51666259765625 409.3999938964844 259.51666259765625 409.3999938964844 283.51666259765625 406.3999938964844 300.51666259765625 402.3999938964844 319.51666259765625 398.3999938964844 324.51666259765625 396.3999938964844 327.51666259765625 394.3999938964844 327.51666259765625 392.3999938964844 327.51666259765625 389.3999938964844 327.51666259765625 386.3999938964844 325.51666259765625 382.3999938964844 321.51666259765625 376.3999938964844 316.51666259765625 368.3999938964844 306.51666259765625 356.3999938964844 302.51666259765625 352.3999938964844" 
        stroke="#000000" stroke-width="3" fill="none" 
        stroke-linecap="round" stroke-linejoin="round" /><polyline points="365.51666259765625 146.39999389648438 364.51666259765625 151.39999389648438 364.51666259765625 155.39999389648438 364.51666259765625 158.39999389648438 364.51666259765625 169.39999389648438 365.51666259765625 178.39999389648438 367.51666259765625 186.39999389648438 370.51666259765625 200.39999389648438 376.51666259765625 222.39999389648438 379.51666259765625 232.39999389648438 386.51666259765625 246.39999389648438 388.51666259765625 250.39999389648438 391.51666259765625 254.39999389648438 392.51666259765625 256.3999938964844 396.51666259765625 258.3999938964844 397.51666259765625 259.3999938964844 397.51666259765625 257.3999938964844 396.51666259765625 251.39999389648438 387.51666259765625 240.39999389648438 371.51666259765625 225.39999389648438 346.51666259765625 206.39999389648438 319.51666259765625 188.39999389648438 302.51666259765625 179.39999389648438 280.51666259765625 169.39999389648438 277.51666259765625 167.39999389648438 275.51666259765625 167.39999389648438 275.51666259765625 169.39999389648438 278.51666259765625 182.39999389648438 290.51666259765625 203.39999389648438 300.51666259765625 226.39999389648438 309.51666259765625 245.39999389648438 320.51666259765625 265.3999938964844 328.51666259765625 274.3999938964844 335.51666259765625 278.3999938964844 337.51666259765625 278.3999938964844 341.51666259765625 278.3999938964844 343.51666259765625 277.3999938964844 344.51666259765625 270.3999938964844 346.51666259765625 265.3999938964844 346.51666259765625 254.39999389648438 344.51666259765625 246.39999389648438 337.51666259765625 232.39999389648438 331.51666259765625 225.39999389648438 327.51666259765625 222.39999389648438 324.51666259765625 221.39999389648438 320.51666259765625 221.39999389648438 317.51666259765625 221.39999389648438 316.51666259765625 222.39999389648438 314.51666259765625 226.39999389648438 313.51666259765625 231.39999389648438 313.51666259765625 241.39999389648438 313.51666259765625 248.39999389648438 313.51666259765625 270.3999938964844 316.51666259765625 287.3999938964844 320.51666259765625 303.3999938964844 324.51666259765625 318.3999938964844 332.51666259765625 335.3999938964844 337.51666259765625 345.3999938964844 340.51666259765625 351.3999938964844 344.51666259765625 354.3999938964844 346.51666259765625 357.3999938964844 346.51666259765625 358.3999938964844 345.51666259765625 357.3999938964844 344.51666259765625 357.3999938964844 344.51666259765625 356.3999938964844 343.51666259765625 355.3999938964844 342.51666259765625 355.3999938964844 341.51666259765625 355.3999938964844 340.51666259765625 355.3999938964844 340.51666259765625 355.3999938964844 339.51666259765625 355.3999938964844" 
        stroke="#000000" stroke-width="3" fill="none" 
        stroke-linecap="round" stroke-linejoin="round" />
    </svg>
  