
    <svg xmlns="http://www.w3.org/2000/svg"
         width="483" height="598"
         viewBox="0 0 483 598">
      <rect x="126.51666259765625" y="31.600006103515625" width="160" height="230" 
        stroke="#000000" stroke-width="3" fill="none" /><circle cx="206.51666259765625" cy="105.60000610351562" r="67.17886572427373" 
        stroke="#000000" stroke-width="3" fill="none" /><polyline points="413.51666259765625 81.60000610351562 406.51666259765625 88.60000610351562 400.51666259765625 96.60000610351562 396.51666259765625 102.60000610351562 386.51666259765625 116.60000610351562 380.51666259765625 125.60000610351562 377.51666259765625 133.60000610351562 374.51666259765625 140.60000610351562 372.51666259765625 145.60000610351562 372.51666259765625 150.60000610351562 372.51666259765625 156.60000610351562 372.51666259765625 161.60000610351562 372.51666259765625 165.60000610351562 372.51666259765625 171.60000610351562 376.51666259765625 177.60000610351562 378.51666259765625 182.60000610351562 383.51666259765625 189.60000610351562 388.51666259765625 197.60000610351562 393.51666259765625 202.60000610351562 400.51666259765625 208.60000610351562 407.51666259765625 213.60000610351562 412.51666259765625 215.60000610351562 417.51666259765625 217.60000610351562 420.51666259765625 219.60000610351562 422.51666259765625 220.60000610351562 423.51666259765625 220.60000610351562 424.51666259765625 221.60000610351562 424.51666259765625 221.60000610351562 424.51666259765625 222.60000610351562 424.51666259765625 225.60000610351562 424.51666259765625 226.60000610351562 424.51666259765625 230.60000610351562 424.51666259765625 235.60000610351562 424.51666259765625 240.60000610351562 423.51666259765625 245.60000610351562 422.51666259765625 249.60000610351562 420.51666259765625 256.6000061035156 419.51666259765625 261.6000061035156 418.51666259765625 264.6000061035156 416.51666259765625 269.6000061035156 414.51666259765625 273.6000061035156 411.51666259765625 277.6000061035156 409.51666259765625 280.6000061035156 404.51666259765625 285.6000061035156 399.51666259765625 289.6000061035156 392.51666259765625 293.6000061035156 386.51666259765625 296.6000061035156 380.51666259765625 297.6000061035156 376.51666259765625 298.6000061035156 372.51666259765625 299.6000061035156 365.51666259765625 299.6000061035156 360.51666259765625 299.6000061035156 356.51666259765625 299.6000061035156 348.51666259765625 297.6000061035156 340.51666259765625 293.6000061035156 330.51666259765625 287.6000061035156 327.51666259765625 285.6000061035156 320.51666259765625 279.6000061035156 314.51666259765625 274.6000061035156 310.51666259765625 269.6000061035156 308.51666259765625 266.6000061035156 308.51666259765625 265.6000061035156 308.51666259765625 262.6000061035156 308.51666259765625 255.60000610351562 311.51666259765625 246.60000610351562 313.51666259765625 241.60000610351562 319.51666259765625 233.60000610351562 324.51666259765625 225.60000610351562 330.51666259765625 216.60000610351562 332.51666259765625 212.60000610351562 338.51666259765625 202.60000610351562 344.51666259765625 194.60000610351562 349.51666259765625 184.60000610351562 352.51666259765625 178.60000610351562 356.51666259765625 174.60000610351562 358.51666259765625 169.60000610351562 359.51666259765625 167.60000610351562 361.51666259765625 163.60000610351562 362.51666259765625 159.60000610351562 362.51666259765625 157.60000610351562 362.51666259765625 154.60000610351562 362.51666259765625 152.60000610351562 362.51666259765625 149.60000610351562 362.51666259765625 148.60000610351562 362.51666259765625 145.60000610351562 361.51666259765625 145.60000610351562 360.51666259765625 142.60000610351562 360.51666259765625 140.60000610351562 359.51666259765625 137.60000610351562 358.51666259765625 135.60000610351562 357.51666259765625 133.60000610351562 357.51666259765625 131.60000610351562 357.51666259765625 129.60000610351562 356.51666259765625 126.60000610351562 356.51666259765625 123.60000610351562 356.51666259765625 122.60000610351562 355.51666259765625 119.60000610351562 355.51666259765625 118.60000610351562 354.51666259765625 117.60000610351562 353.51666259765625 116.60000610351562 352.51666259765625 115.60000610351562 352.51666259765625 115.60000610351562 350.51666259765625 116.60000610351562 346.51666259765625 121.60000610351562 340.51666259765625 127.60000610351562 336.51666259765625 134.60000610351562 328.51666259765625 141.60000610351562 323.51666259765625 149.60000610351562 317.51666259765625 157.60000610351562 312.51666259765625 165.60000610351562 309.51666259765625 173.60000610351562 308.51666259765625 182.60000610351562 308.51666259765625 192.60000610351562 308.51666259765625 203.60000610351562 308.51666259765625 213.60000610351562 308.51666259765625 225.60000610351562 308.51666259765625 230.60000610351562 311.51666259765625 241.60000610351562 312.51666259765625 250.60000610351562 316.51666259765625 258.6000061035156 316.51666259765625 261.6000061035156 320.51666259765625 268.6000061035156 324.51666259765625 274.6000061035156 329.51666259765625 282.6000061035156 332.51666259765625 286.6000061035156 343.51666259765625 295.6000061035156 348.51666259765625 300.6000061035156 351.51666259765625 301.6000061035156 356.51666259765625 305.6000061035156 357.51666259765625 306.6000061035156 361.51666259765625 309.6000061035156 365.51666259765625 313.6000061035156 368.51666259765625 315.6000061035156 368.51666259765625 316.6000061035156 369.51666259765625 318.6000061035156 369.51666259765625 320.6000061035156 369.51666259765625 322.6000061035156 369.51666259765625 324.6000061035156 369.51666259765625 326.6000061035156 369.51666259765625 329.6000061035156 369.51666259765625 333.6000061035156 369.51666259765625 336.6000061035156 368.51666259765625 339.6000061035156 366.51666259765625 342.6000061035156 364.51666259765625 345.6000061035156 361.51666259765625 349.6000061035156 359.51666259765625 350.6000061035156 354.51666259765625 353.6000061035156 352.51666259765625 354.6000061035156 346.51666259765625 358.6000061035156 336.51666259765625 361.6000061035156 332.51666259765625 363.6000061035156 323.51666259765625 367.6000061035156 313.51666259765625 369.6000061035156 304.51666259765625 371.6000061035156 296.51666259765625 373.6000061035156 292.51666259765625 373.6000061035156 284.51666259765625 373.6000061035156 277.51666259765625 373.6000061035156 272.51666259765625 373.6000061035156 269.51666259765625 373.6000061035156 267.51666259765625 373.6000061035156 264.51666259765625 372.6000061035156 262.51666259765625 371.6000061035156 260.51666259765625 370.6000061035156 259.51666259765625 369.6000061035156 258.51666259765625 368.6000061035156 256.51666259765625 367.6000061035156 256.51666259765625 365.6000061035156 256.51666259765625 363.6000061035156 256.51666259765625 362.6000061035156 256.51666259765625 355.6000061035156 256.51666259765625 352.6000061035156 256.51666259765625 346.6000061035156 257.51666259765625 341.6000061035156 258.51666259765625 337.6000061035156 261.51666259765625 333.6000061035156 263.51666259765625 329.6000061035156 264.51666259765625 325.6000061035156 264.51666259765625 324.6000061035156 264.51666259765625 322.6000061035156 264.51666259765625 322.6000061035156 263.51666259765625 322.6000061035156 258.51666259765625 323.6000061035156 251.51666259765625 324.6000061035156 240.51666259765625 324.6000061035156 233.51666259765625 324.6000061035156 217.51666259765625 324.6000061035156 201.51666259765625 324.6000061035156 186.51666259765625 323.6000061035156 171.51666259765625 320.6000061035156 157.51666259765625 317.6000061035156 146.51666259765625 313.6000061035156 140.51666259765625 311.6000061035156 133.51666259765625 308.6000061035156 131.51666259765625 305.6000061035156 128.51666259765625 304.6000061035156 128.51666259765625 303.6000061035156 126.51666259765625 301.6000061035156 125.51666259765625 300.6000061035156 124.51666259765625 297.6000061035156 122.51666259765625 297.6000061035156 120.51666259765625 296.6000061035156 118.51666259765625 296.6000061035156 114.51666259765625 296.6000061035156 108.51666259765625 296.6000061035156 105.51666259765625 296.6000061035156 100.51666259765625 297.6000061035156 97.51666259765625 300.6000061035156 94.51666259765625 303.6000061035156 92.51666259765625 305.6000061035156 90.51666259765625 313.6000061035156 89.51666259765625 317.6000061035156 89.51666259765625 322.6000061035156 89.51666259765625 328.6000061035156 91.51666259765625 332.6000061035156 92.51666259765625 334.6000061035156 97.51666259765625 339.6000061035156 103.51666259765625 342.6000061035156 111.51666259765625 345.6000061035156 119.51666259765625 346.6000061035156 128.51666259765625 346.6000061035156 138.51666259765625 346.6000061035156 149.51666259765625 346.6000061035156 157.51666259765625 346.6000061035156 162.51666259765625 345.6000061035156 168.51666259765625 342.6000061035156 171.51666259765625 338.6000061035156 172.51666259765625 336.6000061035156 172.51666259765625 331.6000061035156 172.51666259765625 323.6000061035156 172.51666259765625 318.6000061035156 168.51666259765625 309.6000061035156 166.51666259765625 304.6000061035156 157.51666259765625 289.6000061035156 152.51666259765625 284.6000061035156 149.51666259765625 281.6000061035156 147.51666259765625 280.6000061035156 140.51666259765625 276.6000061035156 134.51666259765625 273.6000061035156 128.51666259765625 272.6000061035156 124.51666259765625 272.6000061035156 120.51666259765625 272.6000061035156 116.51666259765625 272.6000061035156 112.51666259765625 274.6000061035156 108.51666259765625 278.6000061035156 106.51666259765625 281.6000061035156 106.51666259765625 287.6000061035156 106.51666259765625 292.6000061035156 106.51666259765625 297.6000061035156 109.51666259765625 301.6000061035156 111.51666259765625 305.6000061035156 112.51666259765625 305.6000061035156 114.51666259765625 305.6000061035156 116.51666259765625 305.6000061035156 116.51666259765625 305.6000061035156 117.51666259765625 305.6000061035156 119.51666259765625 304.6000061035156 120.51666259765625 299.6000061035156 120.51666259765625 290.6000061035156 120.51666259765625 281.6000061035156 120.51666259765625 271.6000061035156 116.51666259765625 261.6000061035156 112.51666259765625 253.60000610351562 101.51666259765625 229.60000610351562 90.51666259765625 212.60000610351562 85.51666259765625 205.60000610351562 75.51666259765625 191.60000610351562 65.51666259765625 179.60000610351562 56.51666259765625 167.60000610351562 48.51666259765625 157.60000610351562 44.51666259765625 148.60000610351562 41.51666259765625 141.60000610351562 41.51666259765625 136.60000610351562 41.51666259765625 130.60000610351562 41.51666259765625 125.60000610351562 41.51666259765625 117.60000610351562 41.51666259765625 112.60000610351562 41.51666259765625 109.60000610351562 41.51666259765625 101.60000610351562 41.51666259765625 96.60000610351562 41.51666259765625 93.60000610351562 41.51666259765625 87.60000610351562 41.51666259765625 84.60000610351562 40.51666259765625 75.60000610351562 40.51666259765625 73.60000610351562 40.51666259765625 69.60000610351562 40.51666259765625 65.60000610351562 40.51666259765625 62.600006103515625 40.51666259765625 61.600006103515625 40.51666259765625 60.600006103515625 39.51666259765625 59.600006103515625 38.51666259765625 60.600006103515625 36.51666259765625 65.60000610351562 34.51666259765625 69.60000610351562 25.51666259765625 84.60000610351562 19.51666259765625 96.60000610351562 15.51666259765625 103.60000610351562 8.51666259765625 119.60000610351562 2.51666259765625 136.60000610351562 0.51666259765625 274.6000061035156 10.51666259765625 285.6000061035156 12.51666259765625 289.6000061035156 20.51666259765625 297.6000061035156 27.51666259765625 305.6000061035156 33.51666259765625 312.6000061035156 39.51666259765625 319.6000061035156 41.51666259765625 325.6000061035156 44.51666259765625 329.6000061035156 48.51666259765625 336.6000061035156 52.51666259765625 344.6000061035156 53.51666259765625 349.6000061035156 54.51666259765625 353.6000061035156 55.51666259765625 357.6000061035156 55.51666259765625 359.6000061035156 56.51666259765625 362.6000061035156 56.51666259765625 365.6000061035156 56.51666259765625 367.6000061035156 56.51666259765625 369.6000061035156 56.51666259765625 370.6000061035156 56.51666259765625 371.6000061035156 56.51666259765625 373.6000061035156 56.51666259765625 374.6000061035156 55.51666259765625 377.6000061035156 55.51666259765625 379.6000061035156 55.51666259765625 382.6000061035156 55.51666259765625 384.6000061035156 55.51666259765625 385.6000061035156 55.51666259765625 386.6000061035156 55.51666259765625 387.6000061035156 55.51666259765625 389.6000061035156 55.51666259765625 390.6000061035156 55.51666259765625 391.6000061035156 56.51666259765625 392.6000061035156 57.51666259765625 393.6000061035156 60.51666259765625 394.6000061035156 60.51666259765625 395.6000061035156 64.51666259765625 396.6000061035156 69.51666259765625 397.6000061035156 76.51666259765625 399.6000061035156 80.51666259765625 400.6000061035156 91.51666259765625 402.6000061035156 103.51666259765625 405.6000061035156 115.51666259765625 408.6000061035156 132.51666259765625 412.6000061035156 148.51666259765625 416.6000061035156 162.51666259765625 419.6000061035156 177.51666259765625 421.6000061035156 189.51666259765625 422.6000061035156 195.51666259765625 422.6000061035156 200.51666259765625 422.6000061035156 217.51666259765625 422.6000061035156 223.51666259765625 422.6000061035156 228.51666259765625 421.6000061035156 232.51666259765625 420.6000061035156 234.51666259765625 417.6000061035156 236.51666259765625 414.6000061035156 238.51666259765625 412.6000061035156 239.51666259765625 409.6000061035156 240.51666259765625 405.6000061035156 241.51666259765625 403.6000061035156 244.51666259765625 398.6000061035156 244.51666259765625 396.6000061035156 246.51666259765625 392.6000061035156 247.51666259765625 390.6000061035156 248.51666259765625 388.6000061035156 250.51666259765625 384.6000061035156 251.51666259765625 382.6000061035156 252.51666259765625 380.6000061035156 253.51666259765625 378.6000061035156 254.51666259765625 378.6000061035156 255.51666259765625 378.6000061035156 257.51666259765625 381.6000061035156 260.51666259765625 385.6000061035156 263.51666259765625 388.6000061035156 268.51666259765625 393.6000061035156 270.51666259765625 396.6000061035156 273.51666259765625 399.6000061035156 275.51666259765625 400.6000061035156 278.51666259765625 401.6000061035156 278.51666259765625 402.6000061035156 279.51666259765625 402.6000061035156 280.51666259765625 402.6000061035156 282.51666259765625 402.6000061035156 286.51666259765625 400.6000061035156 289.51666259765625 397.6000061035156 293.51666259765625 393.6000061035156 296.51666259765625 390.6000061035156" 
        stroke="#000000" stroke-width="3" fill="none" 
        stroke-linecap="round" stroke-linejoin="round" /><text x="153.51666259765625" y="192.60000610351562" 
        font-size="20" font-family="Arial" 
        fill="#000000">hello world</text><text x="186.51666259765625" y="286.6000061035156" 
        font-size="20" font-family="Arial" 
        fill="#000000"></text><text x="52.51666259765625" y="434.6000061035156" 
        font-size="20" font-family="Arial" 
        fill="#000000"></text><text x="220.51666259765625" y="293.6000061035156" 
        font-size="20" font-family="Arial" 
        fill="#000000">hola</text><text x="96.51666259765625" y="473.1999969482422" 
        font-size="20" font-family="Arial" 
        fill="#000000">mundi</text>
    </svg>
  