
    <svg xmlns="http://www.w3.org/2000/svg"
         width="800" height="600"
         viewBox="0 0 800 600">
      <polyline points="168.51666259765625 175.1999969482422 168.51666259765625 177.1999969482422 167.51666259765625 178.1999969482422 164.51666259765625 179.1999969482422 160.51666259765625 182.1999969482422 156.51666259765625 183.1999969482422 151.51666259765625 184.1999969482422 142.51666259765625 187.1999969482422 126.51666259765625 191.1999969482422 111.51666259765625 192.1999969482422 100.51666259765625 192.1999969482422 89.51666259765625 192.1999969482422 72.51666259765625 192.1999969482422 62.51666259765625 187.1999969482422 60.51666259765625 185.1999969482422 60.51666259765625 183.1999969482422 60.51666259765625 175.1999969482422 60.51666259765625 166.1999969482422 60.51666259765625 155.1999969482422 68.51666259765625 138.1999969482422 76.51666259765625 123.19999694824219 82.51666259765625 113.19999694824219 94.51666259765625 102.19999694824219 107.51666259765625 92.19999694824219 139.51666259765625 79.19999694824219 160.51666259765625 73.19999694824219 177.51666259765625 69.19999694824219 191.51666259765625 67.19999694824219 204.51666259765625 68.19999694824219 212.51666259765625 71.19999694824219 226.51666259765625 80.19999694824219 237.51666259765625 89.19999694824219 240.51666259765625 94.19999694824219 254.51666259765625 111.19999694824219 260.51666259765625 125.19999694824219 265.51666259765625 140.1999969482422 268.51666259765625 157.1999969482422 269.51666259765625 183.1999969482422 269.51666259765625 191.1999969482422 264.51666259765625 207.1999969482422 253.51666259765625 231.1999969482422 241.51666259765625 246.1999969482422 229.51666259765625 259.1999969482422 210.51666259765625 277.1999969482422 198.51666259765625 287.1999969482422 188.51666259765625 294.1999969482422 182.51666259765625 299.1999969482422 177.51666259765625 300.1999969482422 175.51666259765625 301.1999969482422 176.51666259765625 301.1999969482422 177.51666259765625 301.1999969482422 179.51666259765625 299.1999969482422 182.51666259765625 295.1999969482422 186.51666259765625 290.1999969482422 192.51666259765625 285.1999969482422 195.51666259765625 282.1999969482422 199.51666259765625 279.1999969482422 200.51666259765625 279.1999969482422 204.51666259765625 279.1999969482422 207.51666259765625 279.1999969482422 208.51666259765625 281.1999969482422 210.51666259765625 286.1999969482422 212.51666259765625 292.1999969482422 212.51666259765625 303.1999969482422 212.51666259765625 314.1999969482422 212.51666259765625 325.1999969482422 210.51666259765625 331.1999969482422 204.51666259765625 346.1999969482422 199.51666259765625 354.1999969482422 194.51666259765625 361.1999969482422 189.51666259765625 367.1999969482422 186.51666259765625 371.1999969482422 183.51666259765625 374.1999969482422 183.51666259765625 376.1999969482422 184.51666259765625 376.1999969482422 184.51666259765625 375.1999969482422 187.51666259765625 371.1999969482422 195.51666259765625 363.1999969482422 197.51666259765625 359.1999969482422 202.51666259765625 352.1999969482422 213.51666259765625 341.1999969482422 220.51666259765625 334.1999969482422 228.51666259765625 327.1999969482422 235.51666259765625 319.1999969482422 243.51666259765625 307.1999969482422 248.51666259765625 300.1999969482422 253.51666259765625 293.1999969482422 259.51666259765625 287.1999969482422 260.51666259765625 283.1999969482422 263.51666259765625 279.1999969482422 263.51666259765625 277.1999969482422 262.51666259765625 272.1999969482422 260.51666259765625 268.1999969482422 250.51666259765625 258.1999969482422 240.51666259765625 251.1999969482422 228.51666259765625 246.1999969482422 213.51666259765625 242.1999969482422 190.51666259765625 239.1999969482422 172.51666259765625 239.1999969482422 150.51666259765625 239.1999969482422 132.51666259765625 239.1999969482422 116.51666259765625 243.1999969482422 93.51666259765625 251.1999969482422 89.51666259765625 254.1999969482422 79.51666259765625 260.1999969482422 76.51666259765625 263.1999969482422 75.51666259765625 268.1999969482422 75.51666259765625 271.1999969482422 75.51666259765625 273.1999969482422 75.51666259765625 275.1999969482422 75.51666259765625 279.1999969482422 75.51666259765625 281.1999969482422 75.51666259765625 283.1999969482422 77.51666259765625 287.1999969482422 82.51666259765625 291.1999969482422 87.51666259765625 293.1999969482422 92.51666259765625 296.1999969482422 99.51666259765625 299.1999969482422 106.51666259765625 302.1999969482422 115.51666259765625 305.1999969482422" 
        stroke="#000000" stroke-width="3" fill="none" 
        stroke-linecap="round" stroke-linejoin="round" />
    </svg>
  